{"glyphs":{"0":{"ha":939,"x_min":88,"x_max":850,"o":"m 229 493 q 251 313 229 387 q 340 121 284 182 q 469 54 402 54 q 471 54 471 54 q 473 54 473 54 q 604 122 530 54 q 682 283 655 186 q 708 493 708 379 q 708 514 708 503 q 682 725 708 641 q 590 913 648 850 q 470 970 536 970 l 469 970 q 353 925 403 970 q 259 743 292 876 q 229 493 229 623 m 118 298 q 103 346 118 298 q 88 505 88 393 q 118 719 88 616 q 199 891 148 822 q 321 1001 251 960 q 469 1042 392 1042 q 617 1001 547 1042 q 739 891 688 960 q 821 719 791 822 q 850 505 850 616 q 821 298 850 393 q 739 134 791 203 q 617 24 688 65 q 469 -17 547 -17 q 321 24 392 -17 q 199 134 251 65 q 118 298 148 203 z "},"1":{"ha":473,"x_min":41,"x_max":432,"o":"m 41 0 q 168 95 125 16 l 170 100 l 170 745 l 170 751 q 41 846 170 838 l 303 1052 l 303 100 l 304 94 q 432 0 341 19 l 41 0 z "},"2":{"ha":905,"x_min":88,"x_max":824,"o":"m 88 0 q 397 463 132 306 l 443 482 q 622 745 622 551 l 622 758 q 578 901 622 850 q 441 969 517 969 l 440 969 q 269 910 337 969 q 201 797 216 864 q 260 770 235 795 q 286 707 286 745 q 260 644 286 670 q 197 618 234 618 q 135 645 161 618 q 109 710 109 673 q 208 944 109 844 q 437 1042 307 1042 l 439 1042 q 671 962 570 1042 q 772 742 772 880 l 772 720 q 653 501 764 573 q 483 414 576 451 q 190 159 339 367 q 266 185 227 185 q 268 185 267 185 q 270 185 269 185 q 460 151 343 185 l 608 119 q 663 113 637 113 q 824 184 753 113 q 642 -17 749 -17 q 639 -17 640 -17 q 636 -17 637 -17 q 633 -17 635 -17 l 633 -17 q 435 17 548 -17 l 294 49 q 232 56 262 56 q 89 1 149 56 l 88 0 z "},"3":{"ha":846,"x_min":81,"x_max":758,"o":"m 81 315 q 107 379 81 352 q 170 407 133 407 q 232 381 206 407 q 258 317 258 355 q 232 254 258 279 q 174 228 208 229 q 241 115 189 161 q 412 56 309 56 q 563 125 502 56 q 608 280 608 176 l 608 293 q 587 420 608 378 q 511 511 559 480 q 376 578 475 535 l 465 628 q 522 671 511 660 q 559 801 559 712 q 559 822 559 812 q 524 933 555 883 l 517 942 q 404 988 467 988 q 315 971 349 988 q 252 892 263 945 q 310 865 286 890 q 336 802 336 840 q 310 739 336 765 q 248 713 284 713 q 185 740 211 713 q 159 805 159 768 q 250 983 159 884 q 417 1042 313 1042 l 419 1042 q 593 1000 528 1042 q 696 831 688 937 q 696 812 696 822 l 696 810 q 647 675 696 734 l 620 648 q 486 581 566 605 q 574 549 492 576 q 678 486 627 532 q 758 298 751 418 l 758 270 q 650 57 745 131 q 416 -17 555 -17 q 180 81 278 -17 q 81 315 81 180 z "},"4":{"ha":776,"x_min":-41,"x_max":735,"o":"m -41 244 l 606 1052 l 606 313 l 724 313 l 686 244 l 606 244 l 606 100 l 608 94 q 735 0 644 19 l 344 0 q 471 95 428 16 l 473 100 l 473 244 l -41 244 m 473 313 l 473 778 l 98 313 l 473 313 z "},"5":{"ha":856,"x_min":88,"x_max":768,"o":"m 88 315 q 114 379 88 352 q 176 407 140 407 q 239 381 213 407 q 264 317 264 355 q 239 254 264 280 q 180 228 214 229 q 248 115 195 161 q 419 56 316 56 q 570 125 508 56 q 613 299 613 174 l 613 312 q 595 453 613 412 q 469 556 556 539 q 420 561 444 561 q 345 549 382 561 q 260 480 298 541 l 248 461 q 109 572 202 563 l 102 574 q 208 789 208 677 q 102 1025 208 902 l 742 1025 q 572 891 682 926 q 480 876 526 876 q 475 876 477 876 q 425 882 450 876 q 252 962 315 905 q 252 577 252 769 l 269 586 q 429 629 336 629 q 487 625 457 629 q 684 532 606 608 q 767 315 762 454 l 768 288 q 665 66 768 149 q 423 -17 562 -17 q 186 81 285 -17 q 88 315 88 180 z "},"6":{"ha":890,"x_min":88,"x_max":802,"o":"m 492 1043 q 643 1002 573 1043 q 754 890 722 948 q 774 847 762 879 q 781 802 781 831 q 781 801 781 802 q 781 800 781 800 q 755 739 781 768 q 692 713 731 713 q 630 740 656 713 q 604 803 604 766 q 630 867 604 840 q 670 888 644 880 q 621 940 651 916 q 496 981 580 972 q 483 981 490 982 q 332 901 380 971 q 261 720 284 829 q 242 576 242 631 q 243 557 242 566 l 269 587 q 467 652 355 652 q 709 556 612 652 q 802 334 790 471 l 802 326 l 802 307 q 706 81 802 178 q 469 -17 608 -17 q 321 24 392 -17 q 199 134 251 65 q 118 298 148 203 q 88 498 88 393 q 118 721 88 620 q 199 891 148 823 q 321 1001 252 960 q 492 1043 394 1043 m 418 585 q 282 518 340 585 q 245 459 273 507 q 245 454 245 454 q 245 449 245 452 q 271 301 245 402 q 339 136 298 196 q 501 53 393 53 q 503 53 502 53 q 636 138 587 53 q 662 272 662 183 q 661 316 662 293 q 598 492 647 425 q 418 585 524 585 z "},"7":{"ha":682,"x_min":0,"x_max":682,"o":"m 0 857 q 180 1042 64 1042 l 182 1042 q 349 1008 235 1041 l 465 976 q 521 970 494 970 l 522 970 q 682 1040 611 970 q 535 684 663 860 q 393 489 396 493 q 318 330 334 426 q 313 279 313 302 q 355 189 313 227 q 414 70 414 137 q 412 45 414 51 q 330 -17 392 -17 q 260 8 294 -17 q 205 86 224 35 q 184 191 191 123 q 183 222 183 207 q 215 374 184 302 q 278 478 241 436 q 369 586 361 576 q 481 726 446 677 q 574 870 539 805 q 494 840 536 840 q 490 840 492 840 q 323 873 441 840 l 207 905 q 142 914 174 914 l 140 914 q 0 857 62 914 z "},"8":{"ha":843,"x_min":81,"x_max":762,"o":"m 473 629 q 571 718 534 654 q 594 805 594 757 q 593 829 594 817 q 522 947 584 906 q 422 977 477 977 q 297 930 345 977 q 259 817 259 889 q 259 814 259 815 q 328 686 259 713 l 465 631 l 473 629 m 81 281 q 81 285 81 283 q 94 372 81 326 q 155 490 111 438 q 260 573 204 548 l 242 585 q 142 783 142 665 l 142 797 q 217 972 144 901 q 408 1042 291 1042 q 610 972 536 1042 q 679 808 679 907 q 637 666 679 728 q 564 597 606 620 l 557 593 l 603 570 q 762 315 747 494 l 762 289 q 669 74 751 160 q 444 -16 576 -16 l 439 -16 q 264 15 319 -16 q 157 98 201 50 q 88 220 102 159 q 81 281 81 249 m 340 525 q 241 475 293 513 q 183 387 206 442 q 159 284 161 332 q 160 271 159 278 q 216 145 168 199 q 410 58 286 69 l 426 60 q 629 294 629 92 q 628 311 629 303 q 546 443 621 396 l 340 525 z "},"9":{"ha":890,"x_min":88,"x_max":802,"o":"m 397 -17 q 247 24 317 -17 q 136 136 168 78 q 115 179 128 147 q 109 224 109 195 q 109 225 109 224 q 109 227 109 226 q 135 287 109 258 q 197 313 159 313 q 260 287 234 313 q 286 223 286 260 q 260 159 286 186 q 220 138 246 146 q 269 86 239 110 q 394 45 310 54 q 407 45 400 44 q 557 125 510 55 q 629 306 606 197 q 648 450 648 395 q 647 469 648 460 l 621 439 q 423 374 534 374 q 180 470 277 374 q 88 692 100 555 l 88 701 l 88 720 q 184 945 88 848 q 420 1043 282 1043 q 568 1002 498 1043 q 690 892 639 961 q 772 728 742 823 q 802 528 802 633 q 772 305 802 406 q 690 135 742 203 q 568 25 638 66 q 397 -17 496 -17 m 472 441 q 608 508 550 441 q 644 567 617 519 q 644 572 644 572 q 644 577 644 574 q 618 725 644 624 q 551 890 591 830 q 389 973 497 973 q 387 973 388 973 q 254 888 303 973 q 228 754 228 843 q 229 710 228 733 q 292 534 243 602 q 472 441 366 441 z "}," ":{"ha":407,"x_min":0,"x_max":0,"o":""},"!":{"ha":448,"x_min":136,"x_max":312,"o":"m 161 9 q 149 22 161 9 q 136 73 136 35 q 161 136 136 110 q 224 162 187 162 q 286 136 260 162 q 312 73 312 110 q 286 9 312 35 q 224 -17 260 -17 q 161 9 187 -17 m 190 212 l 137 937 q 136 952 136 945 q 161 1016 136 989 q 224 1042 187 1042 q 286 1016 260 1042 q 312 952 312 989 q 311 937 312 952 l 256 212 l 190 212 z "},"\"":{"ha":594,"x_min":136,"x_max":458,"o":"m 458 1042 l 458 737 l 340 737 l 340 1042 l 458 1042 m 254 1042 l 254 737 l 136 737 l 136 1042 l 254 1042 z "},"#":{"ha":918,"x_min":136,"x_max":782,"o":"m 136 313 l 136 402 l 298 402 l 298 545 l 136 545 l 136 634 l 298 634 l 298 797 l 387 797 l 387 634 l 530 634 l 530 797 l 619 797 l 619 634 l 782 634 l 782 545 l 619 545 l 619 402 l 782 402 l 782 313 l 619 313 l 619 151 l 530 151 l 530 313 l 387 313 l 387 151 l 298 151 l 298 313 l 136 313 m 387 545 l 387 402 l 530 402 l 530 545 l 387 545 z "},"$":{"ha":886,"x_min":81,"x_max":804,"o":"m 81 -18 l 81 506 q 180 170 110 271 l 193 155 q 247 109 203 138 q 374 58 302 70 l 374 518 l 294 551 q 151 783 152 631 l 151 796 q 227 971 153 901 q 374 1040 288 1029 l 374 1231 l 479 1231 l 479 1031 q 595 956 559 1011 l 601 956 q 671 1042 650 961 l 671 650 q 587 875 631 817 l 564 903 q 529 933 554 913 q 479 964 504 954 l 479 627 l 642 560 q 804 314 794 498 l 804 288 q 692 72 784 155 q 478 -16 609 -9 l 478 -201 l 374 -201 l 374 -7 q 307 11 344 0 l 180 65 l 171 68 q 81 -18 103 63 m 478 474 l 478 56 q 480 56 479 56 q 635 161 568 56 q 671 292 671 224 l 671 310 q 555 442 665 395 l 478 474 m 374 670 l 374 971 q 312 937 338 962 q 269 825 269 895 q 269 821 269 823 q 365 673 269 714 l 374 670 z "},"%":{"ha":1201,"x_min":136,"x_max":1065,"o":"m 245 -154 l 861 1231 l 954 1187 l 336 -201 l 245 -154 m 757 202 q 781 81 757 130 q 861 29 807 29 q 929 77 899 29 q 959 216 959 123 q 927 348 959 303 q 857 391 897 391 q 785 348 814 391 q 757 202 757 308 m 1065 211 q 1038 100 1065 153 q 963 14 1009 45 q 859 -17 917 -17 q 755 14 807 -17 q 677 98 705 45 q 653 212 653 142 q 681 334 653 280 q 755 419 709 389 q 859 450 803 450 q 963 419 915 450 q 1038 334 1009 389 q 1065 211 1065 279 m 344 621 q 412 668 381 621 q 441 808 441 714 q 410 939 441 895 q 339 982 379 982 q 267 939 297 982 q 239 793 239 899 q 264 672 239 720 q 344 621 290 621 m 548 802 q 520 691 548 744 q 446 606 492 637 q 342 574 399 574 q 238 606 290 574 q 159 689 187 636 q 136 803 136 734 q 163 925 136 871 q 238 1010 192 980 q 342 1042 286 1042 q 446 1010 397 1042 q 520 925 492 981 q 548 802 548 871 z "},"&":{"ha":1055,"x_min":88,"x_max":974,"o":"m 88 271 l 89 298 q 158 477 98 407 q 270 549 194 520 q 359 581 323 570 q 225 652 280 608 l 199 678 q 152 808 152 723 q 153 827 152 817 q 248 992 159 928 q 423 1043 317 1042 l 425 1043 q 595 983 530 1043 q 685 805 685 884 q 659 740 685 768 q 597 713 633 713 q 534 739 560 713 q 509 802 509 765 q 534 865 509 840 q 593 892 559 890 q 529 971 581 945 q 436 988 495 988 q 423 988 431 988 q 330 943 379 988 l 322 934 q 282 829 285 888 q 281 808 281 816 q 330 667 283 707 q 435 625 379 625 q 503 639 467 625 l 509 640 l 823 262 q 870 428 860 332 q 812 454 836 429 q 786 517 786 479 q 812 581 786 555 q 874 607 838 607 q 937 579 911 607 q 962 515 962 552 q 869 206 962 340 l 974 79 l 865 0 l 778 106 q 480 -17 631 -17 q 212 53 317 -17 q 88 271 102 126 m 735 158 l 449 507 l 431 513 q 414 513 420 513 q 252 427 293 509 q 234 310 234 393 q 234 292 234 302 l 234 279 q 283 136 234 188 q 483 55 360 55 q 500 56 492 55 q 735 158 621 66 z "},"'":{"ha":389,"x_min":136,"x_max":254,"o":"m 254 1042 l 254 737 l 136 737 l 136 1042 l 254 1042 z "},"(":{"ha":446,"x_min":136,"x_max":412,"o":"m 363 -199 q 296 -75 358 -197 q 278 -40 294 -69 q 181 195 220 67 q 136 517 136 340 q 181 842 136 671 q 278 1076 212 954 l 296 1110 q 370 1230 304 1126 l 410 1203 l 359 1081 q 335 1010 351 1065 q 286 806 299 894 q 264 519 264 667 q 290 227 264 345 q 349 1 312 122 q 361 -40 361 -41 l 412 -176 l 363 -199 z "},")":{"ha":446,"x_min":34,"x_max":310,"o":"m 82 -199 q 34 -176 82 -199 l 85 -40 q 97 1 85 -41 q 156 227 134 122 q 182 519 182 345 q 160 806 182 667 q 111 1010 146 894 q 87 1081 94 1065 l 36 1203 l 76 1230 q 149 1110 141 1126 l 168 1076 q 264 842 234 954 q 310 517 310 671 q 264 195 310 340 q 168 -40 225 67 q 149 -75 152 -69 q 82 -199 87 -197 z "},"*":{"ha":945,"x_min":136,"x_max":809,"o":"m 136 705 l 369 777 l 315 873 l 412 825 l 473 1042 l 548 823 l 648 872 l 602 777 l 809 705 l 597 637 l 648 539 l 546 596 l 473 368 l 409 592 l 315 538 l 368 640 l 136 705 z "},"+":{"ha":836,"x_min":136,"x_max":701,"o":"m 136 408 l 136 541 l 351 541 l 351 757 l 485 757 l 485 541 l 701 541 l 701 408 l 485 408 l 485 192 l 351 192 l 351 408 l 136 408 z "},",":{"ha":483,"x_min":136,"x_max":347,"o":"m 136 -167 q 142 -160 136 -167 q 210 -71 192 -114 q 225 -12 223 -39 l 225 3 q 185 26 203 8 q 159 90 159 52 q 185 153 159 127 q 248 179 211 179 q 310 155 280 179 q 345 85 339 131 q 347 55 347 70 q 321 -52 347 1 q 197 -164 271 -149 q 159 -168 178 -168 q 136 -167 148 -168 z "},"-":{"ha":836,"x_min":136,"x_max":701,"o":"m 136 541 l 701 541 l 701 408 l 136 408 l 136 541 z "},".":{"ha":448,"x_min":136,"x_max":312,"o":"m 161 9 q 149 22 161 9 q 136 73 136 35 q 161 136 136 110 q 224 162 187 162 q 286 136 260 162 q 312 73 312 110 q 286 9 312 35 q 224 -17 260 -17 q 161 9 187 -17 z "},"/":{"ha":709,"x_min":0,"x_max":709,"o":"m 0 -154 l 616 1231 l 709 1187 l 91 -201 l 0 -154 z "},":":{"ha":449,"x_min":136,"x_max":313,"o":"m 163 9 q 150 22 163 9 q 137 73 137 35 q 163 136 137 110 q 225 162 189 162 q 288 136 262 162 q 313 73 313 110 q 288 9 313 35 q 225 -17 262 -17 q 163 9 189 -17 m 161 402 q 149 415 161 402 q 136 465 136 428 q 161 529 136 503 q 224 555 187 555 q 286 529 260 555 q 312 465 312 503 q 286 402 312 428 q 224 376 260 376 q 161 402 187 376 z "},";":{"ha":483,"x_min":136,"x_max":347,"o":"m 136 -184 q 142 -178 136 -184 q 210 -88 192 -132 q 225 -29 223 -57 l 225 -15 q 185 8 203 -9 q 159 72 159 34 q 185 135 159 109 q 248 161 211 161 q 310 137 280 161 q 345 68 339 113 q 347 37 347 52 q 321 -69 347 -17 q 197 -182 271 -166 q 159 -186 178 -186 q 136 -184 148 -186 m 179 400 q 166 414 179 400 q 153 464 153 427 q 179 527 153 501 q 241 553 205 553 q 304 527 278 553 q 330 464 330 501 q 304 400 330 427 q 241 374 278 374 q 179 400 205 374 z "},"<":{"ha":907,"x_min":88,"x_max":771,"o":"m 88 465 l 728 827 l 771 756 l 306 493 l 771 237 l 715 113 l 88 465 z "},"=":{"ha":837,"x_min":136,"x_max":701,"o":"m 136 429 l 701 429 l 701 296 l 136 296 l 136 429 m 136 665 l 701 665 l 701 532 l 136 532 l 136 665 z "},">":{"ha":907,"x_min":136,"x_max":819,"o":"m 819 475 l 178 113 l 136 184 l 601 448 l 136 704 l 192 827 l 819 475 z "},"?":{"ha":852,"x_min":88,"x_max":764,"o":"m 336 9 q 323 22 336 9 q 311 73 311 35 q 336 136 311 110 q 399 162 362 162 q 461 136 435 162 q 487 73 487 110 q 461 9 487 35 q 399 -17 435 -17 q 336 9 362 -17 m 359 263 l 359 291 q 442 454 363 387 l 463 469 q 618 707 607 575 l 618 727 q 591 863 618 821 q 416 963 532 956 q 253 898 317 962 q 186 796 205 849 q 239 770 216 793 q 264 707 264 745 q 239 644 264 670 q 176 618 213 618 q 114 644 140 618 q 88 707 88 670 q 186 944 88 844 q 423 1042 285 1042 q 663 955 562 1042 q 764 730 764 869 l 764 703 q 647 503 753 574 l 499 404 q 422 273 422 354 l 422 263 l 359 263 z "},"@":{"ha":916,"x_min":102,"x_max":916,"o":"m 544 430 q 479 401 515 430 q 444 343 459 386 q 431 266 433 315 q 431 236 431 250 q 433 198 431 215 q 472 106 439 140 q 547 71 506 71 q 563 71 547 71 q 652 95 614 75 l 652 324 q 617 396 648 364 q 544 430 584 430 m 132 50 q 117 97 132 50 q 102 250 102 145 q 132 450 102 355 q 213 614 161 545 q 335 724 264 683 q 483 765 406 765 q 632 714 562 765 q 741 574 703 663 q 782 382 782 491 l 782 100 l 785 95 q 916 0 821 20 l 652 0 l 652 24 q 591 0 621 7 q 551 -4 574 -4 q 503 0 529 -4 q 380 68 437 10 q 324 164 342 108 q 312 249 312 202 q 313 278 312 264 q 342 388 320 349 q 412 456 364 428 q 518 490 471 490 q 624 464 568 490 l 646 452 q 593 633 636 587 q 480 685 545 685 q 359 643 407 685 q 271 473 300 593 q 244 260 244 365 q 244 250 244 255 q 270 52 244 144 q 366 -134 305 -56 q 486 -187 408 -187 q 618 -136 557 -187 l 686 -185 q 631 -224 660 -207 q 483 -265 559 -265 q 335 -224 406 -265 q 213 -115 264 -183 q 132 50 161 -45 z "},"A":{"ha":895,"x_min":-47,"x_max":943,"o":"m -47 0 q 79 95 36 16 l 81 100 l 444 1052 l 814 100 l 814 98 l 817 92 q 943 0 860 16 l 551 0 q 680 84 680 38 q 679 94 680 89 l 677 100 l 573 366 l 260 366 l 161 100 l 159 94 q 157 85 157 90 q 287 0 157 43 l -47 0 m 286 435 l 547 435 l 415 793 l 286 435 z "},"B":{"ha":1027,"x_min":41,"x_max":939,"o":"m 372 962 q 323 931 338 950 q 304 869 305 909 l 304 156 q 313 111 304 126 q 346 78 326 90 q 465 52 397 52 q 486 53 475 52 q 682 107 628 62 q 768 205 737 144 q 789 313 789 246 q 788 339 789 326 q 671 481 783 434 q 530 534 608 509 q 415 574 427 569 q 545 616 531 611 q 617 648 586 631 q 661 680 644 663 q 697 784 697 718 q 697 791 697 787 q 627 928 697 873 q 484 977 582 962 q 457 978 475 978 q 372 962 422 977 m 41 100 q 119 115 52 101 q 161 132 147 121 q 170 156 170 139 l 170 869 q 159 895 170 884 q 123 911 144 908 q 41 924 62 922 l 274 1013 q 481 1042 349 1042 q 648 1012 573 1042 q 769 937 726 981 q 834 800 826 880 q 835 786 835 793 q 819 716 835 751 q 760 646 801 675 q 676 606 738 629 q 556 574 671 604 q 661 564 623 568 q 804 530 761 551 q 931 376 907 482 q 939 310 939 342 q 918 199 939 255 q 806 64 889 119 q 659 5 765 37 q 481 -17 583 -17 q 448 -16 473 -17 q 258 22 349 -12 q 41 100 88 85 z "},"C":{"ha":926,"x_min":88,"x_max":859,"o":"m 118 298 q 88 505 88 393 q 118 719 88 616 q 199 891 149 825 q 321 1001 252 961 q 463 1042 391 1042 q 469 1042 466 1042 q 615 1006 548 1042 q 688 957 661 982 l 694 956 q 783 1042 762 962 l 783 650 q 701 867 748 789 q 642 930 677 903 q 510 970 586 970 q 349 912 422 970 q 263 735 295 850 q 232 515 232 622 q 232 506 232 511 q 254 313 232 400 q 374 106 304 164 q 523 58 432 58 q 555 60 538 58 q 667 103 605 64 q 745 178 702 124 q 789 267 772 212 l 859 240 q 799 136 833 181 q 677 26 747 66 q 501 -17 600 -17 q 498 -17 499 -17 q 323 24 394 -17 q 199 134 251 65 q 118 298 149 201 z "},"D":{"ha":1020,"x_min":41,"x_max":932,"o":"m 372 962 q 323 931 339 950 q 304 869 305 911 l 304 156 q 313 111 304 126 q 346 78 326 90 q 481 53 396 53 q 486 53 484 53 q 643 125 564 53 q 749 292 713 201 q 783 495 783 379 q 783 513 783 503 q 756 724 783 642 q 639 905 712 843 q 482 970 574 960 q 445 972 465 972 q 372 962 408 972 m 41 100 q 119 115 52 101 q 161 132 147 121 q 170 156 170 139 l 170 869 q 159 895 170 884 q 125 911 144 908 q 41 924 54 923 l 274 1013 q 463 1042 356 1042 q 481 1042 471 1042 q 648 999 559 1042 q 800 883 732 958 q 895 718 857 819 q 932 505 932 616 q 894 297 932 393 q 800 136 857 201 q 650 26 742 70 q 467 -17 562 -17 q 258 22 361 -17 q 41 100 96 82 z "},"E":{"ha":897,"x_min":41,"x_max":897,"o":"m 41 0 q 168 95 125 16 l 170 100 l 170 924 l 168 930 q 41 1025 125 1008 l 682 1025 l 808 806 q 621 955 669 950 l 611 956 l 304 956 l 304 435 l 516 435 l 526 436 q 713 585 574 441 l 517 245 q 524 286 524 267 q 483 364 524 336 l 478 366 l 304 366 l 304 69 l 699 69 l 709 70 q 897 218 757 75 l 770 0 l 41 0 z "},"F":{"ha":863,"x_min":41,"x_max":808,"o":"m 41 0 q 168 95 125 16 l 170 100 l 170 924 l 168 930 q 41 1025 125 1008 l 682 1025 l 808 806 q 621 955 669 950 l 611 956 l 304 956 l 304 435 l 516 435 l 526 436 q 713 585 574 441 l 517 245 q 524 286 524 267 q 483 364 524 336 l 478 366 l 304 366 l 304 100 l 305 94 q 433 0 342 19 l 41 0 z "},"G":{"ha":916,"x_min":88,"x_max":848,"o":"m 118 298 q 103 346 118 298 q 88 505 88 393 q 118 719 88 616 q 199 891 149 825 q 321 1001 252 961 q 463 1042 391 1042 q 469 1042 466 1042 q 615 1006 548 1042 q 688 957 661 982 l 694 956 q 783 1042 762 962 l 783 650 q 701 867 748 789 q 642 930 677 903 q 510 970 586 970 q 355 911 430 970 q 263 735 296 854 q 232 516 232 623 q 232 507 232 512 q 254 315 232 401 q 338 121 293 169 q 475 54 399 54 q 602 112 538 54 q 681 251 670 188 q 684 288 684 271 q 671 346 684 323 l 668 351 q 495 435 617 422 l 848 435 q 821 298 841 363 q 739 134 791 202 q 617 24 688 66 q 469 -17 547 -17 q 321 24 392 -17 q 199 134 251 65 q 118 298 148 203 z "},"H":{"ha":1049,"x_min":41,"x_max":1008,"o":"m 41 0 q 168 95 125 16 l 170 100 l 170 924 l 168 930 q 41 1025 125 1008 l 433 1025 q 305 930 342 1006 l 304 924 l 304 435 l 745 435 l 745 924 l 744 930 q 616 1025 701 1008 l 1008 1025 q 881 930 918 1006 l 880 924 l 880 100 l 881 94 q 1008 0 918 19 l 616 0 q 744 95 701 16 l 745 100 l 745 366 l 304 366 l 304 100 l 305 94 q 433 0 342 19 l 41 0 z "},"I":{"ha":473,"x_min":41,"x_max":433,"o":"m 41 0 q 168 95 125 16 l 170 100 l 170 924 l 168 930 q 41 1025 125 1008 l 433 1025 q 305 930 342 1006 l 304 924 l 304 100 l 305 94 q 433 0 342 19 l 41 0 z "},"J":{"ha":473,"x_min":41,"x_max":433,"o":"m 41 -212 q 170 93 170 -74 q 170 95 170 94 l 170 100 l 170 924 l 168 930 q 41 1025 125 1008 l 433 1025 q 305 930 342 1006 l 304 924 l 304 100 l 304 95 q 45 -211 304 -132 l 41 -212 z "},"K":{"ha":1015,"x_min":41,"x_max":1015,"o":"m 41 0 q 168 95 125 16 l 170 100 l 170 924 l 168 930 q 41 1025 125 1008 l 433 1025 q 305 930 342 1006 l 304 924 l 304 399 l 741 945 l 747 952 q 749 964 749 957 q 632 1025 749 990 l 951 1025 q 827 930 903 1010 l 823 924 l 426 434 q 494 448 463 448 q 496 448 495 448 q 685 363 614 448 q 807 124 720 321 l 821 94 q 892 38 850 38 q 895 38 893 38 q 962 64 932 38 q 1015 107 996 94 q 958 -28 1006 22 q 847 -83 905 -83 q 846 -83 846 -83 q 734 -20 784 -83 q 693 51 724 -7 l 596 256 q 499 366 550 347 q 390 390 438 389 l 387 387 l 304 283 l 304 100 l 305 94 q 433 0 342 19 l 41 0 z "},"L":{"ha":787,"x_min":41,"x_max":842,"o":"m 41 0 q 168 95 125 16 l 170 100 l 170 924 l 168 930 q 41 1025 125 1008 l 433 1025 q 305 930 342 1006 l 304 924 l 304 69 l 644 69 l 654 70 q 842 218 702 75 l 715 0 l 41 0 z "},"M":{"ha":1230,"x_min":-14,"x_max":1244,"o":"m -14 0 q 114 94 77 19 l 115 100 l 258 1052 l 623 229 l 973 1052 l 1115 100 l 1116 94 q 1244 0 1153 19 l 852 0 q 981 92 981 48 q 981 95 981 93 l 981 100 l 892 686 l 583 -27 l 271 692 l 191 100 l 191 92 q 320 0 192 52 l -14 0 z "},"N":{"ha":1051,"x_min":41,"x_max":1010,"o":"m 41 0 q 168 95 125 16 l 170 100 l 170 1052 l 806 298 l 806 924 l 804 930 q 677 1025 761 1008 l 1010 1025 q 883 930 920 1006 l 882 924 l 882 -27 l 245 733 l 245 100 l 247 94 q 374 0 283 19 l 41 0 z "},"O":{"ha":939,"x_min":88,"x_max":850,"o":"m 229 493 q 251 313 229 387 q 340 121 284 182 q 469 54 402 54 q 471 54 471 54 q 473 54 473 54 q 604 122 530 54 q 682 283 655 186 q 708 493 708 379 q 708 514 708 503 q 682 725 708 641 q 590 913 648 850 q 470 970 536 970 l 469 970 q 353 925 403 970 q 259 743 292 876 q 229 493 229 623 m 118 298 q 103 346 118 298 q 88 505 88 393 q 118 719 88 616 q 199 891 148 822 q 321 1001 251 960 q 469 1042 392 1042 q 617 1001 547 1042 q 739 891 688 960 q 821 719 791 822 q 850 505 850 616 q 821 298 850 393 q 739 134 791 203 q 617 24 688 65 q 469 -17 547 -17 q 321 24 392 -17 q 199 134 251 65 q 118 298 148 203 z "},"P":{"ha":928,"x_min":34,"x_max":840,"o":"m 34 0 q 161 95 118 16 l 163 100 l 163 868 q 154 892 163 884 q 113 909 142 902 q 34 924 53 922 q 241 1001 81 945 q 438 1041 355 1041 q 444 1041 441 1041 q 613 1013 545 1041 q 728 944 682 986 q 818 822 791 886 q 840 700 836 785 q 762 488 836 566 q 613 388 696 418 q 485 367 556 367 q 457 368 471 367 q 297 425 359 372 l 297 100 l 298 94 q 426 0 335 19 l 34 0 m 443 971 q 339 946 390 971 q 307 913 319 934 q 297 868 297 897 l 297 530 q 407 444 331 467 q 470 434 439 434 q 477 434 473 434 q 505 435 480 434 q 613 477 569 442 q 693 700 693 542 q 661 846 693 781 q 574 940 632 903 q 443 971 524 971 z "},"Q":{"ha":939,"x_min":88,"x_max":850,"o":"m 118 298 q 103 346 118 298 q 88 505 88 393 q 118 719 88 616 q 199 891 148 822 q 321 1001 251 960 q 469 1042 392 1042 q 617 1001 547 1042 q 739 891 688 960 q 821 719 791 822 q 850 505 850 616 q 821 298 850 393 q 739 134 790 200 q 721 111 730 122 q 720 77 722 93 l 709 -5 l 706 -46 l 706 -55 q 805 -94 706 -94 q 825 -93 815 -94 l 798 -146 q 661 -181 712 -181 q 584 -102 584 -181 q 584 -95 584 -99 q 589 -5 584 -68 l 591 10 q 469 -17 532 -17 q 321 24 392 -17 q 199 134 251 65 q 118 298 148 203 m 228 471 q 251 312 228 400 q 338 119 288 174 q 476 54 397 54 q 545 74 508 54 q 496 78 524 78 q 473 77 484 78 l 500 130 q 649 176 595 175 q 684 283 662 201 q 711 493 711 379 q 711 514 711 503 q 684 725 711 642 q 593 906 660 825 q 469 970 539 970 q 353 922 406 970 q 259 742 288 869 q 228 471 228 607 z "},"R":{"ha":974,"x_min":41,"x_max":1015,"o":"m 450 971 q 346 946 397 971 q 313 913 326 934 q 304 868 304 897 l 304 530 q 414 444 338 467 q 477 434 446 434 q 484 434 480 434 q 511 435 487 434 q 620 477 576 442 q 700 700 700 542 q 667 846 700 781 q 581 940 639 903 q 450 971 530 971 m 41 0 q 168 95 125 16 l 170 100 l 170 868 q 161 892 170 884 q 119 909 149 902 q 41 924 60 922 q 248 1001 87 945 q 445 1041 362 1041 q 450 1041 448 1041 q 620 1013 551 1041 q 735 944 689 986 q 825 822 798 886 q 846 700 842 785 q 769 488 843 567 q 643 397 713 429 q 685 363 668 383 q 807 124 720 321 l 821 94 q 892 38 850 38 q 895 38 893 38 q 962 64 931 38 q 1015 107 996 94 q 958 -28 1006 22 q 848 -83 905 -83 q 846 -83 847 -83 q 734 -20 781 -83 q 693 51 724 -6 l 596 256 q 499 366 551 345 l 495 367 q 464 368 480 367 q 304 425 366 372 l 304 100 l 305 94 q 433 0 342 19 l 41 0 z "},"S":{"ha":886,"x_min":81,"x_max":804,"o":"m 81 506 q 180 170 110 271 l 193 155 q 247 109 203 139 q 430 54 324 54 q 433 54 431 54 q 480 56 475 54 q 635 161 581 76 q 671 292 671 224 l 671 310 q 555 442 665 395 l 324 548 q 151 783 152 628 l 151 796 q 227 971 153 901 q 412 1042 300 1042 q 416 1042 414 1042 q 593 957 529 1042 l 599 956 q 671 1042 650 962 l 671 650 q 587 875 631 817 l 564 903 q 529 933 554 913 q 422 977 477 976 q 420 977 422 977 q 312 937 354 977 q 269 825 269 897 q 269 821 269 823 q 395 670 269 726 l 642 560 q 804 314 794 492 l 804 288 q 692 72 784 155 q 453 -17 602 -17 l 448 -17 q 307 11 399 -17 l 180 65 l 171 68 q 81 -18 103 63 l 81 506 z "},"T":{"ha":810,"x_min":-54,"x_max":864,"o":"m 209 0 q 336 95 293 16 l 338 100 l 338 956 l 143 956 l 134 955 q -54 806 85 950 l 72 1025 l 738 1025 l 864 806 q 676 955 724 950 l 667 956 l 472 956 l 472 100 l 473 94 q 601 0 510 19 l 209 0 z "},"U":{"ha":1049,"x_min":41,"x_max":1008,"o":"m 41 1025 q 433 1025 41 1025 q 305 930 342 1006 l 304 924 l 304 338 q 376 165 307 237 q 553 90 449 90 q 731 165 658 90 q 804 338 800 237 l 804 924 l 802 930 q 675 1025 759 1008 l 1008 1025 q 881 930 918 1006 l 880 924 l 880 338 l 880 336 q 851 199 880 264 q 777 86 823 134 q 663 11 729 39 q 525 -17 597 -17 q 387 11 452 -17 q 273 86 321 39 q 198 199 227 134 q 170 336 170 264 l 170 338 l 170 924 l 168 930 q 41 1025 125 1008 z "},"V":{"ha":895,"x_min":-47,"x_max":943,"o":"m -47 1025 l 345 1025 q 215 936 215 967 q 216 930 215 933 l 218 924 l 480 251 l 732 924 l 734 931 q 736 939 736 935 q 606 1025 732 979 l 943 1025 q 816 930 859 1008 l 814 924 l 451 -27 l 81 924 l 81 926 l 79 932 q -47 1025 35 1008 z "},"W":{"ha":1273,"x_min":-47,"x_max":1320,"o":"m -47 1025 l 345 1025 q 215 939 215 978 q 216 930 215 935 l 218 924 l 485 264 l 602 562 l 426 1025 l 563 1025 l 669 736 l 781 1025 l 861 1025 l 709 640 l 859 254 l 1112 924 l 1114 930 q 1115 938 1115 934 l 1115 939 q 986 1025 1115 977 l 1320 1025 q 1194 930 1237 1008 l 1192 924 l 829 -27 l 642 467 l 451 -27 l 81 924 l 81 926 l 79 932 q -47 1025 35 1008 z "},"X":{"ha":846,"x_min":-20,"x_max":867,"o":"m -1 0 q 109 71 63 16 l 127 99 l 366 488 l 109 924 l 105 930 q -20 1025 66 1000 l 372 1025 q 251 939 251 973 q 254 929 251 934 l 256 924 l 445 600 l 639 925 l 642 931 q 648 949 648 940 l 648 949 q 523 1025 648 989 l 852 1025 q 741 952 779 1004 l 725 928 l 492 525 l 741 94 l 745 87 q 867 0 785 23 l 475 0 q 598 80 598 39 q 594 95 598 87 l 591 100 l 411 413 l 212 100 l 208 95 q 202 75 202 85 q 328 0 202 33 l -1 0 z "},"Y":{"ha":895,"x_min":-47,"x_max":943,"o":"m 251 0 q 378 95 335 16 l 380 100 l 380 435 l 322 435 l 81 924 l 81 926 l 79 932 q -47 1025 35 1008 l 345 1025 q 213 941 213 978 q 216 930 213 935 l 218 924 l 457 435 l 490 435 l 734 924 l 737 930 q 740 941 740 935 q 608 1025 739 978 l 943 1025 q 816 930 859 1008 l 814 924 l 564 435 l 514 435 l 514 100 l 515 94 q 643 0 552 19 l 251 0 z "},"Z":{"ha":801,"x_min":0,"x_max":801,"o":"m 0 0 l 576 956 l 235 956 l 226 955 q 38 806 178 950 l 164 1025 l 765 1025 l 204 69 l 604 69 l 613 70 q 801 218 661 75 l 675 0 l 0 0 z "},"[":{"ha":519,"x_min":136,"x_max":485,"o":"m 136 -201 l 136 1231 l 485 1231 l 485 1149 l 269 1149 l 269 -123 l 485 -123 l 485 -201 l 136 -201 z "},"\\":{"ha":709,"x_min":0,"x_max":709,"o":"m 618 -201 l 0 1187 l 93 1231 l 709 -154 l 618 -201 z "},"]":{"ha":519,"x_min":34,"x_max":383,"o":"m 383 -201 l 34 -201 l 34 -123 l 250 -123 l 250 1149 l 34 1149 l 34 1231 l 383 1231 l 383 -201 z "},"^":{"ha":895,"x_min":102,"x_max":793,"o":"m 102 792 l 458 1029 l 793 792 l 684 688 l 404 891 l 161 732 l 102 792 z "},"_":{"ha":836,"x_min":136,"x_max":701,"o":"m 136 134 l 701 134 l 701 0 l 136 0 l 136 134 z "},"`":{"ha":543,"x_min":136,"x_max":407,"o":"m 393 779 l 172 903 l 160 912 q 136 958 139 928 q 136 970 136 965 q 155 1020 136 1000 q 207 1042 177 1042 q 227 1040 216 1042 q 270 1015 252 1034 q 279 1003 277 1006 l 407 793 l 393 779 z "},"a":{"ha":812,"x_min":75,"x_max":785,"o":"m 222 368 q 256 142 222 215 q 376 48 300 48 q 397 48 387 48 q 505 100 453 48 l 512 111 q 522 156 522 121 l 522 574 q 513 620 522 609 l 506 630 q 397 682 454 682 q 377 682 387 682 q 256 588 300 682 q 222 368 222 514 m 75 374 q 115 560 75 474 q 224 696 155 647 q 386 747 296 747 q 578 707 464 747 q 785 630 741 650 q 707 615 770 629 q 665 598 680 609 q 656 574 656 591 l 656 156 q 665 132 656 138 q 706 115 679 121 q 785 100 770 101 q 577 23 741 81 q 385 -17 463 -17 q 224 34 296 -17 q 114 170 154 83 q 75 374 75 255 z "},"b":{"ha":812,"x_min":27,"x_max":738,"o":"m 435 49 q 556 143 512 50 q 590 368 590 216 q 547 592 590 518 q 419 665 503 665 q 417 665 419 665 q 310 612 346 665 q 290 563 292 585 l 290 557 l 290 157 q 300 111 290 122 l 307 101 q 423 50 349 58 q 435 49 429 49 m 27 101 q 106 116 43 102 q 147 133 133 122 q 156 157 156 140 l 156 891 q 147 915 156 908 q 104 932 133 926 q 27 947 34 946 q 235 1024 33 949 q 290 1042 253 1031 l 290 701 q 437 748 357 748 q 588 697 519 748 q 697 557 656 647 q 738 357 738 469 q 698 171 738 257 q 588 35 657 83 q 427 -16 515 -16 q 235 24 349 -16 q 27 101 66 83 z "},"c":{"ha":738,"x_min":75,"x_max":663,"o":"m 75 366 q 115 557 75 469 q 224 697 156 646 q 376 747 292 747 l 378 747 q 527 697 457 747 q 629 575 597 646 l 638 553 l 639 552 q 651 490 651 519 q 625 425 651 452 q 563 397 600 397 q 500 424 526 397 q 475 487 475 450 q 500 550 475 524 q 535 572 516 566 q 503 614 524 591 q 396 667 462 661 l 395 667 q 259 595 306 667 q 212 368 212 521 l 212 365 q 272 134 212 208 q 399 60 333 60 l 400 60 q 542 133 483 60 q 585 212 566 162 l 663 190 q 659 174 661 181 q 549 35 623 90 q 388 -17 481 -17 l 386 -17 q 224 34 292 -17 q 115 174 157 84 q 75 366 75 262 z "},"d":{"ha":812,"x_min":75,"x_max":785,"o":"m 222 368 q 256 143 222 216 q 387 49 300 49 q 506 101 453 49 l 513 111 q 522 157 522 123 l 522 563 q 503 612 521 585 q 395 665 467 665 l 393 665 q 266 592 310 665 q 222 368 222 518 m 75 357 q 115 557 75 469 q 224 697 157 647 q 376 748 293 748 q 522 701 455 748 l 522 891 q 513 915 522 906 q 469 930 505 923 q 393 947 431 939 q 601 1024 436 966 q 656 1042 622 1031 l 656 157 q 665 133 657 140 q 707 116 676 123 q 785 101 762 102 q 578 24 744 82 q 381 -16 464 -16 q 376 -16 378 -16 q 224 35 296 -16 q 115 171 155 83 q 75 357 75 257 z "},"e":{"ha":738,"x_min":75,"x_max":663,"o":"m 75 366 q 115 557 75 467 q 224 696 155 645 q 376 747 293 747 q 524 701 454 747 q 615 607 575 673 q 647 504 644 559 q 539 307 646 384 q 324 242 448 242 q 227 248 323 242 q 273 134 244 178 q 399 61 321 61 l 400 61 q 542 133 484 61 q 585 213 566 162 l 663 190 q 659 175 661 179 q 549 35 602 71 q 388 -16 465 -16 l 386 -16 q 224 34 293 -16 q 115 174 156 84 q 75 366 75 263 m 519 505 q 479 625 519 581 q 381 669 444 664 l 380 669 q 260 597 305 669 q 218 458 227 541 q 214 354 214 410 q 216 310 214 335 q 340 309 278 309 q 385 312 372 309 q 480 369 454 329 q 519 505 519 435 z "},"f":{"ha":696,"x_min":27,"x_max":696,"o":"m 27 0 q 155 95 111 16 l 156 100 l 156 869 q 147 892 156 884 q 106 909 136 903 q 27 924 44 924 q 235 1002 70 944 q 431 1042 349 1042 q 437 1042 434 1042 q 628 966 547 1042 q 696 808 696 886 q 696 804 696 806 q 671 739 696 767 q 608 712 646 712 q 546 738 571 712 q 520 800 520 764 q 520 802 520 801 q 546 865 520 840 q 604 891 570 890 q 537 955 598 921 q 456 972 519 965 q 441 972 450 972 q 319 932 358 965 q 300 914 315 928 q 290 869 290 905 l 290 576 l 427 576 l 432 576 q 560 628 517 581 l 439 429 q 443 463 443 446 q 395 507 443 507 q 391 507 393 507 l 389 507 l 290 507 l 290 100 l 292 94 q 419 0 328 19 l 27 0 z "},"g":{"ha":812,"x_min":75,"x_max":785,"o":"m 75 374 q 115 560 75 474 q 224 696 155 648 q 391 747 296 747 q 578 707 464 747 q 785 630 746 648 q 707 615 770 629 q 665 598 680 609 q 656 574 656 591 l 656 0 q 543 -225 648 -151 q 345 -294 445 -294 q 328 -294 336 -294 q 166 -228 221 -286 q 138 -163 138 -199 q 163 -100 138 -125 q 226 -75 189 -75 q 289 -104 262 -75 q 315 -170 315 -133 q 292 -224 315 -199 q 331 -232 307 -232 q 389 -224 355 -232 q 484 -167 454 -208 q 522 -14 522 -112 q 522 0 522 -7 l 522 31 q 376 -17 455 -17 q 224 34 293 -17 q 115 174 157 84 q 75 374 75 262 m 222 363 q 266 139 222 213 q 399 66 311 66 q 503 119 467 66 q 522 168 521 146 l 522 174 l 522 574 q 513 620 522 609 l 506 630 q 386 682 453 682 q 377 682 381 682 q 256 588 299 680 q 222 363 222 515 z "},"h":{"ha":873,"x_min":27,"x_max":873,"o":"m 27 0 q 155 95 111 16 l 156 100 l 156 891 q 147 915 156 908 q 106 932 133 926 q 27 947 46 945 q 235 1024 50 957 q 290 1042 263 1034 l 290 695 l 292 696 q 444 747 360 747 q 595 696 526 747 q 704 557 663 646 q 745 365 745 467 l 745 361 l 745 134 q 753 110 745 117 q 795 93 767 99 q 873 78 857 79 q 666 1 836 61 q 610 -17 637 -9 l 610 362 l 610 365 q 551 594 610 519 q 418 665 496 665 q 415 665 416 665 q 290 602 329 665 l 290 100 l 292 94 q 419 0 328 19 l 27 0 z "},"i":{"ha":446,"x_min":27,"x_max":419,"o":"m 27 652 q 235 730 76 674 q 290 747 260 739 l 290 100 l 292 94 q 419 0 328 19 l 27 0 q 155 95 111 16 l 156 100 l 156 597 q 147 621 156 614 q 102 638 133 632 q 27 652 35 652 m 161 889 q 148 902 161 889 q 135 952 135 915 q 161 1016 135 989 q 223 1042 186 1042 q 286 1016 260 1042 q 311 952 311 989 q 286 889 311 915 q 223 863 260 863 q 161 889 186 863 z "},"j":{"ha":447,"x_min":27,"x_max":311,"o":"m 161 889 q 148 902 161 889 q 135 952 135 915 q 161 1016 135 989 q 223 1042 186 1042 q 286 1016 260 1042 q 311 952 311 989 q 286 889 311 915 q 223 863 260 863 q 161 889 186 863 m 27 652 q 235 730 76 674 q 290 747 260 739 l 290 18 l 290 13 q 32 -293 290 -214 l 27 -294 q 156 13 156 -156 l 156 18 l 156 597 q 147 621 156 614 q 104 637 134 632 q 27 652 33 652 z "},"k":{"ha":863,"x_min":27,"x_max":890,"o":"m 27 0 q 155 95 111 16 l 156 100 l 156 891 q 147 915 156 908 q 103 932 133 926 q 27 947 33 946 q 235 1024 33 949 q 290 1042 253 1031 l 290 315 l 566 650 l 572 658 q 574 669 574 663 q 457 730 574 696 l 777 730 q 652 636 728 716 l 648 630 l 411 346 l 514 346 l 748 90 l 750 87 l 753 84 q 890 0 831 18 l 433 0 q 574 74 574 35 q 565 94 574 84 l 559 100 l 372 300 l 290 201 l 290 100 l 292 94 q 419 0 328 19 l 27 0 z "},"l":{"ha":446,"x_min":27,"x_max":419,"o":"m 27 947 q 235 1024 62 962 q 290 1042 260 1034 l 290 100 l 292 94 q 419 0 328 19 l 27 0 q 155 95 111 16 l 156 100 l 156 891 q 147 915 156 908 q 104 932 134 926 q 27 947 33 946 z "},"m":{"ha":1327,"x_min":27,"x_max":1327,"o":"m 27 0 q 155 95 111 16 l 156 100 l 156 597 q 147 621 156 614 q 106 637 132 632 q 27 652 33 652 q 235 730 62 667 q 290 747 261 739 l 290 695 l 292 696 q 444 747 369 747 q 595 696 526 747 q 666 623 635 667 q 766 716 729 691 q 894 747 814 747 q 897 747 895 747 q 1048 696 984 747 q 1158 557 1120 640 q 1198 365 1198 467 l 1198 361 l 1198 134 q 1207 110 1198 117 q 1249 93 1222 98 q 1327 78 1321 79 q 1120 1 1305 68 q 1064 -17 1093 -9 l 1064 362 l 1064 365 q 1005 594 1064 522 q 853 665 947 665 q 744 602 783 665 l 744 100 l 746 94 q 873 0 783 19 l 481 0 q 609 95 566 16 l 610 100 l 610 361 l 610 362 l 610 365 q 551 594 610 519 q 418 665 496 665 q 415 665 416 665 q 290 602 329 665 l 290 100 l 292 94 q 419 0 328 19 l 27 0 z "},"n":{"ha":873,"x_min":27,"x_max":873,"o":"m 27 0 q 155 95 111 16 l 156 100 l 156 597 q 147 621 156 614 q 106 637 134 631 q 27 652 44 651 q 235 730 50 663 q 290 747 263 740 l 290 695 l 292 696 q 444 747 360 747 q 595 696 526 747 q 704 557 663 646 q 745 365 745 467 l 745 361 l 745 134 q 753 110 745 117 q 795 93 767 99 q 873 78 857 79 q 666 1 836 61 q 610 -17 637 -9 l 610 362 l 610 365 q 551 594 610 519 q 418 665 496 665 q 415 665 416 665 q 290 602 329 665 l 290 100 l 292 94 q 419 0 328 19 l 27 0 z "},"o":{"ha":751,"x_min":75,"x_max":677,"o":"m 222 368 q 256 142 222 216 q 382 48 300 48 q 498 155 455 48 q 534 362 533 243 l 534 365 q 480 593 534 506 q 375 665 435 665 q 373 665 374 665 q 266 591 309 665 q 222 368 222 517 m 75 357 q 115 557 75 469 q 224 696 157 646 q 376 747 293 747 q 527 696 458 747 q 636 557 595 646 q 677 365 677 467 q 636 174 677 262 q 527 34 595 85 q 376 -17 459 -17 q 224 34 296 -17 q 115 170 155 83 q 75 357 75 256 z "},"p":{"ha":812,"x_min":27,"x_max":738,"o":"m 590 363 q 556 588 590 515 q 425 682 512 682 q 307 630 359 682 l 300 620 q 290 574 290 609 l 290 174 l 290 168 q 310 119 292 146 q 417 66 346 66 q 419 66 418 66 q 547 139 502 66 q 590 363 590 213 m 27 -294 q 155 -199 111 -277 l 156 -193 l 156 574 q 147 598 156 591 q 106 615 135 609 q 27 630 45 629 q 235 707 71 650 q 431 747 349 747 q 437 747 434 747 q 588 696 516 747 q 698 560 657 648 q 738 374 738 474 q 697 174 738 262 q 588 34 656 84 q 437 -17 519 -17 q 290 31 357 -17 l 290 -193 l 292 -199 q 419 -294 328 -275 l 27 -294 z "},"q":{"ha":812,"x_min":75,"x_max":785,"o":"m 222 363 q 266 139 222 213 q 399 66 311 66 q 503 119 467 66 q 522 168 521 146 l 522 174 l 522 574 q 513 620 522 609 l 506 630 q 389 682 453 682 q 377 682 383 682 q 256 588 299 680 q 222 363 222 515 m 75 374 q 115 560 75 474 q 224 696 155 647 q 386 747 296 747 q 578 707 464 747 q 785 630 741 650 q 707 615 770 629 q 665 598 680 609 q 656 574 656 591 l 656 -193 l 658 -199 q 785 -294 701 -277 l 393 -294 q 521 -199 484 -275 l 522 -193 l 522 31 q 376 -17 455 -17 q 224 34 293 -17 q 115 174 157 84 q 75 374 75 262 z "},"r":{"ha":696,"x_min":27,"x_max":696,"o":"m 27 0 q 155 95 111 16 l 156 100 l 156 574 q 147 598 156 591 q 106 615 135 609 q 27 630 45 629 q 235 707 74 651 q 431 747 349 747 q 437 747 434 747 q 628 671 547 747 q 696 513 696 593 q 696 510 696 511 q 670 445 696 473 q 608 418 645 418 q 545 444 570 418 q 519 505 519 470 q 519 507 519 507 q 545 571 519 546 q 604 597 570 595 q 537 661 599 625 q 458 678 507 678 q 441 677 450 678 q 319 637 368 671 q 300 620 316 635 q 290 574 290 611 l 290 100 l 292 94 q 419 0 328 19 l 27 0 z "},"s":{"ha":682,"x_min":61,"x_max":621,"o":"m 61 178 q 87 241 61 215 q 149 267 113 267 q 212 241 186 267 q 237 178 237 215 q 212 114 237 143 q 199 102 206 108 l 208 96 q 349 50 269 50 q 351 50 350 50 q 458 83 416 50 q 497 187 494 113 l 497 200 q 429 294 494 273 l 244 349 q 114 496 140 379 q 111 536 111 516 q 165 669 111 603 q 345 747 229 747 q 528 675 452 747 q 567 627 553 652 q 577 583 577 608 q 551 520 577 547 q 489 494 526 494 q 427 520 452 494 q 401 584 401 547 q 427 647 401 621 l 439 656 q 345 679 398 679 l 343 679 q 261 645 298 675 q 231 556 231 614 q 231 547 231 551 q 289 465 231 490 l 450 423 q 555 368 520 397 q 621 199 620 311 q 547 45 614 115 q 348 -17 486 -17 q 135 62 227 -17 q 73 132 87 103 q 66 146 68 140 q 61 178 61 160 z "},"t":{"ha":624,"x_min":-34,"x_max":658,"o":"m -34 575 l 87 774 q 83 740 83 758 q 132 696 83 696 q 135 696 133 696 l 138 696 l 244 696 l 244 891 q 235 915 244 907 q 191 931 225 924 q 115 947 153 939 q 323 1024 177 974 q 378 1042 349 1033 l 378 696 l 524 696 l 530 696 q 658 747 615 701 l 536 548 q 541 583 541 565 q 492 627 541 627 q 489 627 491 627 l 486 627 l 378 627 l 378 100 l 380 94 q 507 0 416 19 l 115 0 q 243 95 199 16 l 244 100 l 244 627 l 100 627 l 94 627 q -34 575 9 622 z "},"u":{"ha":873,"x_min":0,"x_max":846,"o":"m 846 730 q 719 635 762 714 l 718 630 l 718 134 q 726 110 718 117 q 768 93 740 99 q 846 78 829 79 q 639 1 808 61 q 583 -17 610 -9 l 583 35 l 581 34 q 430 -17 513 -17 q 279 34 348 -17 q 170 174 210 84 q 129 366 129 263 l 129 370 l 129 597 q 120 621 129 614 q 79 637 106 631 q 0 652 19 651 q 208 730 38 669 q 263 747 236 740 l 263 368 l 263 366 q 322 136 263 211 q 456 66 378 66 q 458 66 457 66 q 583 128 545 66 l 583 630 l 582 636 q 454 730 545 711 l 846 730 z "},"v":{"ha":773,"x_min":-27,"x_max":800,"o":"m -27 730 l 365 730 q 235 642 235 673 q 237 636 235 639 l 239 630 l 420 224 l 597 630 l 599 637 q 600 644 600 640 q 471 730 597 685 l 800 730 q 673 635 717 714 l 671 630 l 390 -27 l 102 630 l 101 632 l 99 638 q -27 730 56 714 z "},"w":{"ha":1229,"x_min":-27,"x_max":1256,"o":"m 622 511 l 390 -27 l 102 630 l 101 632 l 99 638 q -27 730 56 714 l 365 730 q 235 642 235 673 q 237 636 235 639 l 239 630 l 422 231 l 654 758 l 882 228 l 1055 629 l 1057 636 q 1059 644 1059 640 q 929 730 1059 683 l 1256 730 q 1129 635 1173 714 l 1127 630 l 846 -27 l 622 511 z "},"x":{"ha":827,"x_min":0,"x_max":827,"o":"m 0 0 q 127 95 64 31 l 132 101 l 349 342 l 132 630 l 126 638 q 0 730 73 714 l 392 730 q 286 659 286 696 q 293 639 286 649 l 297 633 l 439 442 l 608 629 l 612 634 q 621 655 621 644 q 606 682 621 668 q 508 730 581 705 l 827 730 q 701 635 760 702 l 696 631 l 479 390 l 697 98 l 701 94 q 827 0 758 27 l 435 0 q 545 69 545 29 q 534 95 545 81 l 530 102 l 388 290 l 218 102 l 212 95 q 201 72 201 83 q 319 0 201 33 l 0 0 z "},"y":{"ha":773,"x_min":-27,"x_max":800,"o":"m -27 730 l 365 730 q 235 642 235 673 q 237 636 235 639 l 239 630 l 408 172 l 591 630 l 593 637 q 594 644 594 642 q 465 730 591 685 l 800 730 q 673 635 717 714 l 671 630 l 354 -163 l 346 -183 q 203 -294 300 -286 q 195 -294 199 -294 q 186 -294 191 -294 q 41 -228 106 -294 q 14 -163 14 -195 q 38 -100 14 -125 q 101 -75 64 -75 q 164 -103 138 -75 q 191 -168 191 -132 q 168 -224 191 -199 q 203 -232 186 -232 q 248 -212 229 -231 l 264 -190 q 334 -12 307 -85 l 102 630 l 101 632 l 99 638 q -27 730 56 714 z "},"z":{"ha":676,"x_min":0,"x_max":676,"o":"m 0 0 l 441 661 l 225 661 l 216 661 q 28 512 168 656 l 154 730 l 630 730 l 204 69 l 479 69 l 488 70 q 676 218 536 75 l 550 0 l 0 0 z "},"{":{"ha":526,"x_min":34,"x_max":492,"o":"m 34 511 q 81 534 50 519 q 170 638 170 575 l 170 642 l 170 931 q 252 1128 170 1046 q 444 1212 335 1212 l 450 1212 q 492 1206 472 1210 l 492 1149 q 450 1155 473 1155 q 349 1117 391 1155 q 302 941 302 1074 l 302 642 l 302 636 q 194 515 302 557 l 181 511 l 194 508 q 302 385 300 482 q 302 377 302 381 l 301 85 q 349 -90 301 -47 q 449 -128 391 -128 q 492 -123 472 -128 l 492 -180 q 446 -184 469 -184 q 256 -102 349 -184 q 170 92 170 -25 l 170 96 l 170 161 l 170 377 l 170 382 q 81 488 170 444 q 34 511 46 505 z "},"|":{"ha":376,"x_min":136,"x_max":241,"o":"m 136 -201 l 136 1231 l 241 1231 l 240 -201 l 136 -201 z "},"}":{"ha":526,"x_min":34,"x_max":492,"o":"m 492 511 q 445 488 480 505 q 357 382 357 444 l 357 377 l 356 161 l 357 96 l 357 92 q 271 -102 357 -25 q 81 -184 178 -184 q 34 -180 57 -184 l 34 -123 q 77 -128 54 -128 q 178 -90 136 -128 q 225 85 225 -47 l 224 377 q 224 385 224 381 q 332 508 226 482 q 345 511 332 508 l 332 515 q 224 636 224 557 l 224 642 l 224 941 q 177 1117 224 1074 q 77 1155 136 1155 q 34 1149 54 1155 l 34 1206 q 77 1212 54 1210 l 82 1212 q 274 1128 191 1212 q 356 931 356 1046 l 357 642 l 357 638 q 445 534 357 575 q 492 511 477 519 z "},"~":{"ha":970,"x_min":136,"x_max":834,"o":"m 136 416 q 338 609 201 609 q 371 606 355 609 q 513 551 414 599 l 608 505 q 675 488 637 488 q 834 572 742 488 q 635 365 775 373 q 609 366 623 364 q 465 423 566 373 l 372 468 q 303 484 340 484 l 302 484 q 136 416 232 484 z "}," ":{"ha":407,"x_min":0,"x_max":0,"o":""},"¡":{"ha":448,"x_min":136,"x_max":312,"o":"m 161 889 q 149 902 161 889 q 136 952 136 915 q 161 1016 136 989 q 224 1042 187 1042 q 286 1016 260 1042 q 312 952 312 989 q 286 889 312 915 q 224 863 260 863 q 161 889 187 863 m 190 813 l 256 813 l 311 87 q 312 73 312 73 q 286 9 312 35 q 224 -17 260 -17 q 161 9 187 -17 q 136 73 136 35 q 137 87 136 80 l 190 813 z "},"¢":{"ha":765,"x_min":88,"x_max":677,"o":"m 129 174 q 88 366 88 262 q 129 557 88 469 q 238 697 170 646 q 328 740 280 728 l 328 911 l 433 911 l 433 744 q 541 697 490 734 q 642 575 611 646 l 652 553 l 652 552 q 665 490 665 519 q 639 425 665 452 q 576 397 614 397 q 514 423 539 397 q 488 487 488 450 q 514 550 488 524 q 549 572 530 566 q 517 614 537 591 q 433 664 484 652 l 433 61 q 555 133 503 69 q 598 212 579 161 l 677 190 q 672 174 675 180 q 563 35 636 90 q 433 -16 506 -8 l 433 -202 l 328 -202 l 328 -9 q 238 34 279 3 q 129 174 170 83 m 328 92 l 328 648 q 273 595 296 630 q 225 368 225 522 l 225 365 q 286 134 225 210 q 328 92 307 109 z "},"£":{"ha":889,"x_min":88,"x_max":889,"o":"m 88 0 q 216 95 172 16 l 217 100 l 218 406 l 105 406 l 105 539 l 218 539 l 218 789 l 218 796 q 294 971 220 901 q 479 1042 368 1042 q 484 1042 481 1042 q 667 970 591 1042 q 706 921 692 946 q 716 878 716 902 q 690 814 716 841 q 628 788 665 788 q 566 814 591 788 q 540 878 540 841 q 566 941 540 916 l 569 945 q 497 975 534 975 l 496 975 q 407 950 442 975 q 353 830 355 914 q 352 789 352 810 l 352 539 l 670 539 l 670 406 l 352 406 l 351 69 l 692 69 l 701 70 q 889 218 749 75 l 763 0 l 88 0 z "},"¤":{"ha":1055,"x_min":136,"x_max":919,"o":"m 338 513 q 385 311 338 361 q 524 236 449 236 q 662 311 601 236 q 717 510 717 379 l 717 512 q 664 702 716 627 q 518 779 610 779 q 397 719 454 779 q 338 513 338 657 m 919 203 l 825 109 l 721 212 q 526 153 635 153 q 334 212 418 153 l 230 109 l 136 203 l 239 307 q 176 513 176 397 q 229 704 176 619 l 136 798 l 230 892 l 319 802 q 528 872 410 872 q 735 802 644 872 l 825 892 l 919 798 l 825 704 q 879 511 878 620 l 879 508 q 815 307 879 396 l 919 203 z "},"¥":{"ha":963,"x_min":-14,"x_max":977,"o":"m 285 0 q 412 95 369 16 l 414 100 l 414 199 l 192 199 l 192 333 l 414 333 l 414 435 l 192 435 l 193 569 l 290 569 l 115 924 l 115 926 l 113 932 q -14 1025 69 1008 l 378 1025 q 247 941 247 978 q 250 930 247 935 l 252 924 l 426 569 l 606 569 l 783 924 l 786 930 q 789 941 789 935 q 657 1025 788 978 l 977 1025 q 850 930 893 1008 l 848 924 l 666 569 l 758 569 l 758 435 l 548 435 l 548 333 l 757 333 l 757 199 l 548 199 l 548 100 l 549 94 q 677 0 586 19 l 285 0 z "},"¦":{"ha":376,"x_min":136,"x_max":241,"o":"m 136 -201 l 136 448 l 240 448 l 240 -201 l 136 -201 m 136 576 l 136 1231 l 241 1231 l 241 576 l 136 576 z "},"§":{"ha":831,"x_min":136,"x_max":696,"o":"m 136 532 q 210 686 142 612 q 229 702 218 694 q 189 790 201 737 q 186 830 186 810 q 239 963 186 897 q 419 1042 304 1042 q 603 970 527 1042 q 642 921 628 946 q 652 878 652 902 q 626 814 652 841 q 564 788 600 788 q 501 814 527 788 q 475 878 475 841 q 501 941 475 917 l 513 953 q 421 975 474 975 l 419 975 q 335 937 369 972 q 306 850 306 906 q 306 841 306 846 q 363 760 306 784 l 524 718 q 629 662 595 692 q 696 493 694 606 q 621 339 689 410 q 602 324 612 331 q 643 235 631 289 q 646 195 646 214 q 592 62 646 127 q 412 -17 528 -17 q 229 55 304 -17 q 190 104 203 79 q 180 146 180 123 q 205 210 180 184 q 268 236 231 236 q 330 210 304 236 q 356 146 356 184 q 330 83 356 110 l 318 73 q 410 50 359 50 l 412 50 q 495 85 458 53 q 526 174 526 116 q 526 184 526 179 q 468 265 526 241 l 307 307 q 202 363 237 333 q 136 532 137 419 m 522 379 q 528 384 525 381 q 572 481 569 416 l 572 494 q 503 589 568 567 l 319 643 q 310 646 314 644 q 303 641 307 644 q 260 543 262 608 l 260 530 q 328 436 263 458 l 513 382 q 522 379 517 380 z "},"¨":{"ha":676,"x_min":136,"x_max":541,"o":"m 390 889 q 377 902 390 889 q 364 952 364 915 q 390 1016 364 989 q 452 1042 416 1042 q 515 1016 489 1042 q 541 952 541 989 q 515 889 541 915 q 452 863 489 863 q 390 889 416 863 m 161 889 q 149 902 161 889 q 136 952 136 915 q 161 1016 136 989 q 224 1042 187 1042 q 286 1016 260 1042 q 312 952 312 989 q 286 889 312 915 q 224 863 260 863 q 161 889 187 863 z "},"©":{"ha":950,"x_min":102,"x_max":848,"o":"m 467 789 q 536 770 500 789 q 572 747 558 758 q 601 779 592 750 q 616 789 604 791 q 628 776 628 787 l 628 580 q 616 566 628 568 q 601 576 604 565 q 562 681 586 642 q 535 708 553 695 q 479 726 510 726 q 477 726 479 726 q 406 701 439 726 q 367 618 381 671 q 352 512 352 563 q 352 481 352 512 q 362 414 353 453 q 418 317 386 345 q 484 297 443 297 q 498 298 491 297 q 549 317 519 300 q 584 352 562 326 q 604 392 597 369 l 608 406 l 669 382 l 664 369 q 633 314 652 340 q 568 256 604 275 q 473 233 526 233 q 471 233 473 233 q 452 231 463 231 q 377 254 416 232 q 311 313 338 277 q 269 399 285 349 q 253 507 253 449 q 269 618 253 565 q 311 708 285 674 q 379 768 344 749 q 467 789 420 789 m 475 903 q 618 873 550 903 q 739 787 683 846 q 821 661 793 731 q 848 511 848 593 q 821 363 848 433 q 739 237 795 296 q 618 151 686 181 q 475 122 551 122 q 332 151 400 122 q 211 237 267 179 q 129 363 156 294 q 102 511 102 431 q 129 661 102 592 q 211 787 156 730 q 332 874 266 845 q 475 903 399 903 m 475 848 q 353 824 409 848 q 248 749 296 800 q 176 640 201 700 q 152 515 152 581 l 152 511 q 176 384 152 444 q 248 275 199 328 q 352 201 296 225 q 475 176 410 176 q 599 201 541 176 q 703 275 655 225 q 774 383 750 324 q 798 511 798 442 q 774 641 798 581 q 703 749 751 699 q 599 824 656 799 q 475 848 541 848 z "},"ª":{"ha":836,"x_min":136,"x_max":701,"o":"m 285 751 q 301 658 285 701 q 351 579 317 615 q 420 547 386 547 l 420 547 q 483 558 461 547 q 494 570 490 562 q 497 585 497 574 l 497 941 q 497 943 497 943 q 497 944 497 943 q 491 964 502 952 q 469 976 486 971 q 438 980 455 980 q 423 979 428 980 q 352 949 381 973 q 297 865 318 922 q 285 751 285 826 m 644 956 q 603 949 623 954 q 593 945 597 949 q 591 942 591 943 l 591 941 l 591 559 q 645 520 610 526 q 656 506 657 518 q 642 494 654 494 l 499 494 q 425 485 463 485 q 422 485 422 485 q 332 508 357 495 q 253 566 283 532 q 203 651 222 600 q 183 760 183 702 q 203 870 183 817 q 253 958 222 921 q 333 1019 288 999 q 422 1042 381 1042 q 431 1042 427 1042 q 530 1027 487 1042 l 698 963 l 644 956 m 136 425 l 701 425 l 701 291 l 136 291 l 136 425 z "},"«":{"ha":848,"x_min":102,"x_max":713,"o":"m 608 828 l 668 768 l 509 526 l 713 245 l 608 136 l 371 472 l 608 828 m 339 828 l 399 768 l 240 526 l 444 245 l 339 136 l 102 472 l 339 828 z "},"¬":{"ha":836,"x_min":136,"x_max":701,"o":"m 136 408 l 136 541 l 701 541 l 701 237 l 583 237 l 583 408 l 136 408 z "},"­":{"ha":836,"x_min":136,"x_max":701,"o":"m 136 541 l 701 541 l 701 408 l 136 408 l 136 541 z "},"®":{"ha":950,"x_min":102,"x_max":848,"o":"m 475 848 q 353 824 409 848 q 248 749 296 800 q 219 715 233 733 l 266 735 q 370 774 296 749 q 473 795 429 795 q 476 795 476 795 q 494 796 485 796 q 566 781 528 795 q 627 743 604 765 q 675 677 661 711 q 684 650 681 665 q 687 623 686 633 q 688 611 688 612 q 645 496 679 530 q 597 458 623 473 q 604 451 600 455 q 667 329 623 428 l 673 314 q 696 294 684 294 l 697 294 q 723 303 713 294 l 736 314 q 774 383 759 347 q 798 511 798 441 q 774 641 798 581 q 703 749 751 699 q 599 824 656 799 q 475 848 541 848 m 475 903 q 618 873 550 903 q 739 787 683 846 q 821 661 793 731 q 848 511 848 593 q 821 363 848 433 q 739 237 795 296 q 618 151 686 181 q 475 122 551 122 q 332 151 400 122 q 211 237 267 179 q 129 363 156 294 q 102 511 102 431 q 129 661 102 593 q 211 787 156 730 q 332 874 267 845 q 475 903 398 903 m 416 695 l 416 530 q 461 496 431 505 q 492 492 475 492 q 505 492 500 492 q 552 510 534 496 q 587 604 587 538 l 587 608 q 572 678 587 652 q 534 720 558 705 q 478 733 511 733 l 477 733 q 430 722 452 733 q 418 710 423 719 q 416 695 416 706 m 269 274 q 322 313 304 282 l 322 695 l 321 697 q 307 703 317 701 q 270 709 281 709 l 218 714 q 176 640 193 680 q 152 515 152 581 l 152 511 q 176 384 152 444 q 248 275 199 328 l 258 266 q 269 274 260 272 m 277 248 q 352 201 313 218 q 475 176 410 176 q 599 201 540 176 q 633 218 616 208 q 607 243 618 227 q 585 280 601 251 l 536 383 q 496 431 517 422 q 481 431 488 431 q 416 448 441 435 l 416 313 q 470 274 433 281 q 480 260 481 272 q 467 248 479 248 l 277 248 z "},"¯":{"ha":836,"x_min":136,"x_max":701,"o":"m 136 1025 l 701 1025 l 701 892 l 136 892 l 136 1025 z "},"°":{"ha":684,"x_min":136,"x_max":548,"o":"m 239 793 q 264 672 239 720 q 344 621 290 621 q 412 668 381 621 q 441 808 441 714 q 410 939 441 895 q 339 982 379 982 q 267 939 297 982 q 239 793 239 899 m 136 803 q 163 925 136 871 q 238 1010 192 980 q 342 1042 286 1042 q 446 1010 397 1042 q 520 925 492 981 q 548 802 548 871 q 520 691 548 744 q 446 606 492 637 q 342 574 399 574 q 238 606 290 574 q 159 689 187 636 q 136 803 136 734 z "},"±":{"ha":836,"x_min":136,"x_max":701,"o":"m 136 245 l 701 245 l 701 112 l 136 112 l 136 245 m 136 533 l 136 667 l 351 667 l 351 882 l 485 882 l 485 667 l 701 667 l 701 533 l 485 533 l 485 317 l 351 317 l 351 533 l 136 533 z "},"²":{"ha":692,"x_min":136,"x_max":557,"o":"m 136 471 l 141 509 q 302 750 155 602 l 303 751 l 327 761 q 408 874 408 792 q 408 880 408 877 l 408 886 q 389 949 408 928 q 331 978 363 978 l 330 978 q 254 952 283 978 q 229 916 236 937 q 250 902 239 911 q 267 861 267 886 q 250 819 267 836 q 211 802 233 802 q 209 802 210 802 q 168 821 186 802 q 151 862 151 838 q 205 989 152 935 q 325 1042 256 1042 l 330 1042 q 334 1042 332 1042 q 338 1042 336 1042 q 455 998 401 1042 q 510 878 509 953 l 509 863 q 444 746 505 785 q 357 701 408 722 q 243 613 300 683 q 245 613 244 613 l 245 613 q 344 596 285 613 l 417 580 q 442 577 429 577 q 513 608 482 578 l 557 652 l 554 640 q 447 484 519 484 q 427 485 435 484 q 324 503 382 492 l 255 518 q 227 522 240 522 q 164 497 191 522 l 136 471 z "},"³":{"ha":637,"x_min":136,"x_max":501,"o":"m 136 664 q 152 706 136 688 q 193 724 169 724 q 234 707 217 724 q 251 666 251 690 q 234 625 251 642 q 212 610 224 614 q 238 574 220 590 q 315 548 268 548 q 380 578 353 548 q 399 647 399 600 l 399 654 q 399 658 399 656 q 390 711 399 692 q 357 751 377 738 q 291 783 340 762 l 266 794 l 290 808 q 308 818 291 808 q 334 832 326 827 q 359 852 351 843 q 374 907 374 868 q 374 918 374 912 q 359 966 373 943 l 357 968 q 319 987 337 987 q 315 987 317 987 q 273 981 286 987 q 252 963 259 974 q 273 949 264 958 q 290 908 290 932 q 273 867 290 884 q 232 850 256 850 q 192 868 208 850 q 175 909 175 886 q 224 1008 175 954 q 317 1042 260 1042 l 318 1042 q 412 1018 376 1041 q 470 924 465 983 q 471 913 471 918 q 442 836 471 868 q 428 821 441 836 l 427 821 l 427 821 q 390 798 410 808 l 400 795 q 457 760 429 785 q 500 656 497 723 l 501 642 l 501 641 q 443 525 494 566 q 316 485 391 485 q 189 538 241 485 q 136 664 136 591 z "},"´":{"ha":543,"x_min":136,"x_max":407,"o":"m 136 793 l 263 1003 q 273 1015 265 1006 q 316 1040 290 1034 q 336 1042 326 1042 q 387 1020 366 1042 q 407 970 407 1000 q 406 958 407 965 q 382 912 404 928 l 371 903 l 149 779 l 136 793 z "},"µ":{"ha":873,"x_min":14,"x_max":860,"o":"m 14 -294 q 142 13 142 -156 l 142 18 l 142 597 q 134 621 142 614 q 92 637 119 631 q 14 652 33 651 q 221 730 52 669 q 277 747 250 740 l 277 368 l 277 366 q 336 136 277 211 q 469 66 391 66 q 472 66 471 66 q 597 128 558 66 l 597 630 l 595 636 q 468 730 559 711 l 860 730 q 732 635 776 714 l 731 630 l 731 134 q 740 110 731 117 q 781 93 753 99 q 860 78 843 79 q 652 1 822 61 q 597 -17 624 -9 l 597 35 l 595 34 q 444 -17 527 -17 q 292 34 360 -17 q 277 46 284 40 l 277 18 l 277 13 q 18 -293 277 -214 l 14 -294 z "},"¶":{"ha":846,"x_min":102,"x_max":812,"o":"m 102 667 q 142 854 102 768 q 252 990 182 942 q 414 1041 324 1041 q 605 1001 492 1041 q 812 924 772 942 q 734 909 798 923 q 692 892 707 903 q 684 868 684 885 l 684 100 l 685 95 q 812 0 728 16 l 636 0 l 636 869 l 596 869 l 596 0 l 420 0 q 548 94 511 19 l 549 100 l 549 324 q 403 277 482 277 q 252 328 320 277 q 142 467 184 378 q 102 667 102 555 m 250 656 q 293 433 250 507 q 426 359 338 359 q 530 413 494 359 q 549 462 548 440 l 549 468 l 549 868 q 540 913 549 903 l 533 924 q 416 976 480 975 q 404 976 410 976 q 283 882 328 975 q 250 656 250 809 z "},"·":{"ha":448,"x_min":136,"x_max":312,"o":"m 161 407 q 149 420 161 407 q 136 471 136 433 q 161 534 136 508 q 224 560 187 560 q 286 534 260 560 q 312 471 312 508 q 286 407 312 433 q 224 381 260 381 q 161 407 187 381 z "},"¸":{"ha":473,"x_min":136,"x_max":337,"o":"m 180 57 q 201 60 189 58 q 241 54 224 61 q 332 -87 307 24 q 337 -149 337 -113 q 330 -197 337 -171 q 319 -226 326 -212 q 267 -283 302 -268 q 223 -294 244 -294 q 201 -291 212 -294 q 147 -250 165 -282 q 136 -206 136 -229 q 139 -182 136 -194 q 182 -124 150 -144 q 223 -113 201 -113 q 258 -119 239 -113 l 258 -102 q 258 -93 258 -94 q 250 -35 258 -67 q 185 55 232 29 l 180 57 z "},"¹":{"ha":517,"x_min":136,"x_max":381,"o":"m 172 479 q 158 492 159 479 q 170 506 157 504 q 223 545 204 513 l 223 863 q 221 874 223 869 q 214 884 219 879 q 199 892 210 889 q 171 897 188 896 l 136 899 l 317 1042 l 317 545 q 370 506 332 514 q 381 492 382 504 q 368 479 380 479 l 172 479 z "},"º":{"ha":836,"x_min":136,"x_max":701,"o":"m 136 425 l 701 425 l 701 291 l 136 291 l 136 425 m 426 548 q 475 578 442 548 q 511 652 499 608 q 524 753 524 699 q 524 764 524 753 q 511 866 519 840 q 469 954 496 926 q 418 979 445 979 l 418 979 q 368 960 391 979 q 326 876 342 939 q 311 772 311 814 q 311 759 311 764 q 312 734 312 747 q 322 667 312 709 q 363 577 338 604 q 426 548 391 548 m 411 486 q 338 507 374 486 q 272 566 300 530 q 230 648 244 602 q 214 760 214 698 q 230 871 214 814 q 272 961 245 925 q 338 1020 300 999 q 418 1042 376 1042 q 498 1019 459 1042 q 564 961 535 998 q 607 871 591 924 q 623 760 623 817 q 607 652 623 699 q 564 566 590 601 q 498 507 536 529 q 411 486 461 486 z "},"»":{"ha":848,"x_min":136,"x_max":747,"o":"m 240 136 l 180 196 l 339 438 l 136 719 l 240 828 l 477 492 l 240 136 m 509 136 l 450 196 l 608 438 l 405 719 l 509 828 l 747 492 l 509 136 z "},"¼":{"ha":1042,"x_min":136,"x_max":907,"o":"m 600 184 l 745 184 l 745 359 l 600 184 m 745 122 l 473 122 l 838 572 l 838 184 l 907 184 l 873 122 l 838 122 l 838 65 q 892 27 854 35 q 903 12 904 24 q 890 0 902 0 l 694 0 q 680 12 682 0 q 691 27 679 24 q 745 65 726 34 l 745 122 m 172 479 q 158 492 159 479 q 170 506 157 504 q 223 545 204 513 l 223 863 q 221 874 223 869 q 214 884 219 879 q 199 892 210 889 q 171 897 188 896 l 136 899 l 317 1042 l 317 545 q 370 506 332 514 q 381 492 382 504 q 368 479 380 479 l 172 479 m 144 -154 l 760 1231 l 852 1187 l 235 -201 l 144 -154 z "},"½":{"ha":1147,"x_min":136,"x_max":1011,"o":"m 590 -14 q 589 2 589 -6 q 589 5 589 3 q 589 7 589 6 q 610 99 589 45 q 677 209 638 170 q 758 265 712 243 l 781 275 q 862 389 862 307 q 862 394 862 389 l 862 401 q 844 463 862 442 q 785 492 819 492 l 785 492 q 708 467 737 492 q 683 431 690 451 q 704 416 693 426 q 721 375 721 401 q 721 373 721 374 q 704 334 722 351 q 665 317 687 317 q 663 317 665 317 q 623 335 641 317 q 606 376 606 352 q 659 503 606 450 q 779 556 711 556 l 784 556 q 788 556 786 556 q 792 556 790 556 q 909 512 856 556 q 964 392 964 467 l 964 378 q 899 260 959 300 q 811 216 863 237 q 697 127 755 197 q 699 127 699 127 l 700 127 q 798 111 739 127 l 871 94 q 897 92 884 92 q 967 123 936 92 l 1011 167 l 1008 155 q 901 -2 974 -2 q 881 -1 889 -2 q 779 17 819 9 l 709 33 q 681 36 694 36 q 618 12 646 36 l 590 -14 m 172 479 q 159 492 160 479 q 170 506 157 504 q 223 545 203 511 l 223 863 q 221 874 223 869 q 214 884 218 880 q 199 892 210 889 q 171 897 188 896 l 136 899 l 317 1042 l 317 545 q 370 506 333 512 q 381 492 382 504 q 368 479 380 479 l 172 479 m 144 -154 l 760 1231 l 852 1187 l 235 -201 l 144 -154 z "},"¾":{"ha":1173,"x_min":136,"x_max":1038,"o":"m 730 184 l 876 184 l 876 359 l 730 184 m 876 122 l 604 122 l 970 572 l 970 184 l 1038 184 l 1004 122 l 970 122 l 970 65 q 1023 27 985 35 q 1034 12 1035 24 q 1020 0 1033 0 l 825 0 q 811 12 812 0 q 822 27 810 24 q 876 65 857 34 l 876 122 m 136 664 q 152 706 136 688 q 193 724 169 724 q 234 707 217 724 q 251 666 251 690 q 234 625 251 642 q 212 610 224 614 q 238 574 220 590 q 315 548 268 548 q 380 578 353 548 q 399 647 399 600 l 399 654 q 399 658 399 656 q 390 711 399 692 q 357 751 377 738 q 291 783 340 762 l 266 794 l 290 808 q 308 818 291 808 q 334 832 326 827 q 359 852 351 843 q 374 907 374 868 q 374 918 374 912 q 359 966 373 943 l 357 968 q 319 987 337 987 q 315 987 317 987 q 273 981 286 987 q 252 963 259 974 q 273 949 264 958 q 290 908 290 932 q 273 867 290 884 q 232 850 256 850 q 192 868 208 850 q 175 909 175 886 q 224 1008 175 954 q 317 1042 260 1042 l 318 1042 q 412 1018 376 1041 q 470 924 465 983 q 471 913 471 918 q 442 836 471 868 q 428 821 441 836 l 427 821 l 427 821 q 390 798 410 808 l 400 795 q 457 760 429 785 q 500 656 497 723 l 501 642 l 501 641 q 443 525 494 566 q 316 485 391 485 q 189 538 241 485 q 136 664 136 591 m 265 -154 l 881 1231 l 974 1187 l 356 -201 l 265 -154 z "},"¿":{"ha":852,"x_min":88,"x_max":764,"o":"m 516 1016 q 529 1003 516 1016 q 542 952 542 989 q 516 889 542 915 q 454 863 490 863 q 391 889 417 863 q 366 952 366 915 q 391 1016 366 989 q 454 1042 417 1042 q 516 1016 490 1042 m 493 762 l 493 734 q 410 570 489 638 l 390 555 q 234 318 245 450 l 234 298 q 261 162 234 204 q 437 62 321 68 q 600 127 536 62 q 667 229 648 176 q 614 254 636 231 q 588 317 588 280 q 614 381 588 355 q 676 407 640 407 q 739 381 713 407 q 764 317 764 355 q 666 81 764 180 q 429 -17 568 -17 q 190 70 291 -17 q 88 294 88 156 l 89 322 q 205 522 99 450 l 353 621 q 430 751 430 671 l 430 762 l 493 762 z "},"À":{"ha":895,"x_min":-47,"x_max":943,"o":"m 414 1074 l 401 1059 l 179 1183 l 168 1193 q 144 1239 146 1208 q 143 1251 143 1246 q 163 1301 143 1281 q 214 1322 184 1322 q 234 1320 224 1322 q 277 1295 260 1315 q 287 1284 285 1287 l 414 1074 m -47 0 q 79 95 36 16 l 81 100 l 444 1052 l 814 100 l 814 98 l 817 92 q 943 0 860 16 l 551 0 q 680 84 680 38 q 679 94 680 89 l 677 100 l 573 366 l 260 366 l 161 100 l 159 94 q 157 85 157 90 q 287 0 157 43 l -47 0 m 286 435 l 547 435 l 415 793 l 286 435 z "},"Á":{"ha":895,"x_min":-47,"x_max":943,"o":"m 456 1074 l 584 1284 q 593 1295 586 1287 q 637 1320 611 1315 q 656 1322 647 1322 q 708 1301 686 1322 q 728 1251 728 1281 q 727 1239 728 1246 q 703 1193 724 1208 l 692 1183 l 470 1059 l 456 1074 m -47 0 q 79 95 36 16 l 81 100 l 444 1052 l 814 100 l 814 98 l 817 92 q 943 0 860 16 l 551 0 q 680 84 680 38 q 679 94 680 89 l 677 100 l 573 366 l 260 366 l 161 100 l 159 94 q 157 85 157 90 q 287 0 157 43 l -47 0 m 286 435 l 547 435 l 415 793 l 286 435 z "},"Â":{"ha":895,"x_min":-47,"x_max":943,"o":"m 249 1074 l 376 1284 q 386 1295 378 1286 q 420 1318 398 1311 q 446 1322 435 1322 l 448 1322 l 449 1322 q 475 1318 458 1322 q 509 1295 493 1312 q 518 1284 516 1287 l 646 1074 l 632 1059 l 449 1181 l 262 1059 l 249 1074 m -47 0 q 79 95 36 16 l 81 100 l 444 1052 l 814 100 l 814 98 l 817 92 q 943 0 860 16 l 551 0 q 680 84 680 38 q 679 94 680 89 l 677 100 l 573 366 l 260 366 l 161 100 l 159 94 q 157 85 157 90 q 287 0 157 43 l -47 0 m 286 435 l 547 435 l 415 793 l 286 435 z "},"Ã":{"ha":895,"x_min":-47,"x_max":943,"o":"m 265 1153 q 391 1322 305 1322 q 411 1320 399 1322 q 499 1272 437 1314 l 558 1230 q 597 1215 576 1215 q 600 1215 599 1215 q 698 1290 641 1215 q 574 1107 661 1116 q 558 1109 566 1107 q 469 1159 531 1116 l 411 1198 q 369 1213 392 1212 l 368 1213 q 265 1153 325 1213 m -47 0 q 79 95 36 16 l 81 100 l 444 1052 l 814 100 l 814 98 l 817 92 q 943 0 860 16 l 551 0 q 680 84 680 38 q 679 94 680 89 l 677 100 l 573 366 l 260 366 l 161 100 l 159 94 q 157 85 157 90 q 287 0 157 43 l -47 0 m 286 435 l 547 435 l 415 793 l 286 435 z "},"Ä":{"ha":895,"x_min":-47,"x_max":943,"o":"m 492 1160 q 479 1173 492 1160 q 467 1223 467 1186 q 492 1287 467 1261 q 555 1313 518 1313 q 617 1287 591 1313 q 643 1223 643 1261 q 617 1160 643 1186 q 555 1134 591 1134 q 492 1160 518 1134 m 264 1160 q 251 1173 264 1160 q 238 1223 238 1186 q 264 1287 238 1261 q 326 1313 290 1313 q 389 1287 363 1313 q 414 1223 414 1261 q 389 1160 414 1186 q 326 1134 363 1134 q 264 1160 290 1134 m -47 0 q 79 95 36 16 l 81 100 l 444 1052 l 814 100 l 814 98 l 817 92 q 943 0 860 16 l 551 0 q 680 84 680 38 q 679 94 680 89 l 677 100 l 573 366 l 260 366 l 161 100 l 159 94 q 157 85 157 90 q 287 0 157 43 l -47 0 m 286 435 l 547 435 l 415 793 l 286 435 z "},"Å":{"ha":895,"x_min":-47,"x_max":943,"o":"m 403 1188 q 414 1132 403 1152 q 444 1112 425 1112 q 469 1131 457 1112 q 483 1195 483 1152 q 469 1255 483 1235 q 442 1272 457 1272 q 415 1255 427 1272 q 403 1188 403 1238 m 330 1197 q 346 1259 330 1227 q 386 1305 360 1288 q 444 1322 412 1322 q 501 1305 476 1322 q 541 1259 526 1289 q 557 1192 556 1230 q 541 1132 556 1161 q 501 1085 526 1101 q 444 1068 476 1068 q 386 1085 414 1068 q 343 1131 355 1104 q 330 1185 330 1162 q 330 1187 330 1186 q 330 1197 330 1187 m -47 0 q 79 95 36 16 l 81 100 l 444 1052 l 814 100 l 814 98 l 817 92 q 943 0 860 16 l 551 0 q 680 84 680 38 q 679 94 680 89 l 677 100 l 573 366 l 260 366 l 161 100 l 159 94 q 157 85 157 90 q 287 0 157 43 l -47 0 m 286 435 l 547 435 l 415 793 l 286 435 z "},"Æ":{"ha":1318,"x_min":-47,"x_max":1318,"o":"m -47 0 q 79 95 36 16 l 81 100 l 551 1025 l 1104 1025 l 1230 806 q 1042 955 1090 950 l 1033 956 l 726 956 l 726 435 l 938 435 l 947 436 q 1135 585 996 441 l 939 245 q 945 286 945 267 q 905 364 945 336 l 900 366 l 726 366 l 726 69 l 1121 69 l 1131 70 q 1318 218 1179 75 l 1192 0 l 463 0 q 590 95 547 16 l 591 100 l 591 366 l 309 366 l 168 100 l 166 94 q 165 85 165 90 q 294 0 165 43 l -47 0 m 591 925 l 335 435 l 591 435 l 591 924 l 591 925 z "},"Ç":{"ha":926,"x_min":88,"x_max":859,"o":"m 118 298 q 88 505 88 393 q 118 719 88 616 q 199 891 149 824 q 321 1001 252 961 q 463 1042 391 1042 l 469 1042 q 615 1006 548 1042 q 688 957 661 982 l 694 956 q 783 1042 762 962 l 783 650 q 701 867 748 789 q 642 930 677 903 q 510 970 586 970 q 349 912 422 970 q 263 735 295 850 q 232 515 232 622 l 232 506 q 254 313 232 400 q 374 106 304 164 q 523 58 432 58 q 555 60 538 58 q 667 103 605 64 q 745 178 702 124 q 789 267 772 212 l 859 240 q 799 136 832 180 q 677 26 746 65 q 542 -15 616 -7 q 566 -87 557 -45 q 572 -149 572 -111 q 564 -197 572 -171 q 554 -226 560 -211 q 502 -283 536 -268 q 458 -294 479 -294 q 435 -291 446 -294 q 382 -250 399 -282 q 370 -206 370 -229 q 374 -182 370 -194 q 417 -124 385 -144 q 458 -113 435 -113 q 492 -119 474 -113 l 493 -102 l 493 -93 q 484 -35 493 -65 q 478 -16 481 -25 q 323 24 387 -13 q 199 134 252 64 q 118 298 149 201 z "},"È":{"ha":897,"x_min":41,"x_max":897,"o":"m 484 1074 l 470 1059 l 248 1183 l 237 1193 q 213 1239 216 1208 q 212 1251 212 1246 q 232 1301 212 1281 q 283 1322 254 1322 q 303 1320 293 1322 q 347 1295 329 1315 q 356 1284 354 1287 l 484 1074 m 41 0 q 168 95 125 16 l 170 100 l 170 924 l 168 930 q 41 1025 125 1008 l 682 1025 l 808 806 q 621 955 669 950 l 611 956 l 304 956 l 304 435 l 516 435 l 526 436 q 713 585 574 441 l 517 245 q 524 286 524 267 q 483 364 524 336 l 478 366 l 304 366 l 304 69 l 699 69 l 709 70 q 897 218 757 75 l 770 0 l 41 0 z "},"É":{"ha":897,"x_min":41,"x_max":897,"o":"m 456 1074 l 584 1284 q 593 1295 586 1287 q 637 1320 611 1315 q 656 1322 647 1322 q 708 1301 686 1322 q 728 1251 728 1281 q 727 1239 728 1246 q 703 1193 724 1208 l 692 1183 l 470 1059 l 456 1074 m 41 0 q 168 95 125 16 l 170 100 l 170 924 l 168 930 q 41 1025 125 1008 l 682 1025 l 808 806 q 621 955 669 950 l 611 956 l 304 956 l 304 435 l 516 435 l 526 436 q 713 585 574 441 l 517 245 q 524 286 524 267 q 483 364 524 336 l 478 366 l 304 366 l 304 69 l 699 69 l 709 70 q 897 218 757 75 l 770 0 l 41 0 z "},"Ê":{"ha":897,"x_min":41,"x_max":897,"o":"m 276 1074 l 404 1284 q 413 1295 405 1286 q 447 1318 425 1311 q 473 1322 462 1322 l 475 1322 l 476 1322 q 502 1318 486 1322 q 536 1295 520 1312 q 545 1284 543 1287 l 673 1074 l 659 1059 l 476 1181 l 290 1059 l 276 1074 m 41 0 q 168 95 125 16 l 170 100 l 170 924 l 168 930 q 41 1025 125 1008 l 682 1025 l 808 806 q 621 955 669 950 l 611 956 l 304 956 l 304 435 l 516 435 l 526 436 q 713 585 574 441 l 517 245 q 524 286 524 267 q 483 364 524 336 l 478 366 l 304 366 l 304 69 l 699 69 l 709 70 q 897 218 757 75 l 770 0 l 41 0 z "},"Ë":{"ha":897,"x_min":41,"x_max":897,"o":"m 466 1160 q 453 1173 466 1160 q 440 1223 440 1186 q 466 1287 440 1261 q 528 1313 492 1313 q 591 1287 565 1313 q 616 1223 616 1261 q 591 1160 616 1186 q 528 1134 565 1134 q 466 1160 492 1134 m 237 1160 q 224 1173 237 1160 q 212 1223 212 1186 q 237 1287 212 1261 q 300 1313 263 1313 q 362 1287 336 1313 q 388 1223 388 1261 q 362 1160 388 1186 q 300 1134 336 1134 q 237 1160 263 1134 m 41 0 q 168 95 125 16 l 170 100 l 170 924 l 168 930 q 41 1025 125 1008 l 682 1025 l 808 806 q 621 955 669 950 l 611 956 l 304 956 l 304 435 l 516 435 l 526 436 q 713 585 574 441 l 517 245 q 524 286 524 267 q 483 364 524 336 l 478 366 l 304 366 l 304 69 l 699 69 l 709 70 q 897 218 757 75 l 770 0 l 41 0 z "},"Ì":{"ha":473,"x_min":-21,"x_max":433,"o":"m 250 1074 l 237 1059 l 15 1183 l 3 1193 q -20 1239 -18 1208 q -21 1251 -21 1246 q -1 1301 -21 1281 q 50 1322 20 1322 q 70 1320 60 1322 q 113 1295 96 1315 q 123 1284 121 1287 l 250 1074 m 41 0 q 168 95 125 16 l 170 100 l 170 924 l 168 930 q 41 1025 125 1008 l 433 1025 q 305 930 342 1006 l 304 924 l 304 100 l 305 94 q 433 0 342 19 l 41 0 z "},"Í":{"ha":473,"x_min":41,"x_max":494,"o":"m 223 1074 l 351 1284 q 360 1295 353 1287 q 404 1320 378 1315 q 423 1322 414 1322 q 475 1301 453 1322 q 494 1251 494 1281 q 494 1239 494 1246 q 470 1193 491 1208 l 458 1183 l 237 1059 l 223 1074 m 41 0 q 168 95 125 16 l 170 100 l 170 924 l 168 930 q 41 1025 125 1008 l 433 1025 q 305 930 342 1006 l 304 924 l 304 100 l 305 94 q 433 0 342 19 l 41 0 z "},"Î":{"ha":473,"x_min":38,"x_max":435,"o":"m 41 0 q 168 95 125 16 l 170 100 l 170 924 l 168 930 q 41 1025 125 1008 l 433 1025 q 305 930 342 1006 l 304 924 l 304 100 l 305 94 q 433 0 342 19 l 41 0 m 38 1074 l 165 1284 q 175 1295 168 1288 q 209 1318 191 1312 q 235 1322 224 1322 l 237 1322 l 239 1322 q 264 1318 248 1322 q 298 1295 284 1312 q 308 1284 306 1286 l 435 1074 l 422 1059 l 239 1181 l 52 1059 l 38 1074 z "},"Ï":{"ha":473,"x_min":34,"x_max":439,"o":"m 41 0 q 168 95 125 16 l 170 100 l 170 924 l 168 930 q 41 1025 125 1008 l 433 1025 q 305 930 342 1006 l 304 924 l 304 100 l 305 94 q 433 0 342 19 l 41 0 m 263 1223 q 289 1287 263 1261 q 351 1313 315 1313 q 414 1287 389 1313 q 439 1223 439 1261 q 414 1160 439 1185 q 351 1134 388 1134 q 289 1160 315 1134 q 263 1223 263 1186 m 34 1223 q 60 1287 34 1261 q 122 1313 85 1313 q 184 1287 159 1313 q 210 1223 210 1261 q 184 1160 210 1185 q 122 1134 159 1134 q 60 1160 85 1134 q 34 1223 34 1186 z "},"Ð":{"ha":1020,"x_min":4,"x_max":932,"o":"m 41 100 q 119 115 52 101 q 161 132 147 121 q 170 156 170 139 l 170 475 l 138 475 l 132 475 q 4 423 47 470 l 125 623 q 121 588 121 606 q 170 544 121 544 l 170 869 q 159 895 170 884 q 125 911 144 908 q 41 924 54 923 l 274 1013 q 463 1042 356 1042 l 481 1042 q 648 999 559 1042 q 800 883 732 958 q 895 718 857 819 q 932 505 932 616 q 894 297 932 394 q 800 136 857 201 q 650 26 741 70 q 467 -17 562 -17 q 258 22 361 -17 q 41 100 91 84 m 372 962 q 323 931 339 950 q 304 869 305 911 l 304 544 l 428 544 l 433 544 q 562 595 519 549 l 440 396 q 444 431 444 413 q 396 475 444 475 l 393 475 l 390 475 l 304 475 l 304 156 q 313 111 304 126 q 346 78 326 90 q 481 53 396 53 l 486 53 q 643 125 564 53 q 749 292 713 201 q 783 495 783 379 l 783 513 q 756 724 783 642 q 639 905 712 843 q 482 970 574 960 q 445 972 465 972 q 372 962 408 972 z "},"Ñ":{"ha":1051,"x_min":41,"x_max":1010,"o":"m 321 1153 q 446 1322 361 1322 q 467 1320 455 1322 q 555 1272 492 1314 l 614 1230 q 653 1215 631 1215 q 655 1215 654 1215 q 753 1290 696 1215 q 630 1107 717 1116 q 614 1109 622 1107 q 525 1159 587 1116 l 467 1198 q 425 1213 448 1212 l 424 1213 q 321 1153 380 1213 m 41 0 q 168 95 125 16 l 170 100 l 170 924 l 168 930 q 41 1025 125 1008 l 265 1025 l 806 298 l 806 924 l 804 930 q 677 1025 761 1008 l 1010 1025 q 883 930 920 1006 l 882 924 l 882 -27 l 245 816 l 245 100 l 247 94 q 374 0 283 19 l 41 0 z "},"Ò":{"ha":939,"x_min":88,"x_max":850,"o":"m 484 1074 l 470 1059 l 248 1183 l 237 1193 q 213 1239 216 1208 q 212 1251 212 1246 q 232 1301 212 1281 q 283 1322 254 1322 q 303 1320 293 1322 q 347 1295 329 1315 q 356 1284 354 1287 l 484 1074 m 229 493 q 251 313 229 387 q 340 121 284 182 q 469 54 402 54 q 471 54 471 54 q 473 54 473 54 q 604 122 530 54 q 682 283 655 186 q 708 493 708 379 q 708 514 708 503 q 682 725 708 641 q 590 913 648 850 q 470 970 536 970 l 469 970 q 353 925 403 970 q 259 743 292 876 q 229 493 229 623 m 118 298 q 103 346 118 298 q 88 505 88 393 q 118 719 88 616 q 199 891 148 822 q 321 1001 251 960 q 469 1042 392 1042 q 617 1001 547 1042 q 739 891 688 960 q 821 719 791 822 q 850 505 850 616 q 821 298 850 393 q 739 134 791 203 q 617 24 688 65 q 469 -17 547 -17 q 321 24 392 -17 q 199 134 251 65 q 118 298 148 203 z "},"Ó":{"ha":939,"x_min":88,"x_max":850,"o":"m 456 1074 l 584 1284 q 593 1295 586 1287 q 637 1320 611 1315 q 656 1322 647 1322 q 708 1301 686 1322 q 728 1251 728 1281 q 727 1239 728 1246 q 703 1193 724 1208 l 692 1183 l 470 1059 l 456 1074 m 229 493 q 251 313 229 387 q 340 121 284 182 q 469 54 402 54 q 471 54 471 54 q 473 54 473 54 q 604 122 530 54 q 682 283 655 186 q 708 493 708 379 q 708 514 708 503 q 682 725 708 641 q 590 913 648 850 q 470 970 536 970 l 469 970 q 353 925 403 970 q 259 743 292 876 q 229 493 229 623 m 118 298 q 103 346 118 298 q 88 505 88 393 q 118 719 88 616 q 199 891 148 822 q 321 1001 251 960 q 469 1042 392 1042 q 617 1001 547 1042 q 739 891 688 960 q 821 719 791 822 q 850 505 850 616 q 821 298 850 393 q 739 134 791 203 q 617 24 688 65 q 469 -17 547 -17 q 321 24 392 -17 q 199 134 251 65 q 118 298 148 203 z "},"Ô":{"ha":939,"x_min":88,"x_max":850,"o":"m 118 298 q 88 505 88 393 q 118 719 88 616 q 199 891 148 823 q 321 1001 250 959 q 469 1042 392 1042 q 617 1001 547 1042 q 739 891 688 960 q 821 719 791 822 q 850 505 850 616 q 821 298 850 393 q 739 134 791 203 q 617 24 688 65 q 469 -17 547 -17 q 321 24 392 -17 q 199 134 251 65 q 118 298 149 201 m 229 493 q 251 313 229 387 q 340 121 284 182 q 469 54 402 54 l 471 54 l 473 54 q 604 122 530 54 q 682 283 655 186 q 708 493 708 379 l 708 514 q 682 725 708 641 q 590 913 648 850 q 470 970 536 970 l 469 970 q 353 925 403 970 q 259 743 292 876 q 229 493 229 623 m 276 1074 l 404 1284 q 413 1295 405 1286 q 447 1318 425 1311 q 473 1322 462 1322 l 475 1322 l 476 1322 q 502 1318 486 1322 q 536 1295 520 1312 q 545 1284 543 1287 l 673 1074 l 659 1059 l 476 1181 l 290 1059 l 276 1074 z "},"Õ":{"ha":939,"x_min":88,"x_max":850,"o":"m 265 1153 q 391 1322 305 1322 q 411 1320 399 1322 q 499 1272 437 1314 l 558 1230 q 597 1215 576 1215 q 600 1215 599 1215 q 698 1290 641 1215 q 574 1107 661 1116 q 558 1109 566 1107 q 469 1159 531 1116 l 411 1198 q 369 1213 392 1212 l 368 1213 q 265 1153 325 1213 m 229 493 q 251 313 229 387 q 340 121 284 182 q 469 54 402 54 q 471 54 471 54 q 473 54 473 54 q 604 122 530 54 q 682 283 655 186 q 708 493 708 379 q 708 514 708 503 q 682 725 708 641 q 590 913 648 850 q 470 970 536 970 l 469 970 q 353 925 403 970 q 259 743 292 876 q 229 493 229 623 m 118 298 q 103 346 118 298 q 88 505 88 393 q 118 719 88 616 q 199 891 148 822 q 321 1001 251 960 q 469 1042 392 1042 q 617 1001 547 1042 q 739 891 688 960 q 821 719 791 822 q 850 505 850 616 q 821 298 850 393 q 739 134 791 203 q 617 24 688 65 q 469 -17 547 -17 q 321 24 392 -17 q 199 134 251 65 q 118 298 148 203 z "},"Ö":{"ha":939,"x_min":88,"x_max":850,"o":"m 523 1160 q 510 1173 523 1160 q 497 1223 497 1186 q 523 1287 497 1261 q 585 1313 549 1313 q 648 1287 622 1313 q 673 1223 673 1261 q 648 1160 673 1186 q 585 1134 622 1134 q 523 1160 549 1134 m 294 1160 q 281 1173 294 1160 q 269 1223 269 1186 q 294 1287 269 1261 q 357 1313 320 1313 q 419 1287 393 1313 q 445 1223 445 1261 q 419 1160 445 1186 q 357 1134 393 1134 q 294 1160 320 1134 m 229 493 q 251 313 229 387 q 340 121 284 182 q 469 54 402 54 q 471 54 471 54 q 473 54 473 54 q 604 122 530 54 q 682 283 655 186 q 708 493 708 379 q 708 514 708 503 q 682 725 708 641 q 590 913 648 850 q 470 970 536 970 l 469 970 q 353 925 403 970 q 259 743 292 876 q 229 493 229 623 m 118 298 q 103 346 118 298 q 88 505 88 393 q 118 719 88 616 q 199 891 148 822 q 321 1001 251 960 q 469 1042 392 1042 q 617 1001 547 1042 q 739 891 688 960 q 821 719 791 822 q 850 505 850 616 q 821 298 850 393 q 739 134 791 203 q 617 24 688 65 q 469 -17 547 -17 q 321 24 392 -17 q 199 134 251 65 q 118 298 148 203 z "},"×":{"ha":765,"x_min":136,"x_max":629,"o":"m 230 227 l 136 322 l 288 475 l 136 627 l 230 722 l 382 569 l 535 722 l 629 627 l 477 475 l 629 322 l 535 227 l 382 380 l 230 227 z "},"Ø":{"ha":939,"x_min":88,"x_max":850,"o":"m 118 298 q 103 346 118 298 q 88 505 88 393 q 118 719 88 616 q 199 891 148 822 q 321 1001 251 960 q 469 1042 392 1042 q 617 1001 547 1042 l 623 997 l 672 1107 l 765 1063 l 706 930 q 739 891 724 912 q 821 719 791 822 q 850 505 850 616 q 821 298 850 393 q 739 134 791 203 q 617 24 688 65 q 469 -17 547 -17 q 321 24 392 -17 q 306 34 313 28 l 255 -80 l 164 -33 l 224 103 q 199 134 212 117 q 118 298 148 203 m 229 493 q 251 313 229 387 q 279 225 263 264 l 587 916 q 470 970 534 970 l 469 970 q 353 925 403 970 q 259 743 292 876 q 229 493 229 623 m 652 811 l 343 118 q 469 54 404 54 l 471 54 l 473 54 q 604 122 530 54 q 682 283 655 186 q 708 493 708 379 l 708 514 q 682 725 708 641 q 652 811 669 772 z "},"Ù":{"ha":1049,"x_min":41,"x_max":1008,"o":"m 484 1074 l 470 1059 l 248 1183 l 237 1193 q 213 1239 216 1208 q 212 1251 212 1246 q 232 1301 212 1281 q 283 1322 254 1322 q 303 1320 293 1322 q 347 1295 329 1315 q 356 1284 354 1287 l 484 1074 m 41 1025 l 433 1025 q 305 930 342 1006 l 304 924 l 304 338 q 376 165 307 237 q 553 90 449 90 q 731 165 658 90 q 804 338 800 237 l 804 924 l 802 930 q 675 1025 759 1008 l 1008 1025 q 881 930 918 1006 l 880 924 l 880 338 l 880 336 q 851 199 880 264 q 777 86 823 134 q 663 11 729 39 q 525 -17 597 -17 q 387 11 452 -17 q 273 86 321 39 q 198 199 227 134 q 170 336 170 264 l 170 338 l 170 924 l 168 930 q 41 1025 125 1008 z "},"Ú":{"ha":1049,"x_min":41,"x_max":1008,"o":"m 456 1074 l 584 1284 q 593 1295 586 1287 q 637 1320 611 1315 q 656 1322 647 1322 q 708 1301 686 1322 q 728 1251 728 1281 q 727 1239 728 1246 q 703 1193 724 1208 l 692 1183 l 470 1059 l 456 1074 m 41 1025 l 433 1025 q 305 930 342 1006 l 304 924 l 304 338 q 376 165 307 237 q 553 90 449 90 q 731 165 658 90 q 804 338 800 237 l 804 924 l 802 930 q 675 1025 759 1008 l 1008 1025 q 881 930 918 1006 l 880 924 l 880 338 l 880 336 q 851 199 880 264 q 777 86 823 134 q 663 11 729 39 q 525 -17 597 -17 q 387 11 452 -17 q 273 86 321 39 q 198 199 227 134 q 170 336 170 264 l 170 338 l 170 924 l 168 930 q 41 1025 125 1008 z "},"Û":{"ha":1049,"x_min":41,"x_max":1008,"o":"m 372 1074 l 499 1284 q 509 1295 500 1286 q 543 1318 521 1311 q 568 1322 557 1322 l 570 1322 l 572 1322 q 597 1318 581 1322 q 631 1295 616 1312 q 641 1284 639 1287 l 768 1074 l 755 1059 l 572 1181 l 385 1059 l 372 1074 m 41 1025 l 433 1025 q 305 930 342 1006 l 304 924 l 304 338 q 376 165 307 237 q 553 90 449 90 q 731 165 658 90 q 804 338 800 237 l 804 924 l 802 930 q 675 1025 759 1008 l 1008 1025 q 881 930 918 1006 l 880 924 l 880 338 l 880 336 q 851 199 880 264 q 777 86 823 134 q 663 11 729 39 q 525 -17 597 -17 q 387 11 452 -17 q 273 86 321 39 q 198 199 227 134 q 170 336 170 264 l 170 338 l 170 924 l 168 930 q 41 1025 125 1008 z "},"Ü":{"ha":1049,"x_min":41,"x_max":1008,"o":"m 625 1160 q 612 1173 625 1160 q 600 1223 600 1186 q 625 1287 600 1261 q 688 1313 651 1313 q 750 1287 724 1313 q 776 1223 776 1261 q 750 1160 776 1186 q 688 1134 724 1134 q 625 1160 651 1134 m 397 1160 q 384 1173 397 1160 q 371 1223 371 1186 q 397 1287 371 1261 q 459 1313 422 1313 q 522 1287 496 1313 q 547 1223 547 1261 q 522 1160 547 1186 q 459 1134 496 1134 q 397 1160 422 1134 m 41 1025 l 433 1025 q 305 930 342 1006 l 304 924 l 304 338 q 376 165 307 237 q 553 90 449 90 q 731 165 658 90 q 804 338 800 237 l 804 924 l 802 930 q 675 1025 759 1008 l 1008 1025 q 881 930 918 1006 l 880 924 l 880 338 l 880 336 q 851 199 880 264 q 777 86 823 134 q 663 11 729 39 q 525 -17 597 -17 q 387 11 452 -17 q 273 86 321 39 q 198 199 227 134 q 170 336 170 264 l 170 338 l 170 924 l 168 930 q 41 1025 125 1008 z "},"Ý":{"ha":895,"x_min":-47,"x_max":943,"o":"m 456 1074 l 584 1284 q 593 1295 586 1287 q 637 1320 611 1315 q 656 1322 647 1322 q 708 1301 686 1322 q 728 1251 728 1281 q 727 1239 728 1246 q 703 1193 724 1208 l 692 1183 l 470 1059 l 456 1074 m 251 0 q 378 95 335 16 l 380 100 l 380 435 l 322 435 l 81 924 l 81 926 l 79 932 q -47 1025 35 1008 l 345 1025 q 213 941 213 978 q 216 930 213 935 l 218 924 l 457 435 l 490 435 l 734 924 l 737 930 q 740 941 740 935 q 608 1025 739 978 l 943 1025 q 816 930 859 1008 l 814 924 l 564 435 l 514 435 l 514 100 l 515 94 q 643 0 552 19 l 251 0 z "},"Þ":{"ha":935,"x_min":41,"x_max":846,"o":"m 41 0 q 168 95 125 16 l 170 100 l 170 924 l 168 930 q 41 1025 125 1008 l 433 1025 q 305 930 342 1006 l 304 924 l 304 818 q 445 840 383 840 l 450 840 q 620 812 549 840 q 735 743 689 785 q 825 621 798 686 q 846 499 842 585 q 769 288 843 366 q 620 187 703 218 q 492 166 563 166 q 464 167 478 166 q 304 224 366 172 l 304 100 l 305 94 q 433 0 342 19 l 41 0 m 450 770 q 346 745 397 770 q 313 713 326 733 q 304 667 304 696 l 304 330 q 414 243 338 267 q 477 233 446 233 l 484 233 q 511 235 487 233 q 620 277 576 241 q 700 499 700 341 q 667 646 700 581 q 581 739 639 703 q 450 770 530 770 z "},"ß":{"ha":862,"x_min":41,"x_max":774,"o":"m 41 0 q 168 94 132 19 l 170 100 l 170 730 l 170 735 q 265 983 170 878 q 433 1042 329 1042 l 435 1042 q 608 999 544 1041 q 711 831 704 937 q 712 812 712 821 l 712 810 q 663 675 712 734 l 635 648 q 501 580 581 604 q 590 549 507 576 q 694 485 642 532 q 773 297 766 418 l 774 269 q 666 56 761 130 q 441 -18 573 -16 l 441 56 q 578 124 522 60 q 623 279 623 176 l 623 292 q 603 420 623 377 q 527 511 574 479 q 391 577 490 534 l 481 627 q 538 671 527 659 q 575 800 575 711 q 574 821 575 811 q 540 932 570 882 l 532 941 q 445 986 496 985 q 443 986 445 986 q 354 949 387 986 q 317 867 332 924 q 304 764 309 831 q 304 737 304 749 l 304 735 l 304 730 l 304 100 l 305 95 q 433 0 349 16 l 41 0 z "},"à":{"ha":812,"x_min":75,"x_max":785,"o":"m 392 793 l 378 779 l 157 903 l 145 912 q 121 958 124 928 q 121 970 121 965 q 140 1020 121 1000 q 192 1042 162 1042 q 212 1040 201 1042 q 255 1015 237 1034 q 264 1003 262 1006 l 392 793 m 222 368 q 256 142 222 215 q 376 48 300 48 q 397 48 387 48 q 505 100 453 48 l 512 111 q 522 156 522 121 l 522 574 q 513 620 522 609 l 506 630 q 397 682 454 682 q 377 682 387 682 q 256 588 300 682 q 222 368 222 514 m 75 374 q 115 560 75 474 q 224 696 155 647 q 386 747 296 747 q 578 707 464 747 q 785 630 741 650 q 707 615 770 629 q 665 598 680 609 q 656 574 656 591 l 656 156 q 665 132 656 138 q 706 115 679 121 q 785 100 770 101 q 577 23 741 81 q 385 -17 463 -17 q 224 34 296 -17 q 114 170 154 83 q 75 374 75 255 z "},"á":{"ha":812,"x_min":75,"x_max":785,"o":"m 365 793 l 492 1003 q 502 1015 494 1006 q 545 1040 519 1034 q 565 1042 555 1042 q 616 1020 595 1042 q 636 970 636 1000 q 635 958 636 965 q 612 912 633 928 l 600 903 l 378 779 l 365 793 m 222 368 q 256 142 222 215 q 376 48 300 48 q 397 48 387 48 q 505 100 453 48 l 512 111 q 522 156 522 121 l 522 574 q 513 620 522 609 l 506 630 q 397 682 454 682 q 377 682 387 682 q 256 588 300 682 q 222 368 222 514 m 75 374 q 115 560 75 474 q 224 696 155 647 q 386 747 296 747 q 578 707 464 747 q 785 630 741 650 q 707 615 770 629 q 665 598 680 609 q 656 574 656 591 l 656 156 q 665 132 656 138 q 706 115 679 121 q 785 100 770 101 q 577 23 741 81 q 385 -17 463 -17 q 224 34 296 -17 q 114 170 154 83 q 75 374 75 255 z "},"â":{"ha":812,"x_min":75,"x_max":785,"o":"m 178 793 l 306 1003 q 315 1015 307 1005 q 349 1037 328 1030 q 375 1042 364 1042 l 377 1042 l 378 1042 q 404 1037 388 1042 q 438 1015 422 1031 q 448 1003 446 1006 l 575 793 l 562 779 l 378 901 l 192 779 l 178 793 m 222 368 q 256 142 222 215 q 376 48 300 48 q 397 48 387 48 q 505 100 453 48 l 512 111 q 522 156 522 121 l 522 574 q 513 620 522 609 l 506 630 q 397 682 454 682 q 377 682 387 682 q 256 588 300 682 q 222 368 222 514 m 75 374 q 115 560 75 474 q 224 696 155 647 q 386 747 296 747 q 578 707 464 747 q 785 630 741 650 q 707 615 770 629 q 665 598 680 609 q 656 574 656 591 l 656 156 q 665 132 656 138 q 706 115 679 121 q 785 100 770 101 q 577 23 741 81 q 385 -17 463 -17 q 224 34 296 -17 q 114 170 154 83 q 75 374 75 255 z "},"ã":{"ha":812,"x_min":75,"x_max":785,"o":"m 195 872 q 320 1042 235 1042 q 340 1039 329 1042 q 429 991 366 1033 l 488 949 q 527 935 505 935 q 529 935 528 935 q 627 1009 570 935 q 504 827 591 835 q 488 828 496 826 q 399 878 460 835 l 340 918 q 298 932 321 931 l 298 932 q 195 872 254 932 m 222 368 q 256 142 222 215 q 376 48 300 48 q 397 48 387 48 q 505 100 453 48 l 512 111 q 522 156 522 121 l 522 574 q 513 620 522 609 l 506 630 q 397 682 454 682 q 377 682 387 682 q 256 588 300 682 q 222 368 222 514 m 75 374 q 115 560 75 474 q 224 696 155 647 q 386 747 296 747 q 578 707 464 747 q 785 630 741 650 q 707 615 770 629 q 665 598 680 609 q 656 574 656 591 l 656 156 q 665 132 656 138 q 706 115 679 121 q 785 100 770 101 q 577 23 741 81 q 385 -17 463 -17 q 224 34 296 -17 q 114 170 154 83 q 75 374 75 255 z "},"ä":{"ha":812,"x_min":75,"x_max":785,"o":"m 446 889 q 433 902 446 889 q 420 952 420 915 q 446 1016 420 989 q 509 1042 472 1042 q 571 1016 545 1042 q 597 952 597 989 q 571 889 597 915 q 509 863 545 863 q 446 889 472 863 m 218 889 q 205 902 218 889 q 192 952 192 915 q 218 1016 192 989 q 280 1042 243 1042 q 342 1016 317 1042 q 368 952 368 989 q 342 889 368 915 q 280 863 317 863 q 218 889 243 863 m 222 368 q 256 142 222 215 q 376 48 300 48 q 397 48 387 48 q 505 100 453 48 l 512 111 q 522 156 522 121 l 522 574 q 513 620 522 609 l 506 630 q 397 682 454 682 q 377 682 387 682 q 256 588 300 682 q 222 368 222 514 m 75 374 q 115 560 75 474 q 224 696 155 647 q 386 747 296 747 q 578 707 464 747 q 785 630 741 650 q 707 615 770 629 q 665 598 680 609 q 656 574 656 591 l 656 156 q 665 132 656 138 q 706 115 679 121 q 785 100 770 101 q 577 23 741 81 q 385 -17 463 -17 q 224 34 296 -17 q 114 170 154 83 q 75 374 75 255 z "},"å":{"ha":812,"x_min":75,"x_max":785,"o":"m 346 907 q 357 851 346 871 q 387 831 368 831 q 412 850 400 831 q 426 914 426 871 q 412 974 426 954 q 385 991 400 991 q 358 974 370 991 q 346 907 346 957 m 273 916 q 289 978 273 947 q 329 1024 303 1007 q 387 1042 355 1042 q 444 1025 419 1042 q 484 978 469 1008 q 500 911 499 949 q 484 851 499 880 q 444 804 469 821 q 387 787 419 787 q 329 804 357 787 q 286 850 298 823 q 273 905 273 881 q 273 907 273 905 q 273 916 273 907 m 222 368 q 256 142 222 215 q 376 48 300 48 q 397 48 387 48 q 505 100 453 48 l 512 111 q 522 156 522 121 l 522 574 q 513 620 522 609 l 506 630 q 397 682 454 682 q 377 682 387 682 q 256 588 300 682 q 222 368 222 514 m 75 374 q 115 560 75 474 q 224 696 155 647 q 386 747 296 747 q 578 707 464 747 q 785 630 741 650 q 707 615 770 629 q 665 598 680 609 q 656 574 656 591 l 656 156 q 665 132 656 138 q 706 115 679 121 q 785 100 770 101 q 577 23 741 81 q 385 -17 463 -17 q 224 34 296 -17 q 114 170 154 83 q 75 374 75 255 z "},"æ":{"ha":1189,"x_min":75,"x_max":1114,"o":"m 75 374 q 115 560 75 474 q 224 696 155 647 q 386 747 296 747 q 578 707 498 747 q 649 673 618 687 q 675 696 661 686 q 827 747 744 747 q 975 701 905 747 q 1066 606 1026 673 q 1098 503 1095 559 q 990 307 1097 383 q 775 241 899 241 q 678 247 774 241 q 724 134 695 177 q 850 60 772 60 l 851 60 q 993 132 935 60 q 1036 212 1017 161 l 1114 189 q 1109 174 1112 178 q 1000 35 1053 70 q 839 -17 916 -17 l 837 -17 q 737 0 783 -17 l 522 0 l 522 31 q 376 -17 455 -17 q 224 34 293 -17 q 115 174 157 84 q 75 374 75 262 m 222 363 q 266 139 222 213 q 393 66 311 66 l 395 66 l 397 66 q 503 119 467 66 q 522 168 521 146 l 522 174 l 522 574 q 513 620 522 609 l 506 630 q 397 682 454 682 l 377 682 q 256 588 299 680 q 222 363 222 515 m 970 504 q 930 625 970 581 q 832 669 895 663 l 831 669 q 711 596 756 669 q 669 458 677 541 q 665 353 665 410 q 667 309 665 334 q 791 308 729 308 q 836 311 823 308 q 931 368 905 328 q 970 504 970 434 z "},"ç":{"ha":738,"x_min":75,"x_max":663,"o":"m 75 366 q 115 557 75 469 q 224 697 156 646 q 376 747 292 747 l 378 747 q 527 697 457 747 q 629 575 597 646 l 638 553 l 639 552 q 651 490 651 519 q 625 425 651 452 q 563 397 600 397 q 500 424 526 397 q 475 487 475 450 q 500 550 475 524 q 535 572 516 566 q 503 614 524 591 q 396 667 462 661 l 395 667 q 259 595 306 667 q 212 368 212 521 l 212 365 q 272 134 212 208 q 399 60 333 60 l 400 60 q 542 133 483 60 q 585 212 566 162 l 663 190 q 659 174 661 180 q 549 35 623 90 q 429 -14 496 -5 q 454 -87 444 -45 q 459 -149 459 -112 q 452 -197 459 -171 q 441 -226 448 -211 q 389 -283 424 -268 q 345 -294 366 -294 q 323 -291 334 -294 q 269 -250 287 -282 q 258 -206 258 -229 q 261 -182 258 -194 q 304 -124 272 -144 q 345 -113 323 -113 q 380 -119 361 -113 l 380 -102 l 380 -93 q 372 -35 380 -65 q 366 -16 369 -25 q 224 34 285 -12 q 115 174 157 84 q 75 366 75 262 z "},"è":{"ha":738,"x_min":75,"x_max":663,"o":"m 392 793 l 378 779 l 157 903 l 145 912 q 121 958 124 928 q 121 970 121 965 q 140 1020 121 1000 q 192 1042 162 1042 q 212 1040 201 1042 q 255 1015 237 1034 q 264 1003 262 1006 l 392 793 m 75 366 q 115 557 75 467 q 224 696 155 645 q 376 747 293 747 q 524 701 454 747 q 615 607 575 673 q 647 504 644 559 q 539 307 646 384 q 324 242 448 242 q 227 248 323 242 q 273 134 244 178 q 399 61 321 61 l 400 61 q 542 133 484 61 q 585 213 566 162 l 663 190 q 659 175 661 179 q 549 35 602 71 q 388 -16 465 -16 l 386 -16 q 224 34 293 -16 q 115 174 156 84 q 75 366 75 263 m 519 505 q 479 625 519 581 q 381 669 444 664 l 380 669 q 260 597 305 669 q 218 458 227 541 q 214 354 214 410 q 216 310 214 335 q 340 309 278 309 q 385 312 372 309 q 480 369 454 329 q 519 505 519 435 z "},"é":{"ha":738,"x_min":75,"x_max":663,"o":"m 365 793 l 492 1003 q 502 1015 494 1006 q 545 1040 519 1034 q 565 1042 555 1042 q 616 1020 595 1042 q 636 970 636 1000 q 635 958 636 965 q 612 912 633 928 l 600 903 l 378 779 l 365 793 m 75 366 q 115 557 75 467 q 224 696 155 645 q 376 747 293 747 q 524 701 454 747 q 615 607 575 673 q 647 504 644 559 q 539 307 646 384 q 324 242 448 242 q 227 248 323 242 q 273 134 244 178 q 399 61 321 61 l 400 61 q 542 133 484 61 q 585 213 566 162 l 663 190 q 659 175 661 179 q 549 35 602 71 q 388 -16 465 -16 l 386 -16 q 224 34 293 -16 q 115 174 156 84 q 75 366 75 263 m 519 505 q 479 625 519 581 q 381 669 444 664 l 380 669 q 260 597 305 669 q 218 458 227 541 q 214 354 214 410 q 216 310 214 335 q 340 309 278 309 q 385 312 372 309 q 480 369 454 329 q 519 505 519 435 z "},"ê":{"ha":738,"x_min":75,"x_max":663,"o":"m 178 793 l 306 1003 q 315 1015 307 1005 q 349 1037 328 1030 q 375 1042 364 1042 l 377 1042 l 378 1042 q 404 1037 388 1042 q 438 1015 422 1031 q 448 1003 446 1006 l 575 793 l 562 779 l 378 901 l 192 779 l 178 793 m 75 366 q 115 557 75 467 q 224 696 155 645 q 376 747 293 747 q 524 701 454 747 q 615 607 575 673 q 647 504 644 559 q 539 307 646 384 q 324 242 448 242 q 227 248 323 242 q 273 134 244 178 q 399 61 321 61 l 400 61 q 542 133 484 61 q 585 213 566 162 l 663 190 q 659 175 661 179 q 549 35 602 71 q 388 -16 465 -16 l 386 -16 q 224 34 293 -16 q 115 174 156 84 q 75 366 75 263 m 519 505 q 479 625 519 581 q 381 669 444 664 l 380 669 q 260 597 305 669 q 218 458 227 541 q 214 354 214 410 q 216 310 214 335 q 340 309 278 309 q 385 312 372 309 q 480 369 454 329 q 519 505 519 435 z "},"ë":{"ha":738,"x_min":75,"x_max":663,"o":"m 428 889 q 415 902 428 889 q 402 952 402 915 q 428 1016 402 989 q 490 1042 454 1042 q 553 1016 527 1042 q 578 952 578 989 q 553 889 578 915 q 490 863 527 863 q 428 889 454 863 m 199 889 q 186 902 199 889 q 174 952 174 915 q 199 1016 174 989 q 262 1042 225 1042 q 324 1016 298 1042 q 350 952 350 989 q 324 889 350 915 q 262 863 298 863 q 199 889 225 863 m 75 366 q 115 557 75 467 q 224 696 155 645 q 376 747 293 747 q 524 701 454 747 q 615 607 575 673 q 647 504 644 559 q 539 307 646 384 q 324 242 448 242 q 227 248 323 242 q 273 134 244 178 q 399 61 321 61 l 400 61 q 542 133 484 61 q 585 213 566 162 l 663 190 q 659 175 661 179 q 549 35 602 71 q 388 -16 465 -16 l 386 -16 q 224 34 293 -16 q 115 174 156 84 q 75 366 75 263 m 519 505 q 479 625 519 581 q 381 669 444 664 l 380 669 q 260 597 305 669 q 218 458 227 541 q 214 354 214 410 q 216 310 214 335 q 340 309 278 309 q 385 312 372 309 q 480 369 454 329 q 519 505 519 435 z "},"ì":{"ha":446,"x_min":8,"x_max":419,"o":"m 279 793 l 266 779 l 44 903 l 33 912 q 9 958 12 928 q 8 970 8 965 q 28 1020 8 1000 q 79 1042 50 1042 q 99 1040 89 1042 q 142 1015 125 1034 q 152 1003 150 1006 l 279 793 m 27 652 q 235 730 76 674 q 290 747 260 739 l 290 100 l 292 94 q 419 0 328 19 l 27 0 q 155 95 111 16 l 156 100 l 156 597 q 147 621 156 614 q 102 638 133 632 q 27 652 35 652 z "},"í":{"ha":446,"x_min":27,"x_max":437,"o":"m 166 793 l 294 1003 q 303 1015 296 1006 q 347 1040 321 1034 q 366 1042 357 1042 q 418 1020 396 1042 q 437 970 437 1000 q 437 958 437 965 q 413 912 434 928 l 401 903 l 180 779 l 166 793 m 27 652 q 235 730 76 674 q 290 747 260 739 l 290 100 l 292 94 q 419 0 328 19 l 27 0 q 155 95 111 16 l 156 100 l 156 597 q 147 621 156 614 q 102 638 133 632 q 27 652 35 652 z "},"î":{"ha":446,"x_min":26,"x_max":423,"o":"m 26 793 l 154 1003 q 163 1015 155 1005 q 197 1037 176 1030 q 223 1042 212 1042 l 225 1042 l 227 1042 q 252 1037 236 1042 q 286 1015 271 1031 q 296 1003 294 1006 l 423 793 l 410 779 l 227 901 l 40 779 l 26 793 m 27 652 q 235 730 76 674 q 290 747 260 739 l 290 100 l 292 94 q 419 0 328 19 l 27 0 q 155 95 111 16 l 156 100 l 156 597 q 147 621 156 614 q 102 638 133 632 q 27 652 35 652 z "},"ï":{"ha":446,"x_min":20,"x_max":426,"o":"m 27 652 q 235 730 76 674 q 290 747 260 739 l 290 100 l 292 94 q 419 0 328 19 l 27 0 q 155 95 111 16 l 156 100 l 156 597 q 147 621 156 614 q 102 638 133 632 q 27 652 35 652 m 250 952 q 275 1016 250 990 q 338 1042 301 1042 q 400 1016 375 1042 q 426 952 426 989 q 400 888 426 914 q 338 863 374 863 q 275 889 301 863 q 250 952 250 915 m 20 952 q 46 1016 20 990 q 109 1042 72 1042 q 171 1016 146 1042 q 197 952 197 989 q 171 888 197 914 q 109 863 145 863 q 46 889 72 863 q 20 952 20 915 z "},"ð":{"ha":751,"x_min":75,"x_max":789,"o":"m 75 357 q 115 557 75 469 q 224 696 157 646 q 376 747 293 747 q 503 712 444 747 q 468 819 488 772 l 264 819 l 302 888 l 429 888 q 410 913 421 899 q 290 970 360 970 l 288 970 q 210 951 250 969 q 83 846 157 928 l 153 1007 q 289 1042 218 1042 q 437 1001 367 1042 q 559 891 503 962 l 561 888 l 655 888 l 661 888 q 789 940 746 893 l 667 741 q 671 775 671 758 q 623 819 671 819 l 620 819 l 617 819 l 604 819 q 640 719 627 774 q 677 365 675 582 q 636 174 677 262 q 527 34 595 85 q 376 -17 459 -17 q 224 34 296 -17 q 115 170 155 83 q 75 357 75 256 m 222 368 q 256 142 222 216 q 382 48 300 48 q 498 155 455 48 q 534 362 533 243 l 534 365 q 480 593 534 506 q 375 665 435 665 l 373 665 q 266 591 309 665 q 222 368 222 517 z "},"ñ":{"ha":873,"x_min":27,"x_max":873,"o":"m 229 872 q 355 1042 269 1042 q 375 1039 363 1042 q 463 991 401 1033 l 522 949 q 562 935 540 935 q 564 935 563 935 q 662 1009 605 935 q 538 827 625 835 q 522 828 530 826 q 433 878 495 835 l 375 918 q 333 932 356 931 l 332 932 q 229 872 289 932 m 27 0 q 155 95 111 16 l 156 100 l 156 597 q 147 621 156 614 q 106 637 134 631 q 27 652 44 651 q 235 730 50 663 q 290 747 263 740 l 290 695 l 292 696 q 444 747 360 747 q 595 696 526 747 q 704 557 663 646 q 745 365 745 467 l 745 361 l 745 134 q 753 110 745 117 q 795 93 767 99 q 873 78 857 79 q 666 1 836 61 q 610 -17 637 -9 l 610 362 l 610 365 q 551 594 610 519 q 418 665 496 665 q 415 665 416 665 q 290 602 329 665 l 290 100 l 292 94 q 419 0 328 19 l 27 0 z "},"ò":{"ha":751,"x_min":75,"x_max":677,"o":"m 392 793 l 378 779 l 157 903 l 145 912 q 121 958 124 928 q 121 970 121 965 q 140 1020 121 1000 q 192 1042 162 1042 q 212 1040 201 1042 q 255 1015 237 1034 q 264 1003 262 1006 l 392 793 m 222 368 q 256 142 222 216 q 382 48 300 48 q 498 155 455 48 q 534 362 533 243 l 534 365 q 480 593 534 506 q 375 665 435 665 q 373 665 374 665 q 266 591 309 665 q 222 368 222 517 m 75 357 q 115 557 75 469 q 224 696 157 646 q 376 747 293 747 q 527 696 458 747 q 636 557 595 646 q 677 365 677 467 q 636 174 677 262 q 527 34 595 85 q 376 -17 459 -17 q 224 34 296 -17 q 115 170 155 83 q 75 357 75 256 z "},"ó":{"ha":751,"x_min":75,"x_max":677,"o":"m 365 793 l 492 1003 q 502 1015 494 1006 q 545 1040 519 1034 q 565 1042 555 1042 q 616 1020 595 1042 q 636 970 636 1000 q 635 958 636 965 q 612 912 633 928 l 600 903 l 378 779 l 365 793 m 222 368 q 256 142 222 216 q 382 48 300 48 q 498 155 455 48 q 534 362 533 243 l 534 365 q 480 593 534 506 q 375 665 435 665 q 373 665 374 665 q 266 591 309 665 q 222 368 222 517 m 75 357 q 115 557 75 469 q 224 696 157 646 q 376 747 293 747 q 527 696 458 747 q 636 557 595 646 q 677 365 677 467 q 636 174 677 262 q 527 34 595 85 q 376 -17 459 -17 q 224 34 296 -17 q 115 170 155 83 q 75 357 75 256 z "},"ô":{"ha":751,"x_min":75,"x_max":677,"o":"m 178 793 l 306 1003 q 315 1015 307 1005 q 349 1037 328 1030 q 375 1042 364 1042 l 377 1042 l 378 1042 q 404 1037 388 1042 q 438 1015 422 1031 q 448 1003 446 1006 l 575 793 l 562 779 l 378 901 l 192 779 l 178 793 m 222 368 q 256 142 222 216 q 382 48 300 48 q 498 155 455 48 q 534 362 533 243 l 534 365 q 480 593 534 506 q 375 665 435 665 q 373 665 374 665 q 266 591 309 665 q 222 368 222 517 m 75 357 q 115 557 75 469 q 224 696 157 646 q 376 747 293 747 q 527 696 458 747 q 636 557 595 646 q 677 365 677 467 q 636 174 677 262 q 527 34 595 85 q 376 -17 459 -17 q 224 34 296 -17 q 115 170 155 83 q 75 357 75 256 z "},"õ":{"ha":751,"x_min":75,"x_max":677,"o":"m 172 872 q 297 1042 212 1042 q 317 1039 306 1042 q 406 991 343 1033 l 465 949 q 504 935 482 935 q 506 935 505 935 q 604 1009 547 935 q 481 827 568 835 q 465 828 473 826 q 376 878 437 835 l 317 918 q 275 932 298 931 l 275 932 q 172 872 231 932 m 222 368 q 256 142 222 216 q 382 48 300 48 q 498 155 455 48 q 534 362 533 243 l 534 365 q 480 593 534 506 q 375 665 435 665 q 373 665 374 665 q 266 591 309 665 q 222 368 222 517 m 75 357 q 115 557 75 469 q 224 696 157 646 q 376 747 293 747 q 527 696 458 747 q 636 557 595 646 q 677 365 677 467 q 636 174 677 262 q 527 34 595 85 q 376 -17 459 -17 q 224 34 296 -17 q 115 170 155 83 q 75 357 75 256 z "},"ö":{"ha":751,"x_min":75,"x_max":677,"o":"m 431 889 q 418 902 431 889 q 405 952 405 915 q 431 1016 405 989 q 493 1042 456 1042 q 555 1016 530 1042 q 581 952 581 989 q 555 889 581 915 q 493 863 530 863 q 431 889 456 863 m 202 889 q 189 902 202 889 q 176 952 176 915 q 202 1016 176 989 q 264 1042 228 1042 q 327 1016 301 1042 q 353 952 353 989 q 327 889 353 915 q 264 863 301 863 q 202 889 228 863 m 222 368 q 256 142 222 216 q 382 48 300 48 q 498 155 455 48 q 534 362 533 243 l 534 365 q 480 593 534 506 q 375 665 435 665 q 373 665 374 665 q 266 591 309 665 q 222 368 222 517 m 75 357 q 115 557 75 469 q 224 696 157 646 q 376 747 293 747 q 527 696 458 747 q 636 557 595 646 q 677 365 677 467 q 636 174 677 262 q 527 34 595 85 q 376 -17 459 -17 q 224 34 296 -17 q 115 170 155 83 q 75 357 75 256 z "},"÷":{"ha":836,"x_min":136,"x_max":701,"o":"m 136 541 l 701 541 l 701 408 l 136 408 l 136 541 m 357 212 q 344 225 357 212 q 331 275 331 238 q 357 339 331 313 q 419 365 382 365 q 481 339 456 365 q 507 275 507 313 q 481 212 507 238 q 419 186 456 186 q 357 212 382 186 m 355 605 q 342 618 355 605 q 330 668 330 631 q 355 731 330 705 q 418 758 381 758 q 480 731 454 758 q 506 668 506 705 q 480 605 506 631 q 418 578 454 578 q 355 605 381 578 z "},"ø":{"ha":751,"x_min":75,"x_max":677,"o":"m 75 357 q 115 557 75 469 q 224 696 157 646 q 376 747 293 747 q 481 724 431 747 l 519 807 l 612 764 l 566 663 q 636 557 608 619 q 677 365 677 467 q 636 174 677 262 q 527 34 595 85 q 376 -17 459 -17 q 271 7 321 -17 l 232 -80 l 141 -33 l 186 66 q 115 170 143 109 q 75 357 75 256 m 509 534 l 302 77 q 382 48 336 48 q 498 155 455 48 q 534 362 533 243 l 534 365 q 509 534 534 463 m 443 638 q 375 665 412 665 l 373 665 q 266 591 309 665 q 222 368 222 517 q 241 189 222 258 l 443 638 z "},"ù":{"ha":873,"x_min":0,"x_max":846,"o":"m 392 793 l 378 779 l 157 903 l 145 912 q 121 958 124 928 q 121 970 121 965 q 140 1020 121 1000 q 192 1042 162 1042 q 212 1040 201 1042 q 255 1015 237 1034 q 264 1003 262 1006 l 392 793 m 846 730 q 719 635 762 714 l 718 630 l 718 134 q 726 110 718 117 q 768 93 740 99 q 846 78 829 79 q 639 1 808 61 q 583 -17 610 -9 l 583 35 l 581 34 q 430 -17 513 -17 q 279 34 348 -17 q 170 174 210 84 q 129 366 129 263 l 129 370 l 129 597 q 120 621 129 614 q 79 637 106 631 q 0 652 19 651 q 208 730 38 669 q 263 747 236 740 l 263 368 l 263 366 q 322 136 263 211 q 456 66 378 66 q 458 66 457 66 q 583 128 545 66 l 583 630 l 582 636 q 454 730 545 711 l 846 730 z "},"ú":{"ha":873,"x_min":0,"x_max":846,"o":"m 365 793 l 492 1003 q 502 1015 494 1006 q 545 1040 519 1034 q 565 1042 555 1042 q 616 1020 595 1042 q 636 970 636 1000 q 635 958 636 965 q 612 912 633 928 l 600 903 l 378 779 l 365 793 m 846 730 q 719 635 762 714 l 718 630 l 718 134 q 726 110 718 117 q 768 93 740 99 q 846 78 829 79 q 639 1 808 61 q 583 -17 610 -9 l 583 35 l 581 34 q 430 -17 513 -17 q 279 34 348 -17 q 170 174 210 84 q 129 366 129 263 l 129 370 l 129 597 q 120 621 129 614 q 79 637 106 631 q 0 652 19 651 q 208 730 38 669 q 263 747 236 740 l 263 368 l 263 366 q 322 136 263 211 q 456 66 378 66 q 458 66 457 66 q 583 128 545 66 l 583 630 l 582 636 q 454 730 545 711 l 846 730 z "},"û":{"ha":873,"x_min":0,"x_max":846,"o":"m 230 793 l 357 1003 q 367 1015 359 1005 q 401 1037 379 1030 q 427 1042 416 1042 l 429 1042 l 430 1042 q 456 1037 439 1042 q 490 1015 474 1031 q 499 1003 497 1006 l 627 793 l 613 779 l 430 901 l 243 779 l 230 793 m 846 730 q 719 635 762 714 l 718 630 l 718 134 q 726 110 718 117 q 768 93 740 99 q 846 78 829 79 q 639 1 808 61 q 583 -17 610 -9 l 583 35 l 581 34 q 430 -17 513 -17 q 279 34 348 -17 q 170 174 210 84 q 129 366 129 263 l 129 370 l 129 597 q 120 621 129 614 q 79 637 106 631 q 0 652 19 651 q 208 730 38 669 q 263 747 236 740 l 263 368 l 263 366 q 322 136 263 211 q 456 66 378 66 q 458 66 457 66 q 583 128 545 66 l 583 630 l 582 636 q 454 730 545 711 l 846 730 z "},"ü":{"ha":873,"x_min":0,"x_max":846,"o":"m 475 889 q 462 902 475 889 q 449 952 449 915 q 475 1016 449 989 q 537 1042 500 1042 q 600 1016 574 1042 q 625 952 625 989 q 600 889 625 915 q 537 863 574 863 q 475 889 500 863 m 246 889 q 233 902 246 889 q 220 952 220 915 q 246 1016 220 989 q 309 1042 272 1042 q 371 1016 345 1042 q 397 952 397 989 q 371 889 397 915 q 309 863 345 863 q 246 889 272 863 m 846 730 q 719 635 762 714 l 718 630 l 718 134 q 726 110 718 117 q 768 93 740 99 q 846 78 829 79 q 639 1 808 61 q 583 -17 610 -9 l 583 35 l 581 34 q 430 -17 513 -17 q 279 34 348 -17 q 170 174 210 84 q 129 366 129 263 l 129 370 l 129 597 q 120 621 129 614 q 79 637 106 631 q 0 652 19 651 q 208 730 38 669 q 263 747 236 740 l 263 368 l 263 366 q 322 136 263 211 q 456 66 378 66 q 458 66 457 66 q 583 128 545 66 l 583 630 l 582 636 q 454 730 545 711 l 846 730 z "},"ý":{"ha":773,"x_min":-27,"x_max":800,"o":"m -27 730 l 365 730 q 235 642 235 673 q 237 636 235 639 l 239 630 l 408 172 l 591 630 l 593 637 q 594 644 594 642 q 465 730 591 685 l 800 730 q 673 635 717 714 l 671 630 l 354 -163 l 346 -183 q 203 -294 300 -286 q 195 -294 199 -294 q 186 -294 191 -294 q 41 -228 106 -294 q 14 -163 14 -195 q 38 -100 14 -125 q 101 -75 64 -75 q 164 -103 138 -75 q 191 -168 191 -132 q 168 -224 191 -199 q 203 -232 186 -232 q 248 -212 229 -231 l 264 -190 q 334 -12 307 -85 l 102 630 l 101 632 l 99 638 q -27 730 56 714 m 365 793 l 492 1003 q 502 1015 494 1006 q 545 1040 519 1034 q 565 1042 555 1042 q 616 1020 595 1042 q 636 970 636 1000 q 635 958 636 965 q 612 912 633 928 l 600 903 l 378 779 l 365 793 z "},"þ":{"ha":812,"x_min":27,"x_max":738,"o":"m 27 -294 q 155 -199 111 -277 l 156 -193 l 156 891 q 147 915 156 908 q 104 932 134 926 q 27 947 33 946 q 235 1024 39 952 q 290 1042 260 1034 l 290 725 q 431 747 370 747 l 437 747 q 588 696 516 747 q 698 560 657 648 q 738 374 738 474 q 697 174 738 262 q 588 34 656 84 q 437 -17 519 -17 q 290 31 357 -17 l 290 -193 l 292 -199 q 419 -294 328 -275 l 27 -294 m 590 363 q 556 588 590 515 q 425 682 512 682 q 307 630 359 682 l 300 620 q 290 574 290 609 l 290 174 l 290 168 q 310 119 292 146 q 417 66 346 66 l 419 66 q 547 139 502 66 q 590 363 590 213 z "},"ÿ":{"ha":773,"x_min":-27,"x_max":800,"o":"m -27 730 l 365 730 q 235 642 235 673 q 237 636 235 639 l 239 630 l 408 172 l 591 630 l 593 637 q 594 644 594 642 q 465 730 591 685 l 800 730 q 673 635 717 714 l 671 630 l 354 -163 l 346 -183 q 203 -294 300 -286 q 195 -294 199 -294 q 186 -294 191 -294 q 41 -228 106 -294 q 14 -163 14 -195 q 38 -100 14 -125 q 101 -75 64 -75 q 164 -103 138 -75 q 191 -168 191 -132 q 168 -224 191 -199 q 203 -232 186 -232 q 248 -212 229 -231 l 264 -190 q 334 -12 307 -85 l 102 630 l 101 632 l 99 638 q -27 730 56 714 m 468 889 q 455 902 468 889 q 442 952 442 915 q 468 1016 442 989 q 530 1042 494 1042 q 593 1016 567 1042 q 618 952 618 989 q 593 889 618 915 q 530 863 567 863 q 468 889 494 863 m 239 889 q 227 902 239 889 q 214 952 214 915 q 239 1016 214 989 q 302 1042 265 1042 q 364 1016 338 1042 q 390 952 390 989 q 364 889 390 915 q 302 863 338 863 q 239 889 265 863 z "},"Ā":{"ha":895,"x_min":-47,"x_max":943,"o":"m 238 1322 l 633 1322 l 633 1202 l 238 1202 l 238 1322 m -47 0 q 79 95 36 16 l 81 100 l 444 1052 l 814 100 l 814 98 l 817 92 q 943 0 860 16 l 551 0 q 680 84 680 38 q 679 94 680 89 l 677 100 l 573 366 l 260 366 l 161 100 l 159 94 q 157 85 157 90 q 287 0 157 43 l -47 0 m 286 435 l 547 435 l 415 793 l 286 435 z "},"ā":{"ha":812,"x_min":75,"x_max":785,"o":"m 191 1025 l 587 1025 l 587 905 l 191 905 l 191 1025 m 222 368 q 256 142 222 215 q 376 48 300 48 q 397 48 387 48 q 505 100 453 48 l 512 111 q 522 156 522 121 l 522 574 q 513 620 522 609 l 506 630 q 397 682 454 682 q 377 682 387 682 q 256 588 300 682 q 222 368 222 514 m 75 374 q 115 560 75 474 q 224 696 155 647 q 386 747 296 747 q 578 707 464 747 q 785 630 741 650 q 707 615 770 629 q 665 598 680 609 q 656 574 656 591 l 656 156 q 665 132 656 138 q 706 115 679 121 q 785 100 770 101 q 577 23 741 81 q 385 -17 463 -17 q 224 34 296 -17 q 114 170 154 83 q 75 374 75 255 z "},"Ă":{"ha":895,"x_min":-47,"x_max":943,"o":"m 222 1243 l 300 1322 q 327 1299 323 1303 q 456 1257 380 1257 q 564 1298 519 1257 l 587 1320 l 677 1251 q 591 1182 638 1211 q 446 1141 523 1141 q 299 1184 370 1141 q 222 1243 253 1212 m -47 0 q 79 95 36 16 l 81 100 l 444 1052 l 814 100 l 814 98 l 817 92 q 943 0 860 16 l 551 0 q 680 84 680 38 q 679 94 680 89 l 677 100 l 573 366 l 260 366 l 161 100 l 159 94 q 157 85 157 90 q 287 0 157 43 l -47 0 m 286 435 l 547 435 l 415 793 l 286 435 z "},"ă":{"ha":812,"x_min":75,"x_max":785,"o":"m 152 962 l 229 1042 q 256 1018 252 1022 q 386 977 310 977 q 494 1017 448 977 l 516 1040 l 606 970 q 520 901 568 930 q 376 861 452 861 q 229 903 299 861 q 152 962 182 931 m 222 368 q 256 142 222 215 q 376 48 300 48 q 397 48 387 48 q 505 100 453 48 l 512 111 q 522 156 522 121 l 522 574 q 513 620 522 609 l 506 630 q 397 682 454 682 q 377 682 387 682 q 256 588 300 682 q 222 368 222 514 m 75 374 q 115 560 75 474 q 224 696 155 647 q 386 747 296 747 q 578 707 464 747 q 785 630 741 650 q 707 615 770 629 q 665 598 680 609 q 656 574 656 591 l 656 156 q 665 132 656 138 q 706 115 679 121 q 785 100 770 101 q 577 23 741 81 q 385 -17 463 -17 q 224 34 296 -17 q 114 170 154 83 q 75 374 75 255 z "},"Ą":{"ha":895,"x_min":-47,"x_max":943,"o":"m 286 435 l 547 435 l 415 793 l 286 435 m -47 0 q 79 95 36 16 l 81 100 l 444 1052 l 814 100 l 814 98 l 817 92 q 943 0 860 16 l 764 0 q 751 -35 756 -16 q 742 -93 742 -65 l 742 -102 l 743 -119 q 777 -113 761 -113 q 818 -124 800 -113 q 861 -182 850 -144 q 865 -206 865 -194 q 853 -250 865 -229 q 800 -291 836 -282 q 777 -294 789 -294 q 733 -283 756 -294 q 681 -226 698 -268 q 671 -197 675 -211 q 663 -149 663 -171 q 669 -87 663 -113 q 701 0 680 -35 l 551 0 q 680 84 680 38 q 679 94 680 89 l 677 100 l 573 366 l 260 366 l 161 100 l 159 94 q 157 85 157 90 q 287 0 157 43 l -47 0 z "},"ą":{"ha":812,"x_min":75,"x_max":792,"o":"m 75 374 q 115 560 75 474 q 224 696 155 647 q 386 747 296 747 q 578 707 464 747 q 785 630 741 650 q 707 615 770 629 q 665 598 680 609 q 656 574 656 591 l 656 156 q 665 132 656 138 q 706 115 679 121 q 785 100 770 101 q 738 81 769 94 q 678 -35 701 50 q 669 -93 669 -67 l 669 -102 l 670 -119 q 705 -113 688 -113 q 745 -124 727 -113 q 789 -182 778 -144 q 792 -206 792 -194 q 781 -250 792 -229 q 727 -291 763 -282 q 705 -294 716 -294 q 661 -283 684 -294 q 608 -226 625 -268 q 598 -197 602 -211 q 591 -149 591 -171 q 596 -87 591 -114 q 643 47 614 2 l 577 23 q 385 -17 463 -17 q 224 34 296 -17 q 114 170 154 83 q 75 374 75 255 m 222 368 q 256 142 222 215 q 376 48 300 48 l 397 48 q 505 100 453 48 l 512 111 q 522 156 522 121 l 522 574 q 513 620 522 609 l 506 630 q 397 682 454 682 l 377 682 q 256 588 300 682 q 222 368 222 514 z "},"Ć":{"ha":926,"x_min":88,"x_max":859,"o":"m 456 1074 l 584 1284 q 593 1295 586 1287 q 637 1320 611 1315 q 656 1322 647 1322 q 708 1301 686 1322 q 728 1251 728 1281 q 727 1239 728 1246 q 703 1193 724 1208 l 692 1183 l 470 1059 l 456 1074 m 118 298 q 88 505 88 393 q 118 719 88 616 q 199 891 149 825 q 321 1001 252 961 q 463 1042 391 1042 q 469 1042 466 1042 q 615 1006 548 1042 q 688 957 661 982 l 694 956 q 783 1042 762 962 l 783 650 q 701 867 748 789 q 642 930 677 903 q 510 970 586 970 q 349 912 422 970 q 263 735 295 850 q 232 515 232 622 q 232 506 232 511 q 254 313 232 400 q 374 106 304 164 q 523 58 432 58 q 555 60 538 58 q 667 103 605 64 q 745 178 702 124 q 789 267 772 212 l 859 240 q 799 136 833 181 q 677 26 747 66 q 501 -17 600 -17 q 498 -17 499 -17 q 323 24 394 -17 q 199 134 251 65 q 118 298 149 201 z "},"ć":{"ha":738,"x_min":75,"x_max":663,"o":"m 365 793 l 492 1003 q 502 1015 494 1006 q 545 1040 519 1034 q 565 1042 555 1042 q 616 1020 595 1042 q 636 970 636 1000 q 635 958 636 965 q 612 912 633 928 l 600 903 l 378 779 l 365 793 m 75 366 q 115 557 75 469 q 224 697 156 646 q 376 747 292 747 l 378 747 q 527 697 457 747 q 629 575 597 646 l 638 553 l 639 552 q 651 490 651 519 q 625 425 651 452 q 563 397 600 397 q 500 424 526 397 q 475 487 475 450 q 500 550 475 524 q 535 572 516 566 q 503 614 524 591 q 396 667 462 661 l 395 667 q 259 595 306 667 q 212 368 212 521 l 212 365 q 272 134 212 208 q 399 60 333 60 l 400 60 q 542 133 483 60 q 585 212 566 162 l 663 190 q 659 174 661 181 q 549 35 623 90 q 388 -17 481 -17 l 386 -17 q 224 34 292 -17 q 115 174 157 84 q 75 366 75 262 z "},"Ĉ":{"ha":926,"x_min":88,"x_max":859,"o":"m 276 1074 l 404 1284 q 413 1295 405 1286 q 447 1318 425 1311 q 473 1322 462 1322 l 475 1322 l 476 1322 q 502 1318 486 1322 q 536 1295 520 1312 q 545 1284 543 1287 l 673 1074 l 659 1059 l 476 1181 l 290 1059 l 276 1074 m 118 298 q 88 505 88 393 q 118 719 88 616 q 199 891 149 825 q 321 1001 252 961 q 463 1042 391 1042 q 469 1042 466 1042 q 615 1006 548 1042 q 688 957 661 982 l 694 956 q 783 1042 762 962 l 783 650 q 701 867 748 789 q 642 930 677 903 q 510 970 586 970 q 349 912 422 970 q 263 735 295 850 q 232 515 232 622 q 232 506 232 511 q 254 313 232 400 q 374 106 304 164 q 523 58 432 58 q 555 60 538 58 q 667 103 605 64 q 745 178 702 124 q 789 267 772 212 l 859 240 q 799 136 833 181 q 677 26 747 66 q 501 -17 600 -17 q 498 -17 499 -17 q 323 24 394 -17 q 199 134 251 65 q 118 298 149 201 z "},"ĉ":{"ha":738,"x_min":75,"x_max":663,"o":"m 178 793 l 306 1003 q 315 1015 307 1005 q 349 1037 328 1030 q 375 1042 364 1042 l 377 1042 l 378 1042 q 404 1037 388 1042 q 438 1015 422 1031 q 448 1003 446 1006 l 575 793 l 562 779 l 378 901 l 192 779 l 178 793 m 75 366 q 115 557 75 469 q 224 697 156 646 q 376 747 292 747 l 378 747 q 527 697 457 747 q 629 575 597 646 l 638 553 l 639 552 q 651 490 651 519 q 625 425 651 452 q 563 397 600 397 q 500 424 526 397 q 475 487 475 450 q 500 550 475 524 q 535 572 516 566 q 503 614 524 591 q 396 667 462 661 l 395 667 q 259 595 306 667 q 212 368 212 521 l 212 365 q 272 134 212 208 q 399 60 333 60 l 400 60 q 542 133 483 60 q 585 212 566 162 l 663 190 q 659 174 661 181 q 549 35 623 90 q 388 -17 481 -17 l 386 -17 q 224 34 292 -17 q 115 174 157 84 q 75 366 75 262 z "},"Ċ":{"ha":926,"x_min":88,"x_max":859,"o":"m 406 1160 q 393 1173 406 1160 q 380 1223 380 1186 q 406 1287 380 1261 q 468 1313 431 1313 q 530 1287 505 1313 q 556 1223 556 1261 q 530 1160 556 1186 q 468 1134 505 1134 q 406 1160 431 1134 m 118 298 q 88 505 88 393 q 118 719 88 616 q 199 891 149 825 q 321 1001 252 961 q 463 1042 391 1042 q 469 1042 466 1042 q 615 1006 548 1042 q 688 957 661 982 l 694 956 q 783 1042 762 962 l 783 650 q 701 867 748 789 q 642 930 677 903 q 510 970 586 970 q 349 912 422 970 q 263 735 295 850 q 232 515 232 622 q 232 506 232 511 q 254 313 232 400 q 374 106 304 164 q 523 58 432 58 q 555 60 538 58 q 667 103 605 64 q 745 178 702 124 q 789 267 772 212 l 859 240 q 799 136 833 181 q 677 26 747 66 q 501 -17 600 -17 q 498 -17 499 -17 q 323 24 394 -17 q 199 134 251 65 q 118 298 149 201 z "},"ċ":{"ha":738,"x_min":75,"x_max":663,"o":"m 319 889 q 306 902 319 889 q 293 952 293 915 q 319 1016 293 989 q 381 1042 345 1042 q 444 1016 418 1042 q 469 952 469 989 q 444 889 469 915 q 381 863 418 863 q 319 889 345 863 m 75 366 q 115 557 75 469 q 224 697 156 646 q 376 747 292 747 l 378 747 q 527 697 457 747 q 629 575 597 646 l 638 553 l 639 552 q 651 490 651 519 q 625 425 651 452 q 563 397 600 397 q 500 424 526 397 q 475 487 475 450 q 500 550 475 524 q 535 572 516 566 q 503 614 524 591 q 396 667 462 661 l 395 667 q 259 595 306 667 q 212 368 212 521 l 212 365 q 272 134 212 208 q 399 60 333 60 l 400 60 q 542 133 483 60 q 585 212 566 162 l 663 190 q 659 174 661 181 q 549 35 623 90 q 388 -17 481 -17 l 386 -17 q 224 34 292 -17 q 115 174 157 84 q 75 366 75 262 z "},"Č":{"ha":926,"x_min":88,"x_max":859,"o":"m 269 1308 l 283 1322 l 469 1200 l 652 1322 l 666 1308 l 538 1098 q 529 1086 536 1095 q 495 1064 513 1069 q 469 1059 479 1059 l 468 1059 l 466 1059 q 440 1064 455 1059 q 406 1086 418 1071 q 397 1098 398 1096 l 269 1308 m 118 298 q 88 505 88 393 q 118 719 88 616 q 199 891 149 825 q 321 1001 252 961 q 463 1042 391 1042 q 469 1042 466 1042 q 615 1006 548 1042 q 688 957 661 982 l 694 956 q 783 1042 762 962 l 783 650 q 701 867 748 789 q 642 930 677 903 q 510 970 586 970 q 349 912 422 970 q 263 735 295 850 q 232 515 232 622 q 232 506 232 511 q 254 313 232 400 q 374 106 304 164 q 523 58 432 58 q 555 60 538 58 q 667 103 605 64 q 745 178 702 124 q 789 267 772 212 l 859 240 q 799 136 833 181 q 677 26 747 66 q 501 -17 600 -17 q 498 -17 499 -17 q 323 24 394 -17 q 199 134 251 65 q 118 298 149 201 z "},"č":{"ha":738,"x_min":75,"x_max":663,"o":"m 178 1027 l 192 1042 l 378 920 l 562 1042 l 575 1027 l 448 817 q 438 806 446 814 q 404 783 422 789 q 378 779 388 779 l 377 779 l 375 779 q 349 783 364 779 q 315 806 328 790 q 306 817 307 815 l 178 1027 m 75 366 q 115 557 75 469 q 224 697 156 646 q 376 747 292 747 l 378 747 q 527 697 457 747 q 629 575 597 646 l 638 553 l 639 552 q 651 490 651 519 q 625 425 651 452 q 563 397 600 397 q 500 424 526 397 q 475 487 475 450 q 500 550 475 524 q 535 572 516 566 q 503 614 524 591 q 396 667 462 661 l 395 667 q 259 595 306 667 q 212 368 212 521 l 212 365 q 272 134 212 208 q 399 60 333 60 l 400 60 q 542 133 483 60 q 585 212 566 162 l 663 190 q 659 174 661 181 q 549 35 623 90 q 388 -17 481 -17 l 386 -17 q 224 34 292 -17 q 115 174 157 84 q 75 366 75 262 z "},"Ď":{"ha":1020,"x_min":41,"x_max":932,"o":"m 269 1308 l 283 1322 l 469 1200 l 652 1322 l 666 1308 l 538 1098 q 529 1086 536 1095 q 495 1064 513 1069 q 469 1059 479 1059 l 468 1059 l 466 1059 q 440 1064 455 1059 q 406 1086 418 1071 q 397 1098 398 1096 l 269 1308 m 372 962 q 323 931 339 950 q 304 869 305 911 l 304 156 q 313 111 304 126 q 346 78 326 90 q 481 53 396 53 q 486 53 484 53 q 643 125 564 53 q 749 292 713 201 q 783 495 783 379 q 783 513 783 503 q 756 724 783 642 q 639 905 712 843 q 482 970 574 960 q 445 972 465 972 q 372 962 408 972 m 41 100 q 119 115 52 101 q 161 132 147 121 q 170 156 170 139 l 170 869 q 159 895 170 884 q 125 911 144 908 q 41 924 54 923 l 274 1013 q 463 1042 356 1042 q 481 1042 471 1042 q 648 999 559 1042 q 800 883 732 958 q 895 718 857 819 q 932 505 932 616 q 894 297 932 393 q 800 136 857 201 q 650 26 742 70 q 467 -17 562 -17 q 258 22 361 -17 q 41 100 96 82 z "},"ď":{"ha":962,"x_min":75,"x_max":962,"o":"m 691 793 l 819 1003 q 828 1015 821 1006 q 871 1040 846 1034 q 891 1042 882 1042 q 943 1020 921 1042 q 962 970 962 1000 q 962 958 962 965 q 938 912 959 928 l 926 903 l 705 779 l 691 793 m 222 368 q 256 143 222 216 q 387 49 300 49 q 506 101 453 49 l 513 111 q 522 157 522 123 l 522 563 q 503 612 521 585 q 395 665 467 665 l 393 665 q 266 592 310 665 q 222 368 222 518 m 75 357 q 115 557 75 469 q 224 697 157 647 q 376 748 293 748 q 522 701 455 748 l 522 891 q 513 915 522 906 q 469 930 505 923 q 393 947 431 939 q 601 1024 436 966 q 656 1042 622 1031 l 656 157 q 665 133 657 140 q 707 116 676 123 q 785 101 762 102 q 578 24 744 82 q 381 -16 464 -16 q 376 -16 378 -16 q 224 35 296 -16 q 115 171 155 83 q 75 357 75 257 z "},"Đ":{"ha":1020,"x_min":4,"x_max":932,"o":"m 41 100 q 119 115 52 101 q 161 132 147 121 q 170 156 170 139 l 170 475 l 138 475 l 132 475 q 4 423 47 470 l 125 623 q 121 588 121 606 q 170 544 121 544 l 170 869 q 159 895 170 884 q 125 911 144 908 q 41 924 54 923 l 274 1013 q 463 1042 356 1042 l 481 1042 q 648 999 559 1042 q 800 883 732 958 q 895 718 857 819 q 932 505 932 616 q 894 297 932 394 q 800 136 857 201 q 650 26 741 70 q 467 -17 562 -17 q 258 22 361 -17 q 41 100 91 84 m 372 962 q 323 931 339 950 q 304 869 305 911 l 304 544 l 428 544 l 433 544 q 562 595 519 549 l 440 396 q 444 431 444 413 q 396 475 444 475 l 393 475 l 390 475 l 304 475 l 304 156 q 313 111 304 126 q 346 78 326 90 q 481 53 396 53 l 486 53 q 643 125 564 53 q 749 292 713 201 q 783 495 783 379 l 783 513 q 756 724 783 642 q 639 905 712 843 q 482 970 574 960 q 445 972 465 972 q 372 962 408 972 z "},"đ":{"ha":812,"x_min":75,"x_max":803,"o":"m 75 357 q 115 557 75 469 q 224 697 157 647 q 376 748 293 748 q 522 701 455 748 l 522 803 l 379 803 l 374 803 q 245 751 288 798 l 367 951 q 363 916 363 934 q 411 872 363 872 l 414 872 l 417 872 l 522 872 l 522 891 q 513 915 522 906 q 469 930 505 923 l 393 947 q 601 1024 435 965 q 656 1042 622 1031 l 656 872 l 669 872 l 675 872 q 803 924 760 877 l 682 724 q 686 759 686 741 q 656 801 686 793 l 656 157 q 665 133 657 140 q 707 116 676 123 q 785 101 762 102 q 578 24 744 82 q 381 -16 464 -16 l 376 -16 q 224 35 296 -16 q 115 171 155 83 q 75 357 75 257 m 222 368 q 256 143 222 216 q 387 49 300 49 q 506 101 453 49 l 513 111 q 522 157 522 123 l 522 563 q 503 612 521 585 q 395 665 467 665 l 393 665 q 266 592 310 665 q 222 368 222 518 z "},"Ē":{"ha":897,"x_min":41,"x_max":897,"o":"m 271 1322 l 666 1322 l 666 1202 l 271 1202 l 271 1322 m 41 0 q 168 95 125 16 l 170 100 l 170 924 l 168 930 q 41 1025 125 1008 l 682 1025 l 808 806 q 621 955 669 950 l 611 956 l 304 956 l 304 435 l 516 435 l 526 436 q 713 585 574 441 l 517 245 q 524 286 524 267 q 483 364 524 336 l 478 366 l 304 366 l 304 69 l 699 69 l 709 70 q 897 218 757 75 l 770 0 l 41 0 z "},"ē":{"ha":738,"x_min":75,"x_max":663,"o":"m 191 1025 l 587 1025 l 587 905 l 191 905 l 191 1025 m 75 366 q 115 557 75 467 q 224 696 155 645 q 376 747 293 747 q 524 701 454 747 q 615 607 575 673 q 647 504 644 559 q 539 307 646 384 q 324 242 448 242 q 227 248 323 242 q 273 134 244 178 q 399 61 321 61 l 400 61 q 542 133 484 61 q 585 213 566 162 l 663 190 q 659 175 661 179 q 549 35 602 71 q 388 -16 465 -16 l 386 -16 q 224 34 293 -16 q 115 174 156 84 q 75 366 75 263 m 519 505 q 479 625 519 581 q 381 669 444 664 l 380 669 q 260 597 305 669 q 218 458 227 541 q 214 354 214 410 q 216 310 214 335 q 340 309 278 309 q 385 312 372 309 q 480 369 454 329 q 519 505 519 435 z "},"Ĕ":{"ha":897,"x_min":41,"x_max":897,"o":"m 246 1243 l 323 1322 q 351 1299 347 1303 q 480 1257 404 1257 q 588 1298 543 1257 l 610 1320 l 701 1251 q 614 1182 662 1211 q 470 1141 547 1141 q 323 1184 393 1141 q 246 1243 277 1212 m 41 0 q 168 95 125 16 l 170 100 l 170 924 l 168 930 q 41 1025 125 1008 l 682 1025 l 808 806 q 621 955 669 950 l 611 956 l 304 956 l 304 435 l 516 435 l 526 436 q 713 585 574 441 l 517 245 q 524 286 524 267 q 483 364 524 336 l 478 366 l 304 366 l 304 69 l 699 69 l 709 70 q 897 218 757 75 l 770 0 l 41 0 z "},"ĕ":{"ha":738,"x_min":75,"x_max":663,"o":"m 152 962 l 229 1042 q 256 1018 252 1022 q 386 977 310 977 q 494 1017 448 977 l 516 1040 l 606 970 q 520 901 568 930 q 376 861 452 861 q 229 903 299 861 q 152 962 182 931 m 75 366 q 115 557 75 467 q 224 696 155 645 q 376 747 293 747 q 524 701 454 747 q 615 607 575 673 q 647 504 644 559 q 539 307 646 384 q 324 242 448 242 q 227 248 323 242 q 273 134 244 178 q 399 61 321 61 l 400 61 q 542 133 484 61 q 585 213 566 162 l 663 190 q 659 175 661 179 q 549 35 602 71 q 388 -16 465 -16 l 386 -16 q 224 34 293 -16 q 115 174 156 84 q 75 366 75 263 m 519 505 q 479 625 519 581 q 381 669 444 664 l 380 669 q 260 597 305 669 q 218 458 227 541 q 214 354 214 410 q 216 310 214 335 q 340 309 278 309 q 385 312 372 309 q 480 369 454 329 q 519 505 519 435 z "},"Ė":{"ha":897,"x_min":41,"x_max":897,"o":"m 406 1160 q 393 1173 406 1160 q 380 1223 380 1186 q 406 1287 380 1261 q 468 1313 431 1313 q 530 1287 505 1313 q 556 1223 556 1261 q 530 1160 556 1186 q 468 1134 505 1134 q 406 1160 431 1134 m 41 0 q 168 95 125 16 l 170 100 l 170 924 l 168 930 q 41 1025 125 1008 l 682 1025 l 808 806 q 621 955 669 950 l 611 956 l 304 956 l 304 435 l 516 435 l 526 436 q 713 585 574 441 l 517 245 q 524 286 524 267 q 483 364 524 336 l 478 366 l 304 366 l 304 69 l 699 69 l 709 70 q 897 218 757 75 l 770 0 l 41 0 z "},"ė":{"ha":738,"x_min":75,"x_max":663,"o":"m 319 889 q 306 902 319 889 q 293 952 293 915 q 319 1016 293 989 q 381 1042 345 1042 q 444 1016 418 1042 q 469 952 469 989 q 444 889 469 915 q 381 863 418 863 q 319 889 345 863 m 75 366 q 115 557 75 467 q 224 696 155 645 q 376 747 293 747 q 524 701 454 747 q 615 607 575 673 q 647 504 644 559 q 539 307 646 384 q 324 242 448 242 q 227 248 323 242 q 273 134 244 178 q 399 61 321 61 l 400 61 q 542 133 484 61 q 585 213 566 162 l 663 190 q 659 175 661 179 q 549 35 602 71 q 388 -16 465 -16 l 386 -16 q 224 34 293 -16 q 115 174 156 84 q 75 366 75 263 m 519 505 q 479 625 519 581 q 381 669 444 664 l 380 669 q 260 597 305 669 q 218 458 227 541 q 214 354 214 410 q 216 310 214 335 q 340 309 278 309 q 385 312 372 309 q 480 369 454 329 q 519 505 519 435 z "},"Ę":{"ha":897,"x_min":41,"x_max":897,"o":"m 41 0 q 168 95 125 16 l 170 100 l 170 924 l 168 930 q 41 1025 125 1008 l 682 1025 l 808 806 q 621 955 669 950 l 611 956 l 304 956 l 304 435 l 516 435 l 526 436 q 713 585 574 441 l 517 245 q 524 286 524 267 q 483 364 524 336 l 478 366 l 304 366 l 304 69 l 699 69 l 709 70 q 897 218 757 75 l 770 0 l 709 0 q 696 -35 701 -16 q 687 -93 687 -65 l 687 -102 l 688 -119 q 722 -113 706 -113 q 763 -124 745 -113 q 806 -182 795 -144 q 810 -206 810 -194 q 798 -250 810 -229 q 745 -291 781 -282 q 722 -294 734 -294 q 678 -283 701 -294 q 626 -226 643 -268 q 616 -197 620 -211 q 608 -149 608 -171 q 614 -87 608 -113 q 646 0 625 -35 l 41 0 z "},"ę":{"ha":738,"x_min":75,"x_max":663,"o":"m 519 505 q 479 625 519 581 q 381 669 444 664 l 380 669 q 260 597 305 669 q 218 458 227 541 q 214 354 214 410 q 216 310 214 335 q 340 309 278 309 q 385 312 372 309 q 480 369 454 329 q 519 505 519 435 m 75 366 q 115 557 75 467 q 224 696 155 645 q 376 747 293 747 q 524 701 454 747 q 615 607 575 673 q 647 504 644 559 q 539 307 646 384 q 324 242 448 242 q 227 248 323 242 q 273 134 244 178 q 399 61 321 61 l 400 61 q 542 133 484 61 q 585 213 566 162 l 663 190 q 659 175 661 178 q 551 37 602 73 q 525 -35 536 7 q 516 -93 516 -66 l 516 -102 l 517 -119 q 551 -113 535 -113 q 592 -124 574 -113 q 635 -182 625 -144 q 639 -206 639 -194 q 627 -250 639 -229 q 574 -291 610 -282 q 551 -294 563 -294 q 507 -283 530 -294 q 455 -226 472 -268 q 445 -197 449 -211 q 437 -149 437 -171 q 443 -87 437 -113 q 466 -3 453 -39 q 388 -16 426 -16 l 386 -16 q 224 34 293 -16 q 115 174 156 84 q 75 366 75 263 z "},"Ě":{"ha":897,"x_min":41,"x_max":897,"o":"m 269 1308 l 283 1322 l 469 1200 l 652 1322 l 666 1308 l 538 1098 q 529 1086 536 1095 q 495 1064 513 1069 q 469 1059 479 1059 l 468 1059 l 466 1059 q 440 1064 455 1059 q 406 1086 418 1071 q 397 1098 398 1096 l 269 1308 m 41 0 q 168 95 125 16 l 170 100 l 170 924 l 168 930 q 41 1025 125 1008 l 682 1025 l 808 806 q 621 955 669 950 l 611 956 l 304 956 l 304 435 l 516 435 l 526 436 q 713 585 574 441 l 517 245 q 524 286 524 267 q 483 364 524 336 l 478 366 l 304 366 l 304 69 l 699 69 l 709 70 q 897 218 757 75 l 770 0 l 41 0 z "},"ě":{"ha":738,"x_min":75,"x_max":663,"o":"m 178 1027 l 192 1042 l 378 920 l 562 1042 l 575 1027 l 448 817 q 438 806 446 814 q 404 783 422 789 q 378 779 388 779 l 377 779 l 375 779 q 349 783 364 779 q 315 806 328 790 q 306 817 307 815 l 178 1027 m 75 366 q 115 557 75 467 q 224 696 155 645 q 376 747 293 747 q 524 701 454 747 q 615 607 575 673 q 647 504 644 559 q 539 307 646 384 q 324 242 448 242 q 227 248 323 242 q 273 134 244 178 q 399 61 321 61 l 400 61 q 542 133 484 61 q 585 213 566 162 l 663 190 q 659 175 661 179 q 549 35 602 71 q 388 -16 465 -16 l 386 -16 q 224 34 293 -16 q 115 174 156 84 q 75 366 75 263 m 519 505 q 479 625 519 581 q 381 669 444 664 l 380 669 q 260 597 305 669 q 218 458 227 541 q 214 354 214 410 q 216 310 214 335 q 340 309 278 309 q 385 312 372 309 q 480 369 454 329 q 519 505 519 435 z "},"Ĝ":{"ha":916,"x_min":88,"x_max":848,"o":"m 276 1074 l 404 1284 q 413 1295 405 1286 q 447 1318 425 1311 q 473 1322 462 1322 l 475 1322 l 476 1322 q 502 1318 486 1322 q 536 1295 520 1312 q 545 1284 543 1287 l 673 1074 l 659 1059 l 476 1181 l 290 1059 l 276 1074 m 118 298 q 103 346 118 298 q 88 505 88 393 q 118 719 88 616 q 199 891 149 825 q 321 1001 252 961 q 463 1042 391 1042 q 469 1042 466 1042 q 615 1006 548 1042 q 688 957 661 982 l 694 956 q 783 1042 762 962 l 783 650 q 701 867 748 789 q 642 930 677 903 q 510 970 586 970 q 355 911 430 970 q 263 735 296 854 q 232 516 232 623 q 232 507 232 512 q 254 315 232 401 q 338 121 293 169 q 475 54 399 54 q 602 112 538 54 q 681 251 670 188 q 684 288 684 271 q 671 346 684 323 l 668 351 q 495 435 617 422 l 848 435 q 821 298 841 363 q 739 134 791 202 q 617 24 688 66 q 469 -17 547 -17 q 321 24 392 -17 q 199 134 251 65 q 118 298 148 203 z "},"ĝ":{"ha":812,"x_min":75,"x_max":785,"o":"m 178 793 l 306 1003 q 315 1015 307 1005 q 349 1037 328 1030 q 375 1042 364 1042 l 377 1042 l 378 1042 q 404 1037 388 1042 q 438 1015 422 1031 q 448 1003 446 1006 l 575 793 l 562 779 l 378 901 l 192 779 l 178 793 m 75 374 q 115 560 75 474 q 224 696 155 648 q 391 747 296 747 q 578 707 464 747 q 785 630 746 648 q 707 615 770 629 q 665 598 680 609 q 656 574 656 591 l 656 0 q 543 -225 648 -151 q 345 -294 445 -294 q 328 -294 336 -294 q 166 -228 221 -286 q 138 -163 138 -199 q 163 -100 138 -125 q 226 -75 189 -75 q 289 -104 262 -75 q 315 -170 315 -133 q 292 -224 315 -199 q 331 -232 307 -232 q 389 -224 355 -232 q 484 -167 454 -208 q 522 -14 522 -112 q 522 0 522 -7 l 522 31 q 376 -17 455 -17 q 224 34 293 -17 q 115 174 157 84 q 75 374 75 262 m 222 363 q 266 139 222 213 q 399 66 311 66 q 503 119 467 66 q 522 168 521 146 l 522 174 l 522 574 q 513 620 522 609 l 506 630 q 386 682 453 682 q 377 682 381 682 q 256 588 299 680 q 222 363 222 515 z "},"Ğ":{"ha":916,"x_min":88,"x_max":848,"o":"m 246 1243 l 323 1322 q 351 1299 347 1303 q 480 1257 404 1257 q 588 1298 543 1257 l 610 1320 l 701 1251 q 614 1182 662 1211 q 470 1141 547 1141 q 323 1184 393 1141 q 246 1243 277 1212 m 118 298 q 103 346 118 298 q 88 505 88 393 q 118 719 88 616 q 199 891 149 825 q 321 1001 252 961 q 463 1042 391 1042 q 469 1042 466 1042 q 615 1006 548 1042 q 688 957 661 982 l 694 956 q 783 1042 762 962 l 783 650 q 701 867 748 789 q 642 930 677 903 q 510 970 586 970 q 355 911 430 970 q 263 735 296 854 q 232 516 232 623 q 232 507 232 512 q 254 315 232 401 q 338 121 293 169 q 475 54 399 54 q 602 112 538 54 q 681 251 670 188 q 684 288 684 271 q 671 346 684 323 l 668 351 q 495 435 617 422 l 848 435 q 821 298 841 363 q 739 134 791 202 q 617 24 688 66 q 469 -17 547 -17 q 321 24 392 -17 q 199 134 251 65 q 118 298 148 203 z "},"ğ":{"ha":812,"x_min":75,"x_max":785,"o":"m 152 962 l 229 1042 q 256 1018 252 1022 q 386 977 310 977 q 494 1017 448 977 l 516 1040 l 606 970 q 520 901 568 930 q 376 861 452 861 q 229 903 299 861 q 152 962 182 931 m 75 374 q 115 560 75 474 q 224 696 155 648 q 391 747 296 747 q 578 707 464 747 q 785 630 746 648 q 707 615 770 629 q 665 598 680 609 q 656 574 656 591 l 656 0 q 543 -225 648 -151 q 345 -294 445 -294 q 328 -294 336 -294 q 166 -228 221 -286 q 138 -163 138 -199 q 163 -100 138 -125 q 226 -75 189 -75 q 289 -104 262 -75 q 315 -170 315 -133 q 292 -224 315 -199 q 331 -232 307 -232 q 389 -224 355 -232 q 484 -167 454 -208 q 522 -14 522 -112 q 522 0 522 -7 l 522 31 q 376 -17 455 -17 q 224 34 293 -17 q 115 174 157 84 q 75 374 75 262 m 222 363 q 266 139 222 213 q 399 66 311 66 q 503 119 467 66 q 522 168 521 146 l 522 174 l 522 574 q 513 620 522 609 l 506 630 q 386 682 453 682 q 377 682 381 682 q 256 588 299 680 q 222 363 222 515 z "},"Ġ":{"ha":916,"x_min":88,"x_max":848,"o":"m 406 1160 q 393 1173 406 1160 q 380 1223 380 1186 q 406 1287 380 1261 q 468 1313 431 1313 q 530 1287 505 1313 q 556 1223 556 1261 q 530 1160 556 1186 q 468 1134 505 1134 q 406 1160 431 1134 m 118 298 q 103 346 118 298 q 88 505 88 393 q 118 719 88 616 q 199 891 149 825 q 321 1001 252 961 q 463 1042 391 1042 q 469 1042 466 1042 q 615 1006 548 1042 q 688 957 661 982 l 694 956 q 783 1042 762 962 l 783 650 q 701 867 748 789 q 642 930 677 903 q 510 970 586 970 q 355 911 430 970 q 263 735 296 854 q 232 516 232 623 q 232 507 232 512 q 254 315 232 401 q 338 121 293 169 q 475 54 399 54 q 602 112 538 54 q 681 251 670 188 q 684 288 684 271 q 671 346 684 323 l 668 351 q 495 435 617 422 l 848 435 q 821 298 841 363 q 739 134 791 202 q 617 24 688 66 q 469 -17 547 -17 q 321 24 392 -17 q 199 134 251 65 q 118 298 148 203 z "},"ġ":{"ha":812,"x_min":75,"x_max":785,"o":"m 331 889 q 318 902 331 889 q 305 952 305 915 q 331 1016 305 989 q 393 1042 357 1042 q 456 1016 430 1042 q 481 952 481 989 q 456 889 481 915 q 393 863 430 863 q 331 889 357 863 m 75 374 q 115 560 75 474 q 224 696 155 648 q 391 747 296 747 q 578 707 464 747 q 785 630 746 648 q 707 615 770 629 q 665 598 680 609 q 656 574 656 591 l 656 0 q 543 -225 648 -151 q 345 -294 445 -294 q 328 -294 336 -294 q 166 -228 221 -286 q 138 -163 138 -199 q 163 -100 138 -125 q 226 -75 189 -75 q 289 -104 262 -75 q 315 -170 315 -133 q 292 -224 315 -199 q 331 -232 307 -232 q 389 -224 355 -232 q 484 -167 454 -208 q 522 -14 522 -112 q 522 0 522 -7 l 522 31 q 376 -17 455 -17 q 224 34 293 -17 q 115 174 157 84 q 75 374 75 262 m 222 363 q 266 139 222 213 q 399 66 311 66 q 503 119 467 66 q 522 168 521 146 l 522 174 l 522 574 q 513 620 522 609 l 506 630 q 386 682 453 682 q 377 682 381 682 q 256 588 299 680 q 222 363 222 515 z "},"Ģ":{"ha":916,"x_min":88,"x_max":848,"o":"m 483 -45 l 355 -255 q 346 -267 353 -258 q 302 -292 328 -286 q 283 -294 292 -294 q 231 -272 253 -294 q 212 -222 212 -252 q 212 -210 212 -217 q 236 -164 215 -180 l 248 -155 l 469 -31 l 483 -45 m 118 298 q 103 346 118 298 q 88 505 88 393 q 118 719 88 616 q 199 891 149 825 q 321 1001 252 961 q 463 1042 391 1042 q 469 1042 466 1042 q 615 1006 548 1042 q 688 957 661 982 l 694 956 q 783 1042 762 962 l 783 650 q 701 867 748 789 q 642 930 677 903 q 510 970 586 970 q 355 911 430 970 q 263 735 296 854 q 232 516 232 623 q 232 507 232 512 q 254 315 232 401 q 338 121 293 169 q 475 54 399 54 q 602 112 538 54 q 681 251 670 188 q 684 288 684 271 q 671 346 684 323 l 668 351 q 495 435 617 422 l 848 435 q 821 298 841 363 q 739 134 791 202 q 617 24 688 66 q 469 -17 547 -17 q 321 24 392 -17 q 199 134 251 65 q 118 298 148 203 z "},"ģ":{"ha":812,"x_min":75,"x_max":785,"o":"m 365 793 l 492 1003 q 502 1015 494 1006 q 545 1040 519 1034 q 565 1042 555 1042 q 616 1020 595 1042 q 636 970 636 1000 q 635 958 636 965 q 612 912 633 928 l 600 903 l 378 779 l 365 793 m 75 374 q 115 560 75 474 q 224 696 155 648 q 391 747 296 747 q 578 707 464 747 q 785 630 746 648 q 707 615 770 629 q 665 598 680 609 q 656 574 656 591 l 656 0 q 543 -225 648 -151 q 345 -294 445 -294 q 328 -294 336 -294 q 166 -228 221 -286 q 138 -163 138 -199 q 163 -100 138 -125 q 226 -75 189 -75 q 289 -104 262 -75 q 315 -170 315 -133 q 292 -224 315 -199 q 331 -232 307 -232 q 389 -224 355 -232 q 484 -167 454 -208 q 522 -14 522 -112 q 522 0 522 -7 l 522 31 q 376 -17 455 -17 q 224 34 293 -17 q 115 174 157 84 q 75 374 75 262 m 222 363 q 266 139 222 213 q 399 66 311 66 q 503 119 467 66 q 522 168 521 146 l 522 174 l 522 574 q 513 620 522 609 l 506 630 q 386 682 453 682 q 377 682 381 682 q 256 588 299 680 q 222 363 222 515 z "},"Ĥ":{"ha":1049,"x_min":41,"x_max":1008,"o":"m 334 1074 l 461 1284 q 471 1295 463 1286 q 505 1318 483 1311 q 530 1322 519 1322 l 532 1322 l 534 1322 q 559 1318 543 1322 q 593 1295 578 1312 q 603 1284 601 1287 l 730 1074 l 717 1059 l 534 1181 l 347 1059 l 334 1074 m 41 0 q 168 95 125 16 l 170 100 l 170 924 l 168 930 q 41 1025 125 1008 l 433 1025 q 305 930 342 1006 l 304 924 l 304 435 l 745 435 l 745 924 l 744 930 q 616 1025 701 1008 l 1008 1025 q 881 930 918 1006 l 880 924 l 880 100 l 881 94 q 1008 0 918 19 l 616 0 q 744 95 701 16 l 745 100 l 745 366 l 304 366 l 304 100 l 305 94 q 433 0 342 19 l 41 0 z "},"ĥ":{"ha":873,"x_min":27,"x_max":873,"o":"m 38 1074 l 165 1284 q 175 1295 168 1288 q 209 1318 191 1312 q 235 1322 224 1322 l 237 1322 l 239 1322 q 264 1318 248 1322 q 298 1295 284 1312 q 308 1284 306 1286 l 435 1074 l 422 1059 l 239 1181 l 52 1059 l 38 1074 m 27 0 q 155 95 111 16 l 156 100 l 156 891 q 147 915 156 908 q 106 932 133 926 q 27 947 46 945 q 235 1024 50 957 q 290 1042 263 1034 l 290 695 l 292 696 q 444 747 360 747 q 595 696 526 747 q 704 557 663 646 q 745 365 745 467 l 745 361 l 745 134 q 753 110 745 117 q 795 93 767 99 q 873 78 857 79 q 666 1 836 61 q 610 -17 637 -9 l 610 362 l 610 365 q 551 594 610 519 q 418 665 496 665 q 415 665 416 665 q 290 602 329 665 l 290 100 l 292 94 q 419 0 328 19 l 27 0 z "},"Ħ":{"ha":1049,"x_min":-22,"x_max":1072,"o":"m 41 0 q 168 95 125 16 l 170 100 l 170 667 l 112 667 l 106 667 q -22 616 21 663 l 100 815 q 96 781 96 798 q 144 736 96 736 l 147 736 l 150 736 l 170 736 l 170 924 l 168 930 q 41 1025 125 1008 l 433 1025 q 305 930 342 1006 l 304 924 l 304 736 l 745 736 l 745 924 l 744 930 q 616 1025 701 1008 l 1008 1025 q 881 930 918 1006 l 880 924 l 880 736 l 939 736 l 944 736 q 1072 788 1029 741 l 951 589 q 955 623 955 606 q 907 667 955 667 l 903 667 l 901 667 l 880 667 l 880 100 l 881 94 q 1008 0 918 19 l 616 0 q 744 95 701 16 l 745 100 l 745 366 l 304 366 l 304 100 l 305 94 q 433 0 342 19 l 41 0 m 745 667 l 304 667 l 304 435 l 745 435 l 745 667 z "},"ħ":{"ha":873,"x_min":27,"x_max":873,"o":"m 27 0 q 155 95 111 16 l 156 100 l 156 891 q 147 915 156 908 q 106 932 133 926 q 27 947 45 945 q 235 1024 64 963 q 290 1042 263 1034 l 290 921 l 494 921 l 499 921 q 627 972 585 926 l 506 773 q 510 808 510 790 q 462 852 510 852 l 458 852 l 456 852 l 290 852 l 290 695 l 292 696 q 444 747 360 747 q 595 696 526 747 q 704 557 663 646 q 745 365 745 467 l 745 361 l 745 134 q 753 110 745 117 q 795 93 767 99 q 873 78 857 79 q 666 1 837 62 q 610 -17 637 -9 l 610 362 l 610 365 q 551 594 610 519 q 418 665 496 665 l 415 665 q 290 602 329 665 l 290 100 l 292 94 q 419 0 328 19 l 27 0 z "},"Ĩ":{"ha":473,"x_min":20,"x_max":453,"o":"m 41 0 q 168 95 125 16 l 170 100 l 170 924 l 168 930 q 41 1025 125 1008 l 433 1025 q 305 930 342 1006 l 304 924 l 304 100 l 305 94 q 433 0 342 19 l 41 0 m 20 1153 q 146 1322 60 1322 q 166 1320 155 1322 q 254 1272 192 1314 l 313 1230 q 353 1215 331 1215 q 355 1215 354 1215 q 453 1290 396 1215 q 330 1107 416 1116 q 313 1109 321 1107 q 224 1159 286 1116 l 166 1198 q 124 1213 147 1212 l 123 1213 q 20 1153 80 1213 z "},"ĩ":{"ha":446,"x_min":7,"x_max":439,"o":"m 7 872 q 132 1042 47 1042 q 153 1039 141 1042 q 241 991 178 1033 l 300 949 q 339 935 317 935 q 341 935 340 935 q 439 1009 382 935 q 316 827 403 835 q 300 828 308 826 q 211 878 273 835 l 153 918 q 111 932 134 931 l 110 932 q 7 872 66 932 m 27 652 q 235 730 76 674 q 290 747 260 739 l 290 100 l 292 94 q 419 0 328 19 l 27 0 q 155 95 111 16 l 156 100 l 156 597 q 147 621 156 614 q 102 638 133 632 q 27 652 35 652 z "},"Ī":{"ha":473,"x_min":39,"x_max":434,"o":"m 41 0 q 168 95 125 16 l 170 100 l 170 924 l 168 930 q 41 1025 125 1008 l 433 1025 q 305 930 342 1006 l 304 924 l 304 100 l 305 94 q 433 0 342 19 l 41 0 m 39 1322 l 434 1322 l 434 1202 l 39 1202 l 39 1322 z "},"ī":{"ha":446,"x_min":26,"x_max":420,"o":"m 27 652 q 235 730 76 674 q 290 747 260 739 l 290 100 l 292 94 q 419 0 328 19 l 27 0 q 155 95 111 16 l 156 100 l 156 597 q 147 621 156 614 q 102 638 133 632 q 27 652 35 652 m 26 1025 l 420 1025 l 420 905 l 26 905 l 26 1025 z "},"Ĭ":{"ha":473,"x_min":9,"x_max":464,"o":"m 9 1243 l 87 1322 q 114 1299 110 1303 q 243 1257 168 1257 q 351 1298 306 1257 l 374 1320 l 464 1251 q 378 1182 425 1211 q 233 1141 310 1141 q 86 1184 157 1141 q 9 1243 40 1212 m 41 0 q 168 95 125 16 l 170 100 l 170 924 l 168 930 q 41 1025 125 1008 l 433 1025 q 305 930 342 1006 l 304 924 l 304 100 l 305 94 q 433 0 342 19 l 41 0 z "},"ĭ":{"ha":446,"x_min":-4,"x_max":450,"o":"m -4 962 l 73 1042 q 100 1018 96 1022 q 230 977 154 977 q 338 1017 292 977 l 360 1040 l 450 970 q 364 901 412 930 q 220 861 296 861 q 73 903 143 861 q -4 962 26 931 m 27 652 q 235 730 76 674 q 290 747 260 739 l 290 100 l 292 94 q 419 0 328 19 l 27 0 q 155 95 111 16 l 156 100 l 156 597 q 147 621 156 614 q 102 638 133 632 q 27 652 35 652 z "},"Į":{"ha":473,"x_min":41,"x_max":433,"o":"m 41 0 q 168 95 125 16 l 170 100 l 170 924 l 168 930 q 41 1025 125 1008 l 433 1025 q 305 930 342 1006 l 304 924 l 304 100 l 305 94 q 433 0 342 19 l 236 0 q 223 -35 229 -16 q 214 -93 214 -65 l 214 -102 l 215 -119 q 250 -113 233 -113 q 290 -124 272 -113 q 334 -182 323 -144 q 337 -206 337 -194 q 326 -250 337 -229 q 272 -291 308 -282 q 250 -294 261 -294 q 205 -283 229 -294 q 153 -226 170 -268 q 143 -197 147 -211 q 136 -149 136 -171 q 141 -87 136 -113 q 174 0 153 -35 l 41 0 z "},"į":{"ha":446,"x_min":27,"x_max":419,"o":"m 161 889 q 148 902 161 889 q 135 952 135 915 q 161 1016 135 989 q 223 1042 186 1042 q 286 1016 260 1042 q 311 952 311 989 q 286 889 311 915 q 223 863 260 863 q 161 889 186 863 m 27 652 q 235 730 75 673 q 290 747 260 739 l 290 100 l 292 94 q 419 0 328 19 l 236 0 q 223 -35 229 -16 q 214 -93 214 -65 l 214 -102 l 215 -119 q 250 -113 233 -113 q 290 -124 272 -113 q 334 -182 323 -144 q 337 -206 337 -194 q 326 -250 337 -229 q 272 -291 308 -282 q 250 -294 261 -294 q 205 -283 229 -294 q 153 -226 170 -268 q 143 -197 147 -211 q 136 -149 136 -171 q 141 -87 136 -113 q 174 0 153 -35 l 27 0 q 155 95 111 16 l 156 100 l 156 597 q 147 621 156 614 q 102 638 133 632 q 27 652 35 652 z "},"İ":{"ha":473,"x_min":41,"x_max":433,"o":"m 183 1160 q 170 1173 183 1160 q 157 1223 157 1186 q 183 1287 157 1261 q 245 1313 209 1313 q 308 1287 282 1313 q 334 1223 334 1261 q 308 1160 334 1186 q 245 1134 282 1134 q 183 1160 209 1134 m 41 0 q 168 95 125 16 l 170 100 l 170 924 l 168 930 q 41 1025 125 1008 l 433 1025 q 305 930 342 1006 l 304 924 l 304 100 l 305 94 q 433 0 342 19 l 41 0 z "},"ı":{"ha":446,"x_min":27,"x_max":419,"o":"m 27 652 q 235 730 76 674 q 290 747 260 739 l 290 100 l 292 94 q 419 0 328 19 l 27 0 q 155 95 111 16 l 156 100 l 156 597 q 147 621 156 614 q 102 638 133 632 q 27 652 35 652 z "},"Ĳ":{"ha":944,"x_min":41,"x_max":903,"o":"m 511 -212 q 640 93 640 -74 q 640 95 640 94 l 640 100 l 640 924 l 639 930 q 511 1025 595 1008 l 903 1025 q 776 930 812 1006 l 774 924 l 774 100 l 774 95 q 516 -211 774 -132 l 511 -212 m 41 0 q 168 95 125 16 l 170 100 l 170 924 l 168 930 q 41 1025 125 1008 l 433 1025 q 305 930 342 1006 l 304 924 l 304 100 l 305 94 q 433 0 342 19 l 41 0 z "},"ĳ":{"ha":897,"x_min":27,"x_max":762,"o":"m 611 889 q 598 902 611 889 q 585 952 585 915 q 611 1016 585 989 q 673 1042 637 1042 q 736 1016 710 1042 q 762 952 762 989 q 736 889 762 915 q 673 863 710 863 q 611 889 637 863 m 477 652 q 685 730 526 674 q 741 747 710 739 l 741 18 l 741 13 q 482 -293 741 -214 l 477 -294 q 606 13 606 -156 l 606 18 l 606 597 q 597 621 606 614 q 554 637 584 632 q 477 652 483 652 m 27 652 q 235 730 76 674 q 290 747 260 739 l 290 100 l 292 94 q 419 0 328 19 l 27 0 q 155 95 111 16 l 156 100 l 156 597 q 147 621 156 614 q 102 638 133 632 q 27 652 35 652 m 161 889 q 148 902 161 889 q 135 952 135 915 q 161 1016 135 989 q 223 1042 186 1042 q 286 1016 260 1042 q 311 952 311 989 q 286 889 311 915 q 223 863 260 863 q 161 889 186 863 z "},"Ĵ":{"ha":473,"x_min":38,"x_max":435,"o":"m 38 1074 l 165 1284 q 175 1295 168 1288 q 209 1318 191 1312 q 235 1322 224 1322 l 237 1322 l 239 1322 q 264 1318 248 1322 q 298 1295 284 1312 q 308 1284 306 1286 l 435 1074 l 422 1059 l 239 1181 l 52 1059 l 38 1074 m 41 -212 q 170 93 170 -74 q 170 95 170 94 l 170 100 l 170 924 l 168 930 q 41 1025 125 1008 l 433 1025 q 305 930 342 1006 l 304 924 l 304 100 l 304 95 q 45 -211 304 -132 l 41 -212 z "},"ĵ":{"ha":447,"x_min":26,"x_max":423,"o":"m 26 793 l 154 1003 q 163 1015 155 1005 q 197 1037 176 1030 q 223 1042 212 1042 l 225 1042 l 227 1042 q 252 1037 236 1042 q 286 1015 271 1031 q 296 1003 294 1006 l 423 793 l 410 779 l 227 901 l 40 779 l 26 793 m 27 652 q 235 730 76 674 q 290 747 260 739 l 290 18 l 290 13 q 32 -293 290 -214 l 27 -294 q 156 13 156 -156 l 156 18 l 156 597 q 147 621 156 614 q 104 637 134 632 q 27 652 33 652 z "},"Ķ":{"ha":1015,"x_min":41,"x_max":1015,"o":"m 587 -45 l 459 -255 q 450 -267 457 -258 q 406 -292 432 -286 q 387 -294 396 -294 q 335 -272 357 -294 q 315 -222 315 -252 q 316 -210 315 -217 q 340 -164 319 -180 l 351 -155 l 573 -31 l 587 -45 m 41 0 q 168 95 125 16 l 170 100 l 170 924 l 168 930 q 41 1025 125 1008 l 433 1025 q 305 930 342 1006 l 304 924 l 304 399 l 741 945 l 747 952 q 749 964 749 957 q 632 1025 749 990 l 951 1025 q 827 930 903 1010 l 823 924 l 426 434 q 494 448 463 448 q 496 448 495 448 q 685 363 614 448 q 807 124 720 321 l 821 94 q 892 38 850 38 q 895 38 893 38 q 962 64 932 38 q 1015 107 996 94 q 958 -28 1006 22 q 847 -83 905 -83 q 846 -83 846 -83 q 734 -20 784 -83 q 693 51 724 -7 l 596 256 q 499 366 550 347 q 390 390 438 389 l 387 387 l 304 283 l 304 100 l 305 94 q 433 0 342 19 l 41 0 z "},"ķ":{"ha":863,"x_min":27,"x_max":890,"o":"m 483 -45 l 355 -255 q 346 -267 353 -258 q 302 -292 328 -286 q 283 -294 292 -294 q 231 -272 253 -294 q 212 -222 212 -252 q 212 -210 212 -217 q 236 -164 215 -180 l 248 -155 l 469 -31 l 483 -45 m 27 0 q 155 95 111 16 l 156 100 l 156 891 q 147 915 156 908 q 103 932 133 926 q 27 947 33 946 q 235 1024 33 949 q 290 1042 253 1031 l 290 315 l 566 650 l 572 658 q 574 669 574 663 q 457 730 574 696 l 777 730 q 652 636 728 716 l 648 630 l 411 346 l 514 346 l 748 90 l 750 87 l 753 84 q 890 0 831 18 l 433 0 q 574 74 574 35 q 565 94 574 84 l 559 100 l 372 300 l 290 201 l 290 100 l 292 94 q 419 0 328 19 l 27 0 z "},"ĸ":{"ha":863,"x_min":27,"x_max":890,"o":"m 27 0 q 155 95 111 16 l 156 100 l 156 597 q 147 621 156 614 q 103 637 133 632 q 27 652 33 652 q 235 730 33 655 q 290 747 253 736 l 290 315 l 566 650 l 572 658 q 574 669 574 663 q 457 730 574 696 l 777 730 q 652 636 728 716 l 648 630 l 411 346 l 514 346 l 748 90 l 750 87 l 753 84 q 890 0 831 18 l 433 0 q 574 74 574 35 q 565 94 574 84 l 559 100 l 372 300 l 290 201 l 290 100 l 292 94 q 419 0 328 19 l 27 0 z "},"Ĺ":{"ha":787,"x_min":41,"x_max":842,"o":"m 223 1074 l 351 1284 q 360 1295 353 1287 q 404 1320 378 1315 q 423 1322 414 1322 q 475 1301 453 1322 q 494 1251 494 1281 q 494 1239 494 1246 q 470 1193 491 1208 l 458 1183 l 237 1059 l 223 1074 m 41 0 q 168 95 125 16 l 170 100 l 170 924 l 168 930 q 41 1025 125 1008 l 433 1025 q 305 930 342 1006 l 304 924 l 304 69 l 644 69 l 654 70 q 842 218 702 75 l 715 0 l 41 0 z "},"ĺ":{"ha":446,"x_min":27,"x_max":494,"o":"m 223 1074 l 351 1284 q 360 1295 353 1287 q 404 1320 378 1315 q 423 1322 414 1322 q 475 1301 453 1322 q 494 1251 494 1281 q 494 1239 494 1246 q 470 1193 491 1208 l 458 1183 l 237 1059 l 223 1074 m 27 947 q 235 1024 62 962 q 290 1042 260 1034 l 290 100 l 292 94 q 419 0 328 19 l 27 0 q 155 95 111 16 l 156 100 l 156 891 q 147 915 156 908 q 104 932 134 926 q 27 947 33 946 z "},"Ļ":{"ha":787,"x_min":41,"x_max":842,"o":"m 483 -45 l 355 -255 q 346 -267 353 -258 q 302 -292 328 -286 q 283 -294 292 -294 q 231 -272 253 -294 q 212 -222 212 -252 q 212 -210 212 -217 q 236 -164 215 -180 l 248 -155 l 469 -31 l 483 -45 m 41 0 q 168 95 125 16 l 170 100 l 170 924 l 168 930 q 41 1025 125 1008 l 433 1025 q 305 930 342 1006 l 304 924 l 304 69 l 644 69 l 654 70 q 842 218 702 75 l 715 0 l 41 0 z "},"ļ":{"ha":446,"x_min":12,"x_max":419,"o":"m 283 -45 l 156 -255 q 146 -267 154 -258 q 103 -292 129 -286 q 83 -294 93 -294 q 32 -272 54 -294 q 12 -222 12 -252 q 13 -210 12 -217 q 37 -164 16 -180 l 48 -155 l 270 -31 l 283 -45 m 27 947 q 235 1024 62 962 q 290 1042 260 1034 l 290 100 l 292 94 q 419 0 328 19 l 27 0 q 155 95 111 16 l 156 100 l 156 891 q 147 915 156 908 q 104 932 134 926 q 27 947 33 946 z "},"Ľ":{"ha":787,"x_min":41,"x_max":842,"o":"m 365 793 l 492 1003 q 502 1015 494 1006 q 545 1040 519 1034 q 565 1042 555 1042 q 616 1020 595 1042 q 636 970 636 1000 q 635 958 636 965 q 612 912 633 928 l 600 903 l 378 779 l 365 793 m 41 0 q 168 95 125 16 l 170 100 l 170 924 l 168 930 q 41 1025 125 1008 l 433 1025 q 305 930 342 1006 l 304 924 l 304 69 l 644 69 l 654 70 q 842 218 702 75 l 715 0 l 41 0 z "},"ľ":{"ha":636,"x_min":27,"x_max":636,"o":"m 365 793 l 492 1003 q 502 1015 494 1006 q 545 1040 519 1034 q 565 1042 555 1042 q 616 1020 595 1042 q 636 970 636 1000 q 635 958 636 965 q 612 912 633 928 l 600 903 l 378 779 l 365 793 m 27 947 q 235 1024 62 962 q 290 1042 260 1034 l 290 100 l 292 94 q 419 0 328 19 l 27 0 q 155 95 111 16 l 156 100 l 156 891 q 147 915 156 908 q 104 932 134 926 q 27 947 33 946 z "},"Ŀ":{"ha":787,"x_min":41,"x_max":842,"o":"m 423 594 q 410 607 423 594 q 397 658 397 621 q 423 721 397 695 q 486 747 449 747 q 548 721 522 747 q 574 658 574 695 q 548 594 574 621 q 486 568 522 568 q 423 594 449 568 m 41 0 q 168 95 125 16 l 170 100 l 170 924 l 168 930 q 41 1025 125 1008 l 433 1025 q 305 930 342 1006 l 304 924 l 304 69 l 644 69 l 654 70 q 842 218 702 75 l 715 0 l 41 0 z "},"ŀ":{"ha":574,"x_min":27,"x_max":574,"o":"m 423 594 q 410 607 423 594 q 397 658 397 621 q 423 721 397 695 q 486 747 449 747 q 548 721 522 747 q 574 658 574 695 q 548 594 574 621 q 486 568 522 568 q 423 594 449 568 m 27 947 q 235 1024 62 962 q 290 1042 260 1034 l 290 100 l 292 94 q 419 0 328 19 l 27 0 q 155 95 111 16 l 156 100 l 156 891 q 147 915 156 908 q 104 932 134 926 q 27 947 33 946 z "},"Ł":{"ha":787,"x_min":41,"x_max":842,"o":"m 41 0 q 168 95 125 16 l 170 100 l 170 370 l 161 362 l 158 359 q 104 237 104 298 q 104 231 104 234 l 49 458 q 70 431 56 446 q 100 416 85 416 q 135 434 117 416 l 138 436 l 140 438 l 170 468 l 170 924 l 168 930 q 41 1025 125 1008 l 433 1025 q 305 930 342 1006 l 304 924 l 304 602 l 318 616 l 322 621 q 376 741 376 681 q 376 747 376 743 l 431 521 q 410 548 422 536 q 379 563 395 563 q 345 545 362 563 l 342 543 l 340 541 l 304 505 l 304 69 l 644 69 l 654 70 q 842 218 702 75 l 715 0 l 41 0 z "},"ł":{"ha":446,"x_min":27,"x_max":419,"o":"m 27 0 q 155 95 111 16 l 156 100 l 156 372 l 146 362 l 142 359 q 88 237 88 297 q 88 231 88 234 l 33 458 q 55 431 43 441 q 85 416 70 416 q 120 434 102 416 l 123 436 l 124 438 l 156 470 l 156 891 q 147 915 156 908 q 104 932 134 926 q 27 947 33 946 q 235 1024 52 958 q 290 1042 262 1034 l 290 604 l 302 616 l 307 621 q 361 742 361 682 q 361 747 361 745 l 416 521 q 394 548 408 534 q 363 563 379 563 q 329 545 347 563 l 327 543 l 325 541 l 290 506 l 290 100 l 292 94 q 419 0 328 19 l 27 0 z "},"Ń":{"ha":1051,"x_min":41,"x_max":1010,"o":"m 456 1074 l 584 1284 q 593 1295 586 1287 q 637 1320 611 1315 q 656 1322 647 1322 q 708 1301 686 1322 q 728 1251 728 1281 q 727 1239 728 1246 q 703 1193 724 1208 l 692 1183 l 470 1059 l 456 1074 m 41 0 q 168 95 125 16 l 170 100 l 170 1052 l 806 298 l 806 924 l 804 930 q 677 1025 761 1008 l 1010 1025 q 883 930 920 1006 l 882 924 l 882 -27 l 245 733 l 245 100 l 247 94 q 374 0 283 19 l 41 0 z "},"ń":{"ha":873,"x_min":27,"x_max":873,"o":"m 365 793 l 492 1003 q 502 1015 494 1006 q 545 1040 519 1034 q 565 1042 555 1042 q 616 1020 595 1042 q 636 970 636 1000 q 635 958 636 965 q 612 912 633 928 l 600 903 l 378 779 l 365 793 m 27 0 q 155 95 111 16 l 156 100 l 156 597 q 147 621 156 614 q 106 637 134 631 q 27 652 44 651 q 235 730 50 663 q 290 747 263 740 l 290 695 l 292 696 q 444 747 360 747 q 595 696 526 747 q 704 557 663 646 q 745 365 745 467 l 745 361 l 745 134 q 753 110 745 117 q 795 93 767 99 q 873 78 857 79 q 666 1 836 61 q 610 -17 637 -9 l 610 362 l 610 365 q 551 594 610 519 q 418 665 496 665 q 415 665 416 665 q 290 602 329 665 l 290 100 l 292 94 q 419 0 328 19 l 27 0 z "},"Ņ":{"ha":1051,"x_min":41,"x_max":1010,"o":"m 597 -45 l 469 -255 q 460 -267 467 -258 q 416 -292 442 -286 q 397 -294 406 -294 q 345 -272 367 -294 q 326 -222 326 -252 q 326 -210 326 -217 q 350 -164 329 -180 l 361 -155 l 583 -31 l 597 -45 m 41 0 q 168 95 125 16 l 170 100 l 170 1052 l 806 298 l 806 924 l 804 930 q 677 1025 761 1008 l 1010 1025 q 883 930 920 1006 l 882 924 l 882 -27 l 245 733 l 245 100 l 247 94 q 374 0 283 19 l 41 0 z "},"ņ":{"ha":873,"x_min":27,"x_max":873,"o":"m 483 -45 l 355 -255 q 346 -267 353 -258 q 302 -292 328 -286 q 283 -294 292 -294 q 231 -272 253 -294 q 212 -222 212 -252 q 212 -210 212 -217 q 236 -164 215 -180 l 248 -155 l 469 -31 l 483 -45 m 27 0 q 155 95 111 16 l 156 100 l 156 597 q 147 621 156 614 q 106 637 134 631 q 27 652 44 651 q 235 730 50 663 q 290 747 263 740 l 290 695 l 292 696 q 444 747 360 747 q 595 696 526 747 q 704 557 663 646 q 745 365 745 467 l 745 361 l 745 134 q 753 110 745 117 q 795 93 767 99 q 873 78 857 79 q 666 1 836 61 q 610 -17 637 -9 l 610 362 l 610 365 q 551 594 610 519 q 418 665 496 665 q 415 665 416 665 q 290 602 329 665 l 290 100 l 292 94 q 419 0 328 19 l 27 0 z "},"Ň":{"ha":1051,"x_min":41,"x_max":1010,"o":"m 324 1308 l 338 1322 l 524 1200 l 707 1322 l 721 1308 l 593 1098 q 584 1086 591 1095 q 550 1064 568 1069 q 524 1059 534 1059 l 523 1059 l 521 1059 q 495 1064 510 1059 q 461 1086 473 1071 q 452 1098 453 1096 l 324 1308 m 41 0 q 168 95 125 16 l 170 100 l 170 1052 l 806 298 l 806 924 l 804 930 q 677 1025 761 1008 l 1010 1025 q 883 930 920 1006 l 882 924 l 882 -27 l 245 733 l 245 100 l 247 94 q 374 0 283 19 l 41 0 z "},"ň":{"ha":873,"x_min":27,"x_max":873,"o":"m 248 1027 l 261 1042 l 448 920 l 631 1042 l 644 1027 l 517 817 q 507 806 515 814 q 473 783 492 789 q 448 779 457 779 l 446 779 l 444 779 q 418 783 433 779 q 385 806 397 790 q 375 817 376 815 l 248 1027 m 27 0 q 155 95 111 16 l 156 100 l 156 597 q 147 621 156 614 q 106 637 134 631 q 27 652 44 651 q 235 730 50 663 q 290 747 263 740 l 290 695 l 292 696 q 444 747 360 747 q 595 696 526 747 q 704 557 663 646 q 745 365 745 467 l 745 361 l 745 134 q 753 110 745 117 q 795 93 767 99 q 873 78 857 79 q 666 1 836 61 q 610 -17 637 -9 l 610 362 l 610 365 q 551 594 610 519 q 418 665 496 665 q 415 665 416 665 q 290 602 329 665 l 290 100 l 292 94 q 419 0 328 19 l 27 0 z "},"ŉ":{"ha":1015,"x_min":0,"x_max":1015,"o":"m 0 679 l 127 889 q 137 901 130 892 q 180 926 155 920 q 200 928 191 928 q 252 906 230 928 q 271 857 271 886 q 271 844 271 851 q 247 798 268 814 l 235 789 l 14 665 l 0 679 m 169 0 q 296 95 253 16 l 298 100 l 298 597 q 289 621 298 614 q 248 637 275 631 q 169 652 186 651 q 376 730 192 663 q 432 747 405 740 l 432 695 l 434 696 q 585 747 502 747 q 736 696 667 747 q 846 557 805 646 q 886 365 886 467 l 886 361 l 886 134 q 895 110 886 117 q 937 93 909 99 q 1015 78 998 79 q 808 1 977 61 q 752 -17 779 -9 l 752 362 l 752 365 q 693 594 752 519 q 559 665 637 665 q 557 665 558 665 q 432 602 471 665 l 432 100 l 433 94 q 561 0 470 19 l 169 0 z "},"Ŋ":{"ha":1051,"x_min":0,"x_max":1010,"o":"m 0 0 q 168 95 125 16 l 170 100 l 170 1052 l 806 298 l 806 924 l 804 930 q 677 1025 761 1008 l 1010 1025 q 883 930 920 1006 l 882 924 l 882 0 q 774 -226 873 -136 q 642 -277 718 -277 q 625 -276 634 -277 q 463 -210 517 -267 q 435 -146 435 -181 q 460 -83 435 -107 q 523 -57 486 -57 q 586 -86 559 -57 q 612 -152 612 -115 q 589 -206 612 -182 q 628 -214 598 -211 q 671 -210 651 -217 q 804 -12 804 -140 q 806 87 804 -11 l 245 733 l 245 100 l 247 94 q 374 0 283 19 l 0 0 z "},"ŋ":{"ha":873,"x_min":27,"x_max":745,"o":"m 27 0 q 155 95 111 16 l 156 100 l 156 597 q 147 621 156 614 q 106 637 134 631 q 27 652 44 651 q 235 730 64 669 q 290 747 263 740 l 290 695 l 292 696 q 444 747 369 747 q 595 696 526 747 q 704 557 663 646 q 745 365 745 467 l 745 361 l 745 -18 q 644 -241 734 -163 q 505 -295 583 -295 q 488 -294 497 -295 q 326 -229 380 -286 q 298 -164 298 -199 q 323 -101 298 -125 q 386 -75 349 -75 q 449 -104 422 -75 q 475 -170 475 -134 q 452 -224 475 -200 q 491 -233 464 -231 q 532 -226 514 -234 q 572 -185 557 -212 q 610 -32 610 -130 l 610 -18 l 610 362 l 610 365 q 551 594 610 519 q 418 665 496 665 l 415 665 q 290 602 329 665 l 290 100 l 292 94 q 419 0 328 19 l 27 0 z "},"Ō":{"ha":939,"x_min":88,"x_max":850,"o":"m 271 1322 l 666 1322 l 666 1202 l 271 1202 l 271 1322 m 229 493 q 251 313 229 387 q 340 121 284 182 q 469 54 402 54 q 471 54 471 54 q 473 54 473 54 q 604 122 530 54 q 682 283 655 186 q 708 493 708 379 q 708 514 708 503 q 682 725 708 641 q 590 913 648 850 q 470 970 536 970 l 469 970 q 353 925 403 970 q 259 743 292 876 q 229 493 229 623 m 118 298 q 103 346 118 298 q 88 505 88 393 q 118 719 88 616 q 199 891 148 822 q 321 1001 251 960 q 469 1042 392 1042 q 617 1001 547 1042 q 739 891 688 960 q 821 719 791 822 q 850 505 850 616 q 821 298 850 393 q 739 134 791 203 q 617 24 688 65 q 469 -17 547 -17 q 321 24 392 -17 q 199 134 251 65 q 118 298 148 203 z "},"ō":{"ha":751,"x_min":75,"x_max":677,"o":"m 191 1025 l 587 1025 l 587 905 l 191 905 l 191 1025 m 222 368 q 256 142 222 216 q 382 48 300 48 q 498 155 455 48 q 534 362 533 243 l 534 365 q 480 593 534 506 q 375 665 435 665 q 373 665 374 665 q 266 591 309 665 q 222 368 222 517 m 75 357 q 115 557 75 469 q 224 696 157 646 q 376 747 293 747 q 527 696 458 747 q 636 557 595 646 q 677 365 677 467 q 636 174 677 262 q 527 34 595 85 q 376 -17 459 -17 q 224 34 296 -17 q 115 170 155 83 q 75 357 75 256 z "},"Ŏ":{"ha":939,"x_min":88,"x_max":850,"o":"m 246 1243 l 323 1322 q 351 1299 347 1303 q 480 1257 404 1257 q 588 1298 543 1257 l 610 1320 l 701 1251 q 614 1182 662 1211 q 470 1141 547 1141 q 323 1184 393 1141 q 246 1243 277 1212 m 229 493 q 251 313 229 387 q 340 121 284 182 q 469 54 402 54 q 471 54 471 54 q 473 54 473 54 q 604 122 530 54 q 682 283 655 186 q 708 493 708 379 q 708 514 708 503 q 682 725 708 641 q 590 913 648 850 q 470 970 536 970 l 469 970 q 353 925 403 970 q 259 743 292 876 q 229 493 229 623 m 118 298 q 103 346 118 298 q 88 505 88 393 q 118 719 88 616 q 199 891 148 822 q 321 1001 251 960 q 469 1042 392 1042 q 617 1001 547 1042 q 739 891 688 960 q 821 719 791 822 q 850 505 850 616 q 821 298 850 393 q 739 134 791 203 q 617 24 688 65 q 469 -17 547 -17 q 321 24 392 -17 q 199 134 251 65 q 118 298 148 203 z "},"ŏ":{"ha":751,"x_min":75,"x_max":677,"o":"m 152 962 l 229 1042 q 256 1018 252 1022 q 386 977 310 977 q 494 1017 448 977 l 516 1040 l 606 970 q 520 901 568 930 q 376 861 452 861 q 229 903 299 861 q 152 962 182 931 m 222 368 q 256 142 222 216 q 382 48 300 48 q 498 155 455 48 q 534 362 533 243 l 534 365 q 480 593 534 506 q 375 665 435 665 q 373 665 374 665 q 266 591 309 665 q 222 368 222 517 m 75 357 q 115 557 75 469 q 224 696 157 646 q 376 747 293 747 q 527 696 458 747 q 636 557 595 646 q 677 365 677 467 q 636 174 677 262 q 527 34 595 85 q 376 -17 459 -17 q 224 34 296 -17 q 115 170 155 83 q 75 357 75 256 z "},"Ő":{"ha":939,"x_min":88,"x_max":850,"o":"m 349 1074 l 476 1284 q 486 1295 478 1287 q 529 1320 503 1315 q 549 1322 539 1322 q 600 1301 578 1322 q 620 1251 620 1281 q 619 1239 620 1246 q 595 1193 616 1208 l 584 1183 l 362 1059 l 349 1074 m 563 1074 l 690 1284 q 700 1295 692 1287 q 743 1320 718 1315 q 763 1322 753 1322 q 814 1301 793 1322 q 834 1251 834 1281 q 833 1239 834 1246 q 810 1193 831 1208 l 798 1183 l 576 1059 l 563 1074 m 229 493 q 251 313 229 387 q 340 121 284 182 q 469 54 402 54 q 471 54 471 54 q 473 54 473 54 q 604 122 530 54 q 682 283 655 186 q 708 493 708 379 q 708 514 708 503 q 682 725 708 641 q 590 913 648 850 q 470 970 536 970 l 469 970 q 353 925 403 970 q 259 743 292 876 q 229 493 229 623 m 118 298 q 103 346 118 298 q 88 505 88 393 q 118 719 88 616 q 199 891 148 822 q 321 1001 251 960 q 469 1042 392 1042 q 617 1001 547 1042 q 739 891 688 960 q 821 719 791 822 q 850 505 850 616 q 821 298 850 393 q 739 134 791 203 q 617 24 688 65 q 469 -17 547 -17 q 321 24 392 -17 q 199 134 251 65 q 118 298 148 203 z "},"ő":{"ha":751,"x_min":75,"x_max":741,"o":"m 255 793 l 382 1003 q 392 1015 385 1006 q 435 1040 410 1034 q 455 1042 446 1042 q 507 1020 485 1042 q 526 970 526 1000 q 526 958 526 965 q 502 912 523 928 l 490 903 l 269 779 l 255 793 m 469 793 l 597 1003 q 606 1015 599 1006 q 650 1040 624 1034 q 669 1042 660 1042 q 721 1020 699 1042 q 741 970 741 1000 q 740 958 741 965 q 716 912 737 928 l 705 903 l 483 779 l 469 793 m 222 368 q 256 142 222 216 q 382 48 300 48 q 498 155 455 48 q 534 362 533 243 l 534 365 q 480 593 534 506 q 375 665 435 665 q 373 665 374 665 q 266 591 309 665 q 222 368 222 517 m 75 357 q 115 557 75 469 q 224 696 157 646 q 376 747 293 747 q 527 696 458 747 q 636 557 595 646 q 677 365 677 467 q 636 174 677 262 q 527 34 595 85 q 376 -17 459 -17 q 224 34 296 -17 q 115 170 155 83 q 75 357 75 256 z "},"Œ":{"ha":1444,"x_min":88,"x_max":1444,"o":"m 118 298 q 103 346 118 298 q 88 505 88 393 q 118 719 88 616 q 199 891 148 822 q 321 1001 251 960 q 469 1042 392 1042 q 566 1025 519 1042 l 1230 1025 l 1356 806 q 1168 955 1217 950 l 1159 956 l 852 956 l 852 435 l 1064 435 l 1074 436 q 1261 585 1122 441 l 1065 245 q 1072 286 1072 267 q 1031 364 1072 336 l 1026 366 l 852 366 l 852 69 l 1247 69 l 1257 70 q 1444 218 1305 75 l 1318 0 l 566 0 q 469 -17 519 -17 q 321 24 392 -17 q 199 134 251 65 q 118 298 148 203 m 229 493 q 251 313 229 387 q 340 121 284 182 q 469 54 402 54 l 471 54 l 473 54 q 604 122 530 54 q 682 283 655 186 q 708 493 708 379 l 708 514 q 682 725 708 641 q 590 913 648 850 q 470 970 536 970 l 469 970 q 353 925 403 970 q 259 743 292 876 q 229 493 229 623 z "},"œ":{"ha":1203,"x_min":75,"x_max":1128,"o":"m 75 357 q 115 557 75 469 q 224 696 157 646 q 376 747 293 747 q 527 696 458 747 q 608 608 574 662 q 690 696 642 661 q 841 747 758 747 q 989 701 920 747 q 1080 606 1040 673 q 1112 503 1109 559 q 1004 307 1112 383 q 789 241 913 241 q 692 247 788 241 q 738 134 709 177 q 864 60 786 60 l 865 60 q 1007 132 949 60 q 1050 212 1031 161 l 1128 189 q 1124 174 1126 178 q 1015 35 1067 70 q 853 -17 930 -17 l 851 -17 q 690 33 758 -17 q 608 122 642 68 q 527 34 574 69 q 376 -17 459 -17 q 224 34 296 -17 q 115 170 155 83 q 75 357 75 256 m 222 368 q 256 142 222 216 q 382 48 300 48 q 498 155 455 48 q 534 362 533 243 l 534 365 q 480 593 534 506 q 375 665 435 665 l 373 665 q 266 591 309 665 q 222 368 222 517 m 985 504 q 944 625 985 581 q 846 669 909 663 l 845 669 q 726 596 770 669 q 684 458 692 541 q 679 353 679 410 q 682 309 679 334 q 805 308 743 308 q 850 311 837 308 q 945 368 919 328 q 985 504 985 434 z "},"Ŕ":{"ha":974,"x_min":41,"x_max":1015,"o":"m 435 1074 l 562 1284 q 572 1295 564 1287 q 615 1320 589 1315 q 635 1322 625 1322 q 686 1301 665 1322 q 706 1251 706 1281 q 705 1239 706 1246 q 682 1193 703 1208 l 670 1183 l 448 1059 l 435 1074 m 450 971 q 346 946 397 971 q 313 913 326 934 q 304 868 304 897 l 304 530 q 414 444 338 467 q 477 434 446 434 q 484 434 480 434 q 511 435 487 434 q 620 477 576 442 q 700 700 700 542 q 667 846 700 781 q 581 940 639 903 q 450 971 530 971 m 41 0 q 168 95 125 16 l 170 100 l 170 868 q 161 892 170 884 q 119 909 149 902 q 41 924 60 922 q 248 1001 87 945 q 445 1041 362 1041 q 450 1041 448 1041 q 620 1013 551 1041 q 735 944 689 986 q 825 822 798 886 q 846 700 842 785 q 769 488 843 567 q 643 397 713 429 q 685 363 668 383 q 807 124 720 321 l 821 94 q 892 38 850 38 q 895 38 893 38 q 962 64 931 38 q 1015 107 996 94 q 958 -28 1006 22 q 848 -83 905 -83 q 846 -83 847 -83 q 734 -20 781 -83 q 693 51 724 -6 l 596 256 q 499 366 551 345 l 495 367 q 464 368 480 367 q 304 425 366 372 l 304 100 l 305 94 q 433 0 342 19 l 41 0 z "},"ŕ":{"ha":696,"x_min":27,"x_max":696,"o":"m 365 793 l 492 1003 q 502 1015 494 1006 q 545 1040 519 1034 q 565 1042 555 1042 q 616 1020 595 1042 q 636 970 636 1000 q 635 958 636 965 q 612 912 633 928 l 600 903 l 378 779 l 365 793 m 27 0 q 155 95 111 16 l 156 100 l 156 574 q 147 598 156 591 q 106 615 135 609 q 27 630 45 629 q 235 707 74 651 q 431 747 349 747 q 437 747 434 747 q 628 671 547 747 q 696 513 696 593 q 696 510 696 511 q 670 445 696 473 q 608 418 645 418 q 545 444 570 418 q 519 505 519 470 q 519 507 519 507 q 545 571 519 546 q 604 597 570 595 q 537 661 599 625 q 458 678 507 678 q 441 677 450 678 q 319 637 368 671 q 300 620 316 635 q 290 574 290 611 l 290 100 l 292 94 q 419 0 328 19 l 27 0 z "},"Ŗ":{"ha":974,"x_min":41,"x_max":1015,"o":"m 576 -45 l 448 -255 q 439 -267 446 -258 q 395 -292 421 -286 q 376 -294 385 -294 q 324 -272 346 -294 q 304 -222 304 -252 q 305 -210 304 -217 q 329 -164 308 -180 l 340 -155 l 562 -31 l 576 -45 m 450 971 q 346 946 397 971 q 313 913 326 934 q 304 868 304 897 l 304 530 q 414 444 338 467 q 477 434 446 434 q 484 434 480 434 q 511 435 487 434 q 620 477 576 442 q 700 700 700 542 q 667 846 700 781 q 581 940 639 903 q 450 971 530 971 m 41 0 q 168 95 125 16 l 170 100 l 170 868 q 161 892 170 884 q 119 909 149 902 q 41 924 60 922 q 248 1001 87 945 q 445 1041 362 1041 q 450 1041 448 1041 q 620 1013 551 1041 q 735 944 689 986 q 825 822 798 886 q 846 700 842 785 q 769 488 843 567 q 643 397 713 429 q 685 363 668 383 q 807 124 720 321 l 821 94 q 892 38 850 38 q 895 38 893 38 q 962 64 931 38 q 1015 107 996 94 q 958 -28 1006 22 q 848 -83 905 -83 q 846 -83 847 -83 q 734 -20 781 -83 q 693 51 724 -6 l 596 256 q 499 366 551 345 l 495 367 q 464 368 480 367 q 304 425 366 372 l 304 100 l 305 94 q 433 0 342 19 l 41 0 z "},"ŗ":{"ha":696,"x_min":8,"x_max":696,"o":"m 279 -45 l 152 -255 q 142 -267 150 -258 q 99 -292 125 -286 q 79 -294 89 -294 q 28 -272 50 -294 q 8 -222 8 -252 q 9 -210 8 -217 q 33 -164 12 -180 l 44 -155 l 266 -31 l 279 -45 m 27 0 q 155 95 111 16 l 156 100 l 156 574 q 147 598 156 591 q 106 615 135 609 q 27 630 45 629 q 235 707 74 651 q 431 747 349 747 q 437 747 434 747 q 628 671 547 747 q 696 513 696 593 q 696 510 696 511 q 670 445 696 473 q 608 418 645 418 q 545 444 570 418 q 519 505 519 470 q 519 507 519 507 q 545 571 519 546 q 604 597 570 595 q 537 661 599 625 q 458 678 507 678 q 441 677 450 678 q 319 637 368 671 q 300 620 316 635 q 290 574 290 611 l 290 100 l 292 94 q 419 0 328 19 l 27 0 z "},"Ř":{"ha":974,"x_min":41,"x_max":1015,"o":"m 269 1308 l 283 1322 l 469 1200 l 652 1322 l 666 1308 l 538 1098 q 529 1086 536 1095 q 495 1064 513 1069 q 469 1059 479 1059 l 468 1059 l 466 1059 q 440 1064 455 1059 q 406 1086 418 1071 q 397 1098 398 1096 l 269 1308 m 450 971 q 346 946 397 971 q 313 913 326 934 q 304 868 304 897 l 304 530 q 414 444 338 467 q 477 434 446 434 q 484 434 480 434 q 511 435 487 434 q 620 477 576 442 q 700 700 700 542 q 667 846 700 781 q 581 940 639 903 q 450 971 530 971 m 41 0 q 168 95 125 16 l 170 100 l 170 868 q 161 892 170 884 q 119 909 149 902 q 41 924 60 922 q 248 1001 87 945 q 445 1041 362 1041 q 450 1041 448 1041 q 620 1013 551 1041 q 735 944 689 986 q 825 822 798 886 q 846 700 842 785 q 769 488 843 567 q 643 397 713 429 q 685 363 668 383 q 807 124 720 321 l 821 94 q 892 38 850 38 q 895 38 893 38 q 962 64 931 38 q 1015 107 996 94 q 958 -28 1006 22 q 848 -83 905 -83 q 846 -83 847 -83 q 734 -20 781 -83 q 693 51 724 -6 l 596 256 q 499 366 551 345 l 495 367 q 464 368 480 367 q 304 425 366 372 l 304 100 l 305 94 q 433 0 342 19 l 41 0 z "},"ř":{"ha":696,"x_min":27,"x_max":696,"o":"m 178 1027 l 192 1042 l 378 920 l 562 1042 l 575 1027 l 448 817 q 438 806 446 814 q 404 783 422 789 q 378 779 388 779 l 377 779 l 375 779 q 349 783 364 779 q 315 806 328 790 q 306 817 307 815 l 178 1027 m 27 0 q 155 95 111 16 l 156 100 l 156 574 q 147 598 156 591 q 106 615 135 609 q 27 630 45 629 q 235 707 74 651 q 431 747 349 747 q 437 747 434 747 q 628 671 547 747 q 696 513 696 593 q 696 510 696 511 q 670 445 696 473 q 608 418 645 418 q 545 444 570 418 q 519 505 519 470 q 519 507 519 507 q 545 571 519 546 q 604 597 570 595 q 537 661 599 625 q 458 678 507 678 q 441 677 450 678 q 319 637 368 671 q 300 620 316 635 q 290 574 290 611 l 290 100 l 292 94 q 419 0 328 19 l 27 0 z "},"Ś":{"ha":886,"x_min":81,"x_max":804,"o":"m 401 1074 l 528 1284 q 538 1295 530 1287 q 581 1320 555 1315 q 601 1322 591 1322 q 652 1301 631 1322 q 672 1251 672 1281 q 671 1239 672 1246 q 648 1193 669 1208 l 636 1183 l 414 1059 l 401 1074 m 81 506 q 180 170 110 271 l 193 155 q 247 109 203 139 q 430 54 324 54 q 433 54 431 54 q 480 56 475 54 q 635 161 581 76 q 671 292 671 224 l 671 310 q 555 442 665 395 l 324 548 q 151 783 152 628 l 151 796 q 227 971 153 901 q 412 1042 300 1042 q 416 1042 414 1042 q 593 957 529 1042 l 599 956 q 671 1042 650 962 l 671 650 q 587 875 631 817 l 564 903 q 529 933 554 913 q 422 977 477 976 l 420 977 q 312 937 354 977 q 269 825 269 897 q 269 821 269 823 q 395 670 269 726 l 642 560 q 804 314 794 492 l 804 288 q 692 72 784 155 q 453 -17 602 -17 l 448 -17 q 307 11 399 -17 l 180 65 l 171 68 q 81 -18 103 63 l 81 506 z "},"ś":{"ha":682,"x_min":61,"x_max":621,"o":"m 332 793 l 459 1003 q 469 1015 461 1006 q 512 1040 486 1034 q 532 1042 522 1042 q 583 1020 562 1042 q 603 970 603 1000 q 602 958 603 965 q 578 912 600 928 l 567 903 l 345 779 l 332 793 m 61 178 q 87 241 61 215 q 149 267 113 267 q 212 241 186 267 q 237 178 237 215 q 212 114 237 143 q 199 102 206 108 l 208 96 q 349 50 269 50 q 351 50 350 50 q 458 83 416 50 q 497 187 494 113 l 497 200 q 429 294 494 273 l 244 349 q 114 496 140 379 q 111 536 111 516 q 165 669 111 603 q 345 747 229 747 q 528 675 452 747 q 567 627 553 652 q 577 583 577 608 q 551 520 577 547 q 489 494 526 494 q 427 520 452 494 q 401 584 401 547 q 427 647 401 621 l 439 656 q 345 679 398 679 l 343 679 q 261 645 298 675 q 231 556 231 614 q 231 547 231 551 q 289 465 231 490 l 450 423 q 555 368 520 397 q 621 199 620 311 q 547 45 614 115 q 348 -17 486 -17 q 135 62 227 -17 q 73 132 87 103 q 66 146 68 140 q 61 178 61 160 z "},"Ŝ":{"ha":886,"x_min":81,"x_max":804,"o":"m 223 1074 l 351 1284 q 360 1295 352 1286 q 394 1318 372 1311 q 420 1322 409 1322 l 422 1322 l 423 1322 q 449 1318 433 1322 q 483 1295 467 1312 q 492 1284 490 1287 l 620 1074 l 606 1059 l 423 1181 l 237 1059 l 223 1074 m 81 506 q 180 170 110 271 l 193 155 q 247 109 203 139 q 430 54 324 54 q 433 54 431 54 q 480 56 475 54 q 635 161 581 76 q 671 292 671 224 l 671 310 q 555 442 665 395 l 324 548 q 151 783 152 628 l 151 796 q 227 971 153 901 q 412 1042 300 1042 q 416 1042 414 1042 q 593 957 529 1042 l 599 956 q 671 1042 650 962 l 671 650 q 587 875 631 817 l 564 903 q 529 933 554 913 q 422 977 477 976 l 420 977 q 312 937 354 977 q 269 825 269 897 q 269 821 269 823 q 395 670 269 726 l 642 560 q 804 314 794 492 l 804 288 q 692 72 784 155 q 453 -17 602 -17 l 448 -17 q 307 11 399 -17 l 180 65 l 171 68 q 81 -18 103 63 l 81 506 z "},"ŝ":{"ha":682,"x_min":61,"x_max":621,"o":"m 147 793 l 275 1003 q 284 1015 276 1005 q 318 1037 296 1030 q 344 1042 333 1042 l 346 1042 l 347 1042 q 373 1037 357 1042 q 407 1015 391 1031 q 416 1003 414 1006 l 544 793 l 530 779 l 347 901 l 161 779 l 147 793 m 61 178 q 87 241 61 215 q 149 267 113 267 q 212 241 186 267 q 237 178 237 215 q 212 114 237 143 q 199 102 206 108 l 208 96 q 349 50 269 50 q 351 50 350 50 q 458 83 416 50 q 497 187 494 113 l 497 200 q 429 294 494 273 l 244 349 q 114 496 140 379 q 111 536 111 516 q 165 669 111 603 q 345 747 229 747 q 528 675 452 747 q 567 627 553 652 q 577 583 577 608 q 551 520 577 547 q 489 494 526 494 q 427 520 452 494 q 401 584 401 547 q 427 647 401 621 l 439 656 q 345 679 398 679 l 343 679 q 261 645 298 675 q 231 556 231 614 q 231 547 231 551 q 289 465 231 490 l 450 423 q 555 368 520 397 q 621 199 620 311 q 547 45 614 115 q 348 -17 486 -17 q 135 62 227 -17 q 73 132 87 103 q 66 146 68 140 q 61 178 61 160 z "},"Ş":{"ha":886,"x_min":81,"x_max":804,"o":"m 81 506 q 180 170 110 271 l 193 155 q 247 109 203 139 q 430 54 324 54 l 433 54 q 480 56 475 54 q 635 161 581 76 q 671 292 671 224 l 671 310 q 555 442 665 395 l 324 548 q 151 783 152 628 l 151 796 q 227 971 153 901 q 412 1042 300 1042 l 416 1042 q 593 957 529 1042 l 599 956 q 671 1042 650 962 l 671 650 q 587 875 631 817 l 564 903 q 529 933 555 912 q 422 977 477 976 l 420 977 q 312 937 354 977 q 269 825 269 897 l 269 821 q 395 670 269 726 l 642 560 q 804 314 794 492 l 804 288 q 692 72 784 155 q 481 -16 610 -8 q 508 -87 499 -45 q 513 -149 513 -113 q 506 -197 513 -171 q 496 -226 502 -211 q 444 -283 478 -268 q 399 -294 420 -294 q 377 -291 388 -294 q 323 -250 341 -282 q 312 -206 312 -229 q 315 -182 312 -194 q 359 -124 326 -144 q 399 -113 377 -113 q 434 -119 416 -113 l 435 -102 l 435 -93 q 426 -35 435 -68 q 420 -15 423 -24 q 307 11 375 -9 l 180 65 l 171 68 q 81 -18 103 63 l 81 506 z "},"ş":{"ha":682,"x_min":61,"x_max":621,"o":"m 61 178 q 87 241 61 215 q 149 267 113 267 q 212 241 186 267 q 237 178 237 215 q 212 114 237 143 q 199 102 206 108 l 208 96 q 349 50 269 50 l 351 50 q 458 83 416 50 q 497 187 494 113 l 497 200 q 429 294 494 273 l 244 349 q 114 496 140 379 q 111 536 111 516 q 165 669 111 603 q 345 747 229 747 q 528 675 452 747 q 567 627 553 652 q 577 583 577 608 q 551 520 577 547 q 489 494 526 494 q 427 520 452 494 q 401 584 401 547 q 427 647 401 621 l 439 656 q 345 679 398 679 l 343 679 q 261 645 298 675 q 231 556 231 614 l 231 547 q 289 465 231 490 l 450 423 q 555 368 520 397 q 621 199 620 311 q 547 45 614 115 q 389 -16 496 -7 q 417 -87 408 -45 q 422 -149 422 -112 q 415 -197 422 -171 q 405 -226 411 -211 q 353 -283 387 -268 q 309 -294 330 -294 q 286 -291 297 -294 q 233 -250 250 -282 q 221 -206 221 -229 q 224 -182 221 -194 q 268 -124 235 -144 q 309 -113 286 -113 q 343 -119 325 -113 l 344 -102 l 344 -93 q 335 -35 344 -76 q 330 -16 333 -25 q 135 62 220 -12 q 73 132 87 102 q 66 146 68 140 q 61 178 61 160 z "},"Š":{"ha":886,"x_min":81,"x_max":804,"o":"m 216 1308 l 229 1322 l 416 1200 l 599 1322 l 612 1308 l 485 1098 q 475 1086 483 1095 q 441 1064 460 1069 q 416 1059 425 1059 l 414 1059 l 412 1059 q 387 1064 401 1059 q 353 1086 365 1071 q 343 1098 345 1096 l 216 1308 m 81 506 q 180 170 110 271 l 193 155 q 247 109 203 139 q 430 54 324 54 q 433 54 431 54 q 480 56 475 54 q 635 161 581 76 q 671 292 671 224 l 671 310 q 555 442 665 395 l 324 548 q 151 783 152 628 l 151 796 q 227 971 153 901 q 412 1042 300 1042 q 416 1042 414 1042 q 593 957 529 1042 l 599 956 q 671 1042 650 962 l 671 650 q 587 875 631 817 l 564 903 q 529 933 554 913 q 422 977 477 976 l 420 977 q 312 937 354 977 q 269 825 269 897 q 269 821 269 823 q 395 670 269 726 l 642 560 q 804 314 794 492 l 804 288 q 692 72 784 155 q 453 -17 602 -17 l 448 -17 q 307 11 399 -17 l 180 65 l 171 68 q 81 -18 103 63 l 81 506 z "},"š":{"ha":682,"x_min":61,"x_max":621,"o":"m 146 1027 l 159 1042 l 346 920 l 529 1042 l 543 1027 l 415 817 q 406 806 413 814 q 372 783 390 789 q 346 779 355 779 l 345 779 l 342 779 q 317 783 332 779 q 283 806 295 790 q 273 817 275 815 l 146 1027 m 61 178 q 87 241 61 215 q 149 267 113 267 q 212 241 186 267 q 237 178 237 215 q 212 114 237 143 q 199 102 206 108 l 208 96 q 349 50 269 50 q 351 50 350 50 q 458 83 416 50 q 497 187 494 113 l 497 200 q 429 294 494 273 l 244 349 q 114 496 140 379 q 111 536 111 516 q 165 669 111 603 q 345 747 229 747 q 528 675 452 747 q 567 627 553 652 q 577 583 577 608 q 551 520 577 547 q 489 494 526 494 q 427 520 452 494 q 401 584 401 547 q 427 647 401 621 l 439 656 q 345 679 398 679 l 343 679 q 261 645 298 675 q 231 556 231 614 q 231 547 231 551 q 289 465 231 490 l 450 423 q 555 368 520 397 q 621 199 620 311 q 547 45 614 115 q 348 -17 486 -17 q 135 62 227 -17 q 73 132 87 103 q 66 146 68 140 q 61 178 61 160 z "},"Ţ":{"ha":810,"x_min":-54,"x_max":864,"o":"m 209 0 q 336 95 293 16 l 338 100 l 338 956 l 143 956 l 134 955 q -54 806 85 950 l 72 1025 l 738 1025 l 864 806 q 676 955 724 950 l 667 956 l 472 956 l 472 100 l 473 94 q 601 0 510 19 l 440 0 q 473 -87 461 -35 q 478 -149 478 -113 q 471 -197 478 -171 q 460 -226 467 -211 q 408 -283 443 -268 q 364 -294 385 -294 q 342 -291 353 -294 q 288 -250 306 -282 q 277 -206 277 -229 q 280 -182 277 -194 q 323 -124 291 -144 q 364 -113 342 -113 q 399 -119 380 -113 l 399 -102 l 399 -93 q 391 -35 399 -65 q 378 0 385 -16 l 209 0 z "},"ţ":{"ha":624,"x_min":-34,"x_max":658,"o":"m -34 575 l 87 774 q 83 740 83 758 q 132 696 83 696 l 135 696 l 138 696 l 244 696 l 244 891 q 235 915 244 907 q 191 931 225 924 l 115 947 q 323 1024 177 974 q 378 1042 349 1033 l 378 696 l 524 696 l 530 696 q 658 747 615 701 l 536 548 q 541 583 541 565 q 492 627 541 627 l 489 627 l 486 627 l 378 627 l 378 100 l 380 94 q 507 0 416 19 l 347 0 q 379 -87 368 -35 q 385 -149 385 -113 q 377 -197 385 -171 q 367 -226 373 -211 q 315 -283 349 -268 q 271 -294 292 -294 q 248 -291 259 -294 q 195 -250 212 -282 q 183 -206 183 -229 q 186 -182 183 -194 q 230 -124 197 -144 q 271 -113 248 -113 q 305 -119 287 -113 l 306 -102 l 306 -93 q 297 -35 306 -65 q 284 0 292 -16 l 115 0 q 243 95 199 16 l 244 100 l 244 627 l 100 627 l 94 627 q -34 575 9 622 z "},"Ť":{"ha":810,"x_min":-54,"x_max":864,"o":"m 212 1308 l 226 1322 l 412 1200 l 595 1322 l 609 1308 l 481 1098 q 472 1086 479 1095 q 438 1064 456 1069 q 412 1059 422 1059 l 411 1059 l 409 1059 q 383 1064 398 1059 q 349 1086 361 1071 q 340 1098 341 1096 l 212 1308 m 209 0 q 336 95 293 16 l 338 100 l 338 956 l 143 956 l 134 955 q -54 806 85 950 l 72 1025 l 738 1025 l 864 806 q 676 955 724 950 l 667 956 l 472 956 l 472 100 l 473 94 q 601 0 510 19 l 209 0 z "},"ť":{"ha":624,"x_min":-34,"x_max":665,"o":"m 393 793 l 521 1003 q 530 1015 523 1006 q 574 1040 548 1034 q 593 1042 584 1042 q 645 1020 623 1042 q 665 970 665 1000 q 664 958 665 965 q 640 912 661 928 l 629 903 l 407 779 l 393 793 m -34 575 l 87 774 q 83 740 83 758 q 132 696 83 696 q 135 696 133 696 l 138 696 l 244 696 l 244 891 q 235 915 244 907 q 191 931 225 924 q 115 947 153 939 q 323 1024 177 974 q 378 1042 349 1033 l 378 696 l 524 696 l 530 696 q 658 747 615 701 l 536 548 q 541 583 541 565 q 492 627 541 627 q 489 627 491 627 l 486 627 l 378 627 l 378 100 l 380 94 q 507 0 416 19 l 115 0 q 243 95 199 16 l 244 100 l 244 627 l 100 627 l 94 627 q -34 575 9 622 z "},"Ŧ":{"ha":810,"x_min":-54,"x_max":864,"o":"m 209 0 q 336 95 293 16 l 338 100 l 338 531 l 258 531 l 253 531 q 125 479 168 526 l 246 679 q 242 644 242 662 q 290 600 242 600 l 294 600 l 296 600 l 338 600 l 338 956 l 143 956 l 134 955 q -54 806 85 950 l 72 1025 l 738 1025 l 864 806 q 676 955 724 950 l 667 956 l 472 956 l 472 600 l 549 600 l 554 600 q 682 652 640 605 l 561 452 q 565 487 565 469 q 517 531 565 531 l 513 531 l 511 531 l 472 531 l 472 100 l 473 94 q 601 0 510 19 l 209 0 z "},"ŧ":{"ha":624,"x_min":-34,"x_max":658,"o":"m -34 575 l 87 774 q 83 740 83 758 q 132 696 83 696 l 135 696 l 138 696 l 244 696 l 244 891 q 235 915 244 907 q 191 931 225 924 l 115 947 q 323 1024 177 974 q 378 1042 349 1033 l 378 696 l 524 696 l 530 696 q 658 747 615 701 l 536 548 q 541 583 541 565 q 492 627 541 627 l 489 627 l 486 627 l 378 627 l 378 448 l 459 448 l 465 448 q 593 499 550 452 l 471 300 q 475 334 475 317 q 427 378 475 378 l 424 378 l 421 378 l 378 378 l 378 100 l 380 94 q 507 0 416 19 l 115 0 q 243 95 199 16 l 244 100 l 244 378 l 169 378 l 163 378 q 35 327 78 374 l 157 526 q 153 492 153 509 q 201 448 153 448 l 204 448 l 207 448 l 244 448 l 244 627 l 100 627 l 94 627 q -34 575 9 622 z "},"Ũ":{"ha":1049,"x_min":41,"x_max":1008,"o":"m 349 1153 q 474 1322 389 1322 q 494 1320 483 1322 q 583 1272 520 1314 l 642 1230 q 681 1215 659 1215 q 683 1215 682 1215 q 781 1290 724 1215 q 658 1107 745 1116 q 642 1109 650 1107 q 553 1159 614 1116 l 494 1198 q 452 1213 475 1212 l 452 1213 q 349 1153 408 1213 m 41 1025 l 433 1025 q 305 930 342 1006 l 304 924 l 304 338 q 376 165 307 237 q 553 90 449 90 q 731 165 658 90 q 804 338 800 237 l 804 924 l 802 930 q 675 1025 759 1008 l 1008 1025 q 881 930 918 1006 l 880 924 l 880 338 l 880 336 q 851 199 880 264 q 777 86 823 134 q 663 11 729 39 q 525 -17 597 -17 q 387 11 452 -17 q 273 86 321 39 q 198 199 227 134 q 170 336 170 264 l 170 338 l 170 924 l 168 930 q 41 1025 125 1008 z "},"ũ":{"ha":873,"x_min":0,"x_max":846,"o":"m 194 872 q 319 1042 234 1042 q 340 1039 328 1042 q 428 991 366 1033 l 487 949 q 526 935 505 935 q 528 935 528 935 q 627 1009 570 935 q 503 827 590 835 q 487 828 495 826 q 398 878 460 835 l 340 918 q 298 932 321 931 l 297 932 q 194 872 254 932 m 846 730 q 719 635 762 714 l 718 630 l 718 134 q 726 110 718 117 q 768 93 740 99 q 846 78 829 79 q 639 1 808 61 q 583 -17 610 -9 l 583 35 l 581 34 q 430 -17 513 -17 q 279 34 348 -17 q 170 174 210 84 q 129 366 129 263 l 129 370 l 129 597 q 120 621 129 614 q 79 637 106 631 q 0 652 19 651 q 208 730 38 669 q 263 747 236 740 l 263 368 l 263 366 q 322 136 263 211 q 456 66 378 66 q 458 66 457 66 q 583 128 545 66 l 583 630 l 582 636 q 454 730 545 711 l 846 730 z "},"Ū":{"ha":1049,"x_min":41,"x_max":1008,"o":"m 338 1322 l 734 1322 l 734 1202 l 338 1202 l 338 1322 m 41 1025 l 433 1025 q 305 930 342 1006 l 304 924 l 304 338 q 376 165 307 237 q 553 90 449 90 q 731 165 658 90 q 804 338 800 237 l 804 924 l 802 930 q 675 1025 759 1008 l 1008 1025 q 881 930 918 1006 l 880 924 l 880 338 l 880 336 q 851 199 880 264 q 777 86 823 134 q 663 11 729 39 q 525 -17 597 -17 q 387 11 452 -17 q 273 86 321 39 q 198 199 227 134 q 170 336 170 264 l 170 338 l 170 924 l 168 930 q 41 1025 125 1008 z "},"ū":{"ha":873,"x_min":0,"x_max":846,"o":"m 230 1025 l 625 1025 l 625 905 l 230 905 l 230 1025 m 846 730 q 719 635 762 714 l 718 630 l 718 134 q 726 110 718 117 q 768 93 740 99 q 846 78 829 79 q 639 1 808 61 q 583 -17 610 -9 l 583 35 l 581 34 q 430 -17 513 -17 q 279 34 348 -17 q 170 174 210 84 q 129 366 129 263 l 129 370 l 129 597 q 120 621 129 614 q 79 637 106 631 q 0 652 19 651 q 208 730 38 669 q 263 747 236 740 l 263 368 l 263 366 q 322 136 263 211 q 456 66 378 66 q 458 66 457 66 q 583 128 545 66 l 583 630 l 582 636 q 454 730 545 711 l 846 730 z "},"Ŭ":{"ha":1049,"x_min":41,"x_max":1008,"o":"m 348 1243 l 425 1322 q 452 1299 448 1303 q 582 1257 506 1257 q 690 1298 644 1257 l 712 1320 l 802 1251 q 716 1182 764 1211 q 572 1141 648 1141 q 425 1184 495 1141 q 348 1243 378 1212 m 41 1025 l 433 1025 q 305 930 342 1006 l 304 924 l 304 338 q 376 165 307 237 q 553 90 449 90 q 731 165 658 90 q 804 338 800 237 l 804 924 l 802 930 q 675 1025 759 1008 l 1008 1025 q 881 930 918 1006 l 880 924 l 880 338 l 880 336 q 851 199 880 264 q 777 86 823 134 q 663 11 729 39 q 525 -17 597 -17 q 387 11 452 -17 q 273 86 321 39 q 198 199 227 134 q 170 336 170 264 l 170 338 l 170 924 l 168 930 q 41 1025 125 1008 z "},"ŭ":{"ha":873,"x_min":0,"x_max":846,"o":"m 218 962 l 296 1042 q 323 1018 319 1022 q 452 977 376 977 q 560 1017 515 977 l 583 1040 l 673 970 q 587 901 634 930 q 442 861 519 861 q 295 903 366 861 q 218 962 249 931 m 846 730 q 719 635 762 714 l 718 630 l 718 134 q 726 110 718 117 q 768 93 740 99 q 846 78 829 79 q 639 1 808 61 q 583 -17 610 -9 l 583 35 l 581 34 q 430 -17 513 -17 q 279 34 348 -17 q 170 174 210 84 q 129 366 129 263 l 129 370 l 129 597 q 120 621 129 614 q 79 637 106 631 q 0 652 19 651 q 208 730 38 669 q 263 747 236 740 l 263 368 l 263 366 q 322 136 263 211 q 456 66 378 66 q 458 66 457 66 q 583 128 545 66 l 583 630 l 582 636 q 454 730 545 711 l 846 730 z "},"Ů":{"ha":1049,"x_min":41,"x_max":1008,"o":"m 517 1188 q 528 1132 517 1152 q 559 1112 539 1112 q 584 1131 572 1112 q 597 1195 597 1152 q 584 1255 597 1235 q 557 1272 572 1272 q 529 1255 541 1272 q 517 1188 517 1238 m 445 1197 q 460 1259 445 1227 q 500 1305 475 1288 q 558 1322 526 1322 q 616 1305 591 1322 q 656 1259 640 1289 q 671 1192 671 1230 q 656 1132 671 1161 q 616 1085 640 1101 q 558 1068 591 1068 q 500 1085 529 1068 q 458 1131 469 1104 q 445 1185 445 1162 q 445 1187 445 1186 q 445 1197 445 1187 m 41 1025 l 433 1025 q 305 930 342 1006 l 304 924 l 304 338 q 376 165 307 237 q 553 90 449 90 q 731 165 658 90 q 804 338 800 237 l 804 924 l 802 930 q 675 1025 759 1008 l 1008 1025 q 881 930 918 1006 l 880 924 l 880 338 l 880 336 q 851 199 880 264 q 777 86 823 134 q 663 11 729 39 q 525 -17 597 -17 q 387 11 452 -17 q 273 86 321 39 q 198 199 227 134 q 170 336 170 264 l 170 338 l 170 924 l 168 930 q 41 1025 125 1008 z "},"ů":{"ha":873,"x_min":0,"x_max":846,"o":"m 391 907 q 401 851 391 871 q 432 831 412 831 q 457 850 445 831 q 471 914 471 871 q 457 974 471 954 q 430 991 445 991 q 402 974 414 991 q 391 907 391 957 m 318 916 q 334 978 318 947 q 374 1024 348 1007 q 431 1042 399 1042 q 489 1025 464 1042 q 529 978 513 1008 q 545 911 544 949 q 529 851 544 880 q 489 804 513 821 q 431 787 464 787 q 374 804 402 787 q 331 850 342 823 q 318 905 318 881 q 318 907 318 905 q 318 916 318 907 m 846 730 q 719 635 762 714 l 718 630 l 718 134 q 726 110 718 117 q 768 93 740 99 q 846 78 829 79 q 639 1 808 61 q 583 -17 610 -9 l 583 35 l 581 34 q 430 -17 513 -17 q 279 34 348 -17 q 170 174 210 84 q 129 366 129 263 l 129 370 l 129 597 q 120 621 129 614 q 79 637 106 631 q 0 652 19 651 q 208 730 38 669 q 263 747 236 740 l 263 368 l 263 366 q 322 136 263 211 q 456 66 378 66 q 458 66 457 66 q 583 128 545 66 l 583 630 l 582 636 q 454 730 545 711 l 846 730 z "},"Ű":{"ha":1049,"x_min":41,"x_max":1008,"o":"m 349 1074 l 476 1284 q 486 1295 478 1287 q 529 1320 503 1315 q 549 1322 539 1322 q 600 1301 578 1322 q 620 1251 620 1281 q 619 1239 620 1246 q 595 1193 616 1208 l 584 1183 l 362 1059 l 349 1074 m 563 1074 l 690 1284 q 700 1295 692 1287 q 743 1320 718 1315 q 763 1322 753 1322 q 814 1301 793 1322 q 834 1251 834 1281 q 833 1239 834 1246 q 810 1193 831 1208 l 798 1183 l 576 1059 l 563 1074 m 41 1025 l 433 1025 q 305 930 342 1006 l 304 924 l 304 338 q 376 165 307 237 q 553 90 449 90 q 731 165 658 90 q 804 338 800 237 l 804 924 l 802 930 q 675 1025 759 1008 l 1008 1025 q 881 930 918 1006 l 880 924 l 880 338 l 880 336 q 851 199 880 264 q 777 86 823 134 q 663 11 729 39 q 525 -17 597 -17 q 387 11 452 -17 q 273 86 321 39 q 198 199 227 134 q 170 336 170 264 l 170 338 l 170 924 l 168 930 q 41 1025 125 1008 z "},"ű":{"ha":873,"x_min":0,"x_max":846,"o":"m 255 793 l 382 1003 q 392 1015 385 1006 q 435 1040 410 1034 q 455 1042 446 1042 q 507 1020 485 1042 q 526 970 526 1000 q 526 958 526 965 q 502 912 523 928 l 490 903 l 269 779 l 255 793 m 469 793 l 597 1003 q 606 1015 599 1006 q 650 1040 624 1034 q 669 1042 660 1042 q 721 1020 699 1042 q 741 970 741 1000 q 740 958 741 965 q 716 912 737 928 l 705 903 l 483 779 l 469 793 m 846 730 q 719 635 762 714 l 718 630 l 718 134 q 726 110 718 117 q 768 93 740 99 q 846 78 829 79 q 639 1 808 61 q 583 -17 610 -9 l 583 35 l 581 34 q 430 -17 513 -17 q 279 34 348 -17 q 170 174 210 84 q 129 366 129 263 l 129 370 l 129 597 q 120 621 129 614 q 79 637 106 631 q 0 652 19 651 q 208 730 38 669 q 263 747 236 740 l 263 368 l 263 366 q 322 136 263 211 q 456 66 378 66 q 458 66 457 66 q 583 128 545 66 l 583 630 l 582 636 q 454 730 545 711 l 846 730 z "},"Ų":{"ha":1049,"x_min":41,"x_max":1008,"o":"m 41 1025 l 433 1025 q 305 930 342 1006 l 304 924 l 304 338 q 376 165 307 237 q 553 90 449 90 q 731 165 658 90 q 804 338 800 237 l 804 924 l 802 930 q 675 1025 759 1008 l 1008 1025 q 881 930 918 1006 l 880 924 l 880 338 l 880 336 q 852 199 880 264 q 777 86 823 132 q 673 15 732 42 q 651 -35 659 -6 q 642 -93 642 -65 l 642 -102 l 643 -119 q 677 -113 661 -113 q 718 -124 700 -113 q 762 -182 751 -144 q 765 -206 765 -194 q 753 -250 765 -229 q 700 -291 736 -282 q 677 -294 689 -294 q 633 -283 656 -294 q 581 -226 598 -268 q 571 -197 575 -211 q 564 -149 564 -171 q 569 -87 564 -112 q 595 -10 579 -42 q 525 -17 561 -17 q 387 11 452 -17 q 273 86 321 39 q 198 199 227 134 q 170 336 170 264 l 170 338 l 170 924 l 168 930 q 41 1025 125 1008 z "},"ų":{"ha":873,"x_min":0,"x_max":846,"o":"m 846 730 q 719 635 762 714 l 718 630 l 718 134 q 726 110 718 117 q 768 93 740 99 q 846 78 829 79 q 707 25 817 65 q 678 -35 688 1 q 669 -93 669 -66 l 669 -102 l 670 -119 q 705 -113 688 -113 q 745 -124 727 -113 q 789 -182 778 -144 q 792 -206 792 -194 q 781 -250 792 -229 q 727 -291 763 -282 q 705 -294 716 -294 q 661 -283 684 -294 q 608 -226 625 -268 q 598 -197 602 -211 q 591 -149 591 -171 q 596 -87 591 -113 q 627 -3 607 -37 q 583 -17 604 -11 l 583 35 l 581 34 q 430 -17 513 -17 q 279 34 348 -17 q 170 174 210 84 q 129 366 129 263 l 129 370 l 129 597 q 120 621 129 614 q 79 637 106 631 q 0 652 18 651 q 208 730 37 669 q 263 747 236 740 l 263 368 l 263 366 q 322 136 263 211 q 456 66 378 66 l 458 66 q 583 128 545 66 l 583 630 l 582 636 q 454 730 545 711 l 846 730 z "},"Ŵ":{"ha":1273,"x_min":-47,"x_max":1320,"o":"m 450 1074 l 577 1284 q 587 1295 578 1286 q 621 1318 599 1311 q 646 1322 635 1322 l 648 1322 l 650 1322 q 675 1318 659 1322 q 709 1295 694 1312 q 719 1284 717 1287 l 846 1074 l 833 1059 l 650 1181 l 463 1059 l 450 1074 m -47 1025 l 345 1025 q 215 939 215 978 q 216 930 215 935 l 218 924 l 485 264 l 602 562 l 426 1025 l 563 1025 l 669 736 l 781 1025 l 861 1025 l 709 640 l 859 254 l 1112 924 l 1114 930 q 1115 938 1115 934 l 1115 939 q 986 1025 1115 977 l 1320 1025 q 1194 930 1237 1008 l 1192 924 l 829 -27 l 642 467 l 451 -27 l 81 924 l 81 926 l 79 932 q -47 1025 35 1008 z "},"ŵ":{"ha":1229,"x_min":-27,"x_max":1256,"o":"m 622 511 l 390 -27 l 102 630 l 101 632 l 99 638 q -27 730 56 714 l 365 730 q 235 642 235 673 q 237 636 235 639 l 239 630 l 422 231 l 654 758 l 882 228 l 1055 629 l 1057 636 q 1059 644 1059 640 q 929 730 1059 683 l 1256 730 q 1129 635 1173 714 l 1127 630 l 846 -27 l 622 511 m 452 793 l 580 1003 q 589 1015 581 1005 q 623 1037 602 1030 q 649 1042 638 1042 l 651 1042 l 652 1042 q 678 1037 662 1042 q 712 1015 696 1031 q 722 1003 720 1006 l 849 793 l 836 779 l 652 901 l 466 779 l 452 793 z "},"Ŷ":{"ha":895,"x_min":-47,"x_max":943,"o":"m 276 1074 l 404 1284 q 413 1295 405 1286 q 447 1318 425 1311 q 473 1322 462 1322 l 475 1322 l 476 1322 q 502 1318 486 1322 q 536 1295 520 1312 q 545 1284 543 1287 l 673 1074 l 659 1059 l 476 1181 l 290 1059 l 276 1074 m 251 0 q 378 95 335 16 l 380 100 l 380 435 l 322 435 l 81 924 l 81 926 l 79 932 q -47 1025 35 1008 l 345 1025 q 213 941 213 978 q 216 930 213 935 l 218 924 l 457 435 l 490 435 l 734 924 l 737 930 q 740 941 740 935 q 608 1025 739 978 l 943 1025 q 816 930 859 1008 l 814 924 l 564 435 l 514 435 l 514 100 l 515 94 q 643 0 552 19 l 251 0 z "},"ŷ":{"ha":773,"x_min":-27,"x_max":800,"o":"m -27 730 l 365 730 q 235 642 235 673 q 237 636 235 639 l 239 630 l 408 172 l 591 630 l 593 637 q 594 644 594 642 q 465 730 591 685 l 800 730 q 673 635 717 714 l 671 630 l 354 -163 l 346 -183 q 203 -294 300 -286 q 195 -294 199 -294 q 186 -294 191 -294 q 41 -228 106 -294 q 14 -163 14 -195 q 38 -100 14 -125 q 101 -75 64 -75 q 164 -103 138 -75 q 191 -168 191 -132 q 168 -224 191 -199 q 203 -232 186 -232 q 248 -212 229 -231 l 264 -190 q 334 -12 307 -85 l 102 630 l 101 632 l 99 638 q -27 730 56 714 m 236 793 l 363 1003 q 373 1015 365 1005 q 407 1037 385 1030 q 433 1042 422 1042 l 435 1042 l 436 1042 q 462 1037 446 1042 q 496 1015 480 1031 q 505 1003 503 1006 l 633 793 l 619 779 l 436 901 l 250 779 l 236 793 z "},"Ÿ":{"ha":895,"x_min":-47,"x_max":943,"o":"m 562 1160 q 549 1173 562 1160 q 536 1223 536 1186 q 562 1287 536 1261 q 624 1313 587 1313 q 686 1287 661 1313 q 712 1223 712 1261 q 686 1160 712 1186 q 624 1134 661 1134 q 562 1160 587 1134 m 333 1160 q 320 1173 333 1160 q 307 1223 307 1186 q 333 1287 307 1261 q 395 1313 359 1313 q 458 1287 432 1313 q 484 1223 484 1261 q 458 1160 484 1186 q 395 1134 432 1134 q 333 1160 359 1134 m 251 0 q 378 95 335 16 l 380 100 l 380 435 l 322 435 l 81 924 l 81 926 l 79 932 q -47 1025 35 1008 l 345 1025 q 213 941 213 978 q 216 930 213 935 l 218 924 l 457 435 l 490 435 l 734 924 l 737 930 q 740 941 740 935 q 608 1025 739 978 l 943 1025 q 816 930 859 1008 l 814 924 l 564 435 l 514 435 l 514 100 l 515 94 q 643 0 552 19 l 251 0 z "},"Ź":{"ha":801,"x_min":0,"x_max":801,"o":"m 370 1074 l 497 1284 q 507 1295 499 1287 q 550 1320 524 1315 q 570 1322 560 1322 q 621 1301 600 1322 q 641 1251 641 1281 q 640 1239 641 1246 q 616 1193 637 1208 l 605 1183 l 383 1059 l 370 1074 m 0 0 l 576 956 l 235 956 l 226 955 q 38 806 178 950 l 164 1025 l 765 1025 l 204 69 l 604 69 l 613 70 q 801 218 661 75 l 675 0 l 0 0 z "},"ź":{"ha":676,"x_min":0,"x_max":676,"o":"m 290 793 l 418 1003 q 427 1015 420 1006 q 471 1040 445 1034 q 490 1042 481 1042 q 542 1020 520 1042 q 562 970 562 1000 q 561 958 562 965 q 537 912 558 928 l 526 903 l 304 779 l 290 793 m 0 0 l 441 661 l 225 661 l 216 661 q 28 512 168 656 l 154 730 l 630 730 l 204 69 l 479 69 l 488 70 q 676 218 536 75 l 550 0 l 0 0 z "},"Ż":{"ha":801,"x_min":0,"x_max":801,"o":"m 395 1159 q 382 1172 395 1159 q 370 1223 370 1185 q 395 1286 370 1260 q 458 1312 421 1312 q 520 1286 494 1312 q 546 1223 546 1260 q 520 1159 546 1185 q 458 1133 494 1133 q 395 1159 421 1133 m 0 0 l 576 956 l 235 956 l 226 955 q 38 806 178 950 l 164 1025 l 765 1025 l 204 69 l 604 69 l 613 70 q 801 218 661 75 l 675 0 l 0 0 z "},"ż":{"ha":676,"x_min":0,"x_max":676,"o":"m 330 889 q 317 902 330 889 q 304 952 304 915 q 330 1016 304 989 q 392 1042 355 1042 q 454 1016 429 1042 q 480 952 480 989 q 454 889 480 915 q 392 863 429 863 q 330 889 355 863 m 0 0 l 441 661 l 225 661 l 216 661 q 28 512 168 656 l 154 730 l 630 730 l 204 69 l 479 69 l 488 70 q 676 218 536 75 l 550 0 l 0 0 z "},"Ž":{"ha":801,"x_min":0,"x_max":801,"o":"m 269 1308 l 283 1322 l 469 1200 l 652 1322 l 666 1308 l 538 1098 q 529 1086 536 1095 q 495 1064 513 1069 q 469 1059 479 1059 l 468 1059 l 466 1059 q 440 1064 455 1059 q 406 1086 418 1071 q 397 1098 398 1096 l 269 1308 m 0 0 l 576 956 l 235 956 l 226 955 q 38 806 178 950 l 164 1025 l 765 1025 l 204 69 l 604 69 l 613 70 q 801 218 661 75 l 675 0 l 0 0 z "},"ž":{"ha":676,"x_min":0,"x_max":676,"o":"m 178 1027 l 192 1042 l 378 920 l 562 1042 l 575 1027 l 448 817 q 438 806 446 814 q 404 783 422 789 q 378 779 388 779 l 377 779 l 375 779 q 349 783 364 779 q 315 806 328 790 q 306 817 307 815 l 178 1027 m 0 0 l 441 661 l 225 661 l 216 661 q 28 512 168 656 l 154 730 l 630 730 l 204 69 l 479 69 l 488 70 q 676 218 536 75 l 550 0 l 0 0 z "},"ſ":{"ha":774,"x_min":-34,"x_max":774,"o":"m 104 0 q 232 95 189 16 l 233 100 l 233 505 l 100 505 l 94 505 q -34 453 9 500 l 87 652 q 83 618 83 635 q 132 574 83 574 l 135 574 l 138 574 l 233 574 l 233 869 q 224 892 233 884 q 183 909 213 903 q 104 924 121 924 q 312 1002 146 943 q 509 1042 426 1042 l 514 1042 q 705 966 624 1042 q 774 808 774 886 l 774 804 q 748 739 774 767 q 686 712 723 712 q 623 738 648 712 q 597 800 597 764 l 597 802 q 623 865 597 840 q 682 891 648 890 q 614 955 675 920 q 533 972 597 965 q 519 972 527 972 q 397 932 435 965 l 377 914 q 368 869 368 905 l 368 100 l 369 94 q 496 0 406 19 l 104 0 z "},"ƒ":{"ha":696,"x_min":27,"x_max":696,"o":"m 27 -294 q 156 13 156 -156 l 156 18 l 156 869 q 147 892 156 883 q 104 909 137 903 q 27 924 33 922 q 235 1002 68 943 q 431 1042 349 1042 l 437 1042 q 628 966 547 1042 q 696 808 696 886 l 696 804 q 671 739 696 767 q 608 712 646 712 q 546 738 571 712 q 520 800 520 764 l 520 802 q 546 865 520 840 q 604 891 570 890 q 537 955 598 920 q 456 972 519 965 q 441 972 450 972 q 319 932 358 965 l 300 914 q 293 899 295 910 l 292 576 l 427 576 l 432 576 q 560 628 517 581 l 439 429 q 443 463 443 446 q 395 507 443 507 l 391 507 l 389 507 l 292 507 l 290 18 l 290 13 q 32 -293 290 -214 l 27 -294 z "},"Ǥ":{"ha":916,"x_min":88,"x_max":941,"o":"m 118 298 q 103 346 118 298 q 88 505 88 393 q 118 719 88 616 q 199 891 149 824 q 321 1001 252 961 q 463 1042 391 1042 l 469 1042 q 615 1006 548 1042 q 688 957 661 982 l 694 956 q 783 1042 762 962 l 783 650 q 701 867 748 789 q 642 930 677 903 q 510 970 586 970 q 355 911 430 970 q 263 735 296 854 q 232 516 232 623 l 232 507 q 254 315 232 401 q 338 121 293 169 q 475 54 399 54 q 602 112 538 54 q 669 212 649 165 l 662 212 l 517 212 l 512 212 q 384 160 427 207 l 505 359 q 501 325 501 342 q 549 281 501 281 l 553 281 l 555 281 l 662 281 l 684 281 q 684 288 684 284 q 671 346 684 323 l 668 351 q 495 435 617 422 l 848 435 q 821 298 841 363 l 815 281 q 941 332 899 286 l 820 133 q 824 168 824 150 q 786 211 824 207 q 739 134 766 169 q 617 24 688 66 q 469 -17 547 -17 q 321 24 392 -17 q 199 134 251 65 q 118 298 148 203 z "},"ǥ":{"ha":812,"x_min":75,"x_max":810,"o":"m 222 363 q 266 139 222 213 q 399 66 311 66 q 503 119 467 66 q 522 168 521 146 l 522 174 l 522 574 q 513 620 522 609 l 506 630 q 386 682 453 682 l 377 682 q 256 588 299 680 q 222 363 222 515 m 75 374 q 115 560 75 474 q 224 696 155 648 q 391 747 296 747 q 578 707 464 747 q 785 630 746 648 q 707 615 770 629 q 665 598 680 609 q 656 574 656 591 l 656 0 q 646 -69 654 -37 l 677 -69 l 682 -69 q 810 -18 768 -64 l 689 -217 q 693 -182 693 -200 q 645 -138 693 -138 l 642 -138 l 639 -138 l 620 -138 q 543 -225 592 -190 q 345 -294 446 -294 q 328 -294 337 -294 q 166 -228 220 -285 q 138 -163 138 -199 q 163 -100 138 -125 q 226 -75 189 -75 q 289 -104 262 -75 q 315 -170 315 -133 q 292 -224 315 -199 q 331 -232 307 -232 q 389 -224 355 -232 q 484 -167 455 -208 q 500 -138 492 -155 l 387 -138 l 425 -69 l 519 -69 q 522 -14 522 -43 l 522 0 l 522 31 q 376 -17 455 -17 q 224 34 293 -17 q 115 174 157 84 q 75 374 75 262 z "},"Ș":{"ha":886,"x_min":81,"x_max":804,"o":"m 463 -45 l 335 -255 q 326 -267 333 -258 q 282 -292 308 -286 q 262 -294 272 -294 q 211 -272 233 -294 q 191 -222 191 -252 q 192 -210 191 -217 q 216 -164 195 -180 l 227 -155 l 449 -31 l 463 -45 m 81 506 q 180 170 110 271 l 193 155 q 247 109 203 139 q 430 54 324 54 q 433 54 431 54 q 480 56 475 54 q 635 161 581 76 q 671 292 671 224 l 671 310 q 555 442 665 395 l 324 548 q 151 783 152 628 l 151 796 q 227 971 153 901 q 412 1042 300 1042 q 416 1042 414 1042 q 593 957 529 1042 l 599 956 q 671 1042 650 962 l 671 650 q 587 875 631 817 l 564 903 q 529 933 554 913 q 422 977 477 976 l 420 977 q 312 937 354 977 q 269 825 269 897 q 269 821 269 823 q 395 670 269 726 l 642 560 q 804 314 794 492 l 804 288 q 692 72 784 155 q 453 -17 602 -17 l 448 -17 q 307 11 399 -17 l 180 65 l 171 68 q 81 -18 103 63 l 81 506 z "},"ș":{"ha":682,"x_min":61,"x_max":621,"o":"m 361 -45 l 234 -255 q 224 -267 232 -258 q 181 -292 207 -286 q 161 -294 171 -294 q 110 -272 132 -294 q 90 -222 90 -252 q 91 -210 90 -217 q 115 -164 94 -180 l 126 -155 l 348 -31 l 361 -45 m 61 178 q 87 241 61 215 q 149 267 113 267 q 212 241 186 267 q 237 178 237 215 q 212 114 237 143 q 199 102 206 108 l 208 96 q 349 50 269 50 q 351 50 350 50 q 458 83 416 50 q 497 187 494 113 l 497 200 q 429 294 494 273 l 244 349 q 114 496 140 379 q 111 536 111 516 q 165 669 111 603 q 345 747 229 747 q 528 675 452 747 q 567 627 553 652 q 577 583 577 608 q 551 520 577 547 q 489 494 526 494 q 427 520 452 494 q 401 584 401 547 q 427 647 401 621 l 439 656 q 345 679 398 679 l 343 679 q 261 645 298 675 q 231 556 231 614 q 231 547 231 551 q 289 465 231 490 l 450 423 q 555 368 520 397 q 621 199 620 311 q 547 45 614 115 q 348 -17 486 -17 q 135 62 227 -17 q 73 132 87 103 q 66 146 68 140 q 61 178 61 160 z "},"Ț":{"ha":810,"x_min":-54,"x_max":864,"o":"m 420 -45 l 292 -255 q 283 -267 290 -258 q 239 -292 265 -286 q 220 -294 229 -294 q 168 -272 190 -294 q 149 -222 149 -252 q 149 -210 149 -217 q 173 -164 152 -180 l 184 -155 l 406 -31 l 420 -45 m 209 0 q 336 95 293 16 l 338 100 l 338 956 l 143 956 l 134 955 q -54 806 85 950 l 72 1025 l 738 1025 l 864 806 q 676 955 724 950 l 667 956 l 472 956 l 472 100 l 473 94 q 601 0 510 19 l 209 0 z "},"ț":{"ha":624,"x_min":-34,"x_max":658,"o":"m 328 -45 l 201 -255 q 191 -267 199 -258 q 148 -292 174 -286 q 128 -294 138 -294 q 77 -272 98 -294 q 57 -222 57 -252 q 58 -210 57 -217 q 81 -164 60 -180 l 93 -155 l 315 -31 l 328 -45 m -34 575 l 87 774 q 83 740 83 758 q 132 696 83 696 q 135 696 133 696 l 138 696 l 244 696 l 244 891 q 235 915 244 907 q 191 931 225 924 q 115 947 153 939 q 323 1024 177 974 q 378 1042 349 1033 l 378 696 l 524 696 l 530 696 q 658 747 615 701 l 536 548 q 541 583 541 565 q 492 627 541 627 q 489 627 491 627 l 486 627 l 378 627 l 378 100 l 380 94 q 507 0 416 19 l 115 0 q 243 95 199 16 l 244 100 l 244 627 l 100 627 l 94 627 q -34 575 9 622 z "},"Δ":{"ha":963,"x_min":-14,"x_max":977,"o":"m -14 0 q 113 95 70 16 l 115 100 l 478 1052 l 848 100 l 848 98 l 850 92 q 977 0 894 16 l -14 0 m 191 72 l 707 72 l 450 755 l 191 72 z "},"Π":{"ha":1009,"x_min":41,"x_max":968,"o":"m 41 0 q 168 95 125 16 l 170 100 l 170 924 l 168 930 q 41 1025 125 1008 l 968 1025 q 841 930 878 1006 l 840 924 l 840 100 l 841 94 q 968 0 878 19 l 576 0 q 704 95 661 16 l 705 100 l 705 943 l 304 943 l 304 100 l 305 94 q 433 0 342 19 l 41 0 z "},"Σ":{"ha":937,"x_min":41,"x_max":897,"o":"m 319 69 l 699 69 l 709 70 q 897 218 757 75 l 770 0 l 41 0 q 165 93 106 26 l 170 100 l 465 505 l 170 924 l 165 932 q 41 1025 109 1010 l 682 1025 l 808 806 q 621 955 669 950 l 611 956 l 319 956 l 642 507 l 319 69 z "},"Ω":{"ha":1028,"x_min":0,"x_max":1028,"o":"m 0 281 q 188 132 140 137 l 197 132 l 347 132 l 347 184 q 341 186 342 186 q 249 280 314 206 q 163 420 188 350 q 134 577 134 505 q 134 583 134 580 q 163 751 134 668 q 254 901 186 817 q 368 1001 306 965 q 515 1042 437 1042 q 663 1001 589 1042 q 783 899 726 967 q 867 751 831 843 q 897 587 897 674 q 897 583 897 585 q 866 420 897 486 q 787 292 831 346 q 685 187 725 218 l 679 184 l 679 131 l 831 131 l 840 132 q 1028 280 888 136 l 902 -1 l 610 -1 l 610 254 q 649 286 630 267 q 727 406 709 350 q 754 574 754 488 q 754 593 755 583 q 730 765 747 706 q 636 913 703 843 q 516 970 581 970 l 515 970 q 399 925 448 970 q 304 774 347 878 q 275 585 275 703 q 296 435 275 495 q 386 283 325 354 q 418 254 399 269 l 418 0 l 126 0 l 0 281 z "},"μ":{"ha":873,"x_min":14,"x_max":860,"o":"m 14 -294 q 142 13 142 -156 l 142 18 l 142 597 q 134 621 142 614 q 92 637 119 631 q 14 652 33 651 q 221 730 52 669 q 277 747 250 740 l 277 368 l 277 366 q 336 136 277 211 q 469 66 391 66 q 472 66 471 66 q 597 128 558 66 l 597 630 l 595 636 q 468 730 559 711 l 860 730 q 732 635 776 714 l 731 630 l 731 134 q 740 110 731 117 q 781 93 753 99 q 860 78 843 79 q 652 1 822 61 q 597 -17 624 -9 l 597 35 l 595 34 q 444 -17 527 -17 q 292 34 360 -17 q 277 46 284 40 l 277 18 l 277 13 q 18 -293 277 -214 l 14 -294 z "},"π":{"ha":861,"x_min":14,"x_max":848,"o":"m 14 0 q 141 95 98 16 l 142 100 l 142 646 l 141 651 q 14 746 98 730 l 848 746 q 720 652 757 727 l 719 646 l 719 100 l 720 94 q 848 0 757 19 l 456 0 q 583 95 540 16 l 585 100 l 585 665 l 277 665 l 277 100 l 278 94 q 406 0 315 19 l 14 0 z "},"‐":{"ha":624,"x_min":136,"x_max":488,"o":"m 136 541 l 488 541 l 488 407 l 136 408 l 136 541 z "},"‑":{"ha":624,"x_min":136,"x_max":488,"o":"m 136 541 l 488 541 l 488 407 l 136 408 l 136 541 z "},"‒":{"ha":836,"x_min":136,"x_max":701,"o":"m 136 541 l 701 541 l 701 408 l 136 408 l 136 541 z "},"–":{"ha":836,"x_min":136,"x_max":701,"o":"m 136 541 l 701 541 l 701 408 l 136 408 l 136 541 z "},"—":{"ha":728,"x_min":0,"x_max":728,"o":"m 0 541 l 728 541 l 728 407 l 0 407 l 0 541 z "},"―":{"ha":728,"x_min":0,"x_max":728,"o":"m 0 541 l 728 541 l 728 407 l 0 407 l 0 541 z "},"‗":{"ha":836,"x_min":136,"x_max":701,"o":"m 136 134 l 701 134 l 701 0 l 136 0 l 136 134 z "},"‘":{"ha":483,"x_min":136,"x_max":347,"o":"m 347 1042 q 340 1035 347 1042 q 273 945 291 989 q 258 886 260 914 l 258 872 q 298 849 280 867 q 323 785 323 823 q 298 722 323 748 q 235 696 272 696 q 173 720 203 696 q 138 789 144 744 q 136 820 136 805 q 162 926 136 874 q 286 1039 212 1023 q 324 1043 305 1043 q 347 1042 335 1043 z "},"’":{"ha":483,"x_min":136,"x_max":347,"o":"m 136 697 q 142 704 136 697 q 210 793 192 750 q 225 852 223 825 l 225 867 q 185 890 203 872 q 159 954 159 916 q 185 1017 159 991 q 248 1043 211 1043 q 310 1019 280 1043 q 345 949 339 995 q 347 919 347 934 q 321 812 347 865 q 197 700 271 715 q 159 696 178 696 q 136 697 148 696 z "},"‚":{"ha":483,"x_min":136,"x_max":347,"o":"m 136 -186 q 142 -180 136 -186 q 210 -90 192 -134 q 225 -31 223 -59 l 225 -17 q 185 6 203 -12 q 159 70 159 32 q 185 133 159 107 q 248 159 211 159 q 310 135 280 159 q 345 66 339 111 q 347 35 347 50 q 321 -71 347 -19 q 197 -184 271 -168 q 159 -188 178 -188 q 136 -186 148 -188 z "},"‛":{"ha":483,"x_min":136,"x_max":347,"o":"m 347 697 q 324 696 335 696 q 286 700 305 696 q 162 812 212 715 q 136 919 136 865 q 138 949 136 934 q 173 1019 144 995 q 235 1043 203 1043 q 298 1017 272 1043 q 323 954 323 991 q 298 890 323 916 q 258 867 280 872 l 258 852 q 273 793 260 825 q 340 704 291 750 l 347 697 z "},"“":{"ha":725,"x_min":136,"x_max":589,"o":"m 589 1042 q 583 1035 589 1042 q 515 945 533 989 q 500 886 502 914 l 500 872 q 540 849 522 867 q 566 785 566 823 q 540 722 566 748 q 477 696 514 696 q 415 720 445 696 q 380 789 386 744 q 378 820 378 805 q 404 926 378 874 q 528 1039 454 1023 q 566 1043 547 1043 q 589 1042 577 1043 m 347 1042 l 340 1035 q 273 945 291 989 q 258 886 260 914 l 258 872 q 298 849 280 867 q 323 785 323 823 q 298 722 323 748 q 235 696 272 696 q 173 720 203 696 q 138 789 144 744 q 136 820 136 805 q 162 926 136 874 q 286 1039 212 1023 q 324 1043 305 1043 q 347 1042 335 1043 z "}}}
